<?xml version="1.0" encoding="UTF-8" standalone="no"?>
<svg
   width="24"
   height="24"
   viewBox="0 0 24 23.999999"
   version="1.1"
   id="svg8"
   inkscape:version="1.3-beta (cedbd6c6ff, 2023-05-28)"
   sodipodi:docname="wm-icons.svg"
   xml:space="preserve"
   xmlns:inkscape="http://www.inkscape.org/namespaces/inkscape"
   xmlns:sodipodi="http://sodipodi.sourceforge.net/DTD/sodipodi-0.dtd"
   xmlns:xlink="http://www.w3.org/1999/xlink"
   xmlns="http://www.w3.org/2000/svg"
   xmlns:svg="http://www.w3.org/2000/svg"
   xmlns:rdf="http://www.w3.org/1999/02/22-rdf-syntax-ns#"
   xmlns:cc="http://creativecommons.org/ns#"
   xmlns:dc="http://purl.org/dc/elements/1.1/"><defs
     id="defs2"><symbol
       id="icon-ios-heart"><title
         id="title804">ios-heart</title><path
         d="M 22.462,5 C 19.998,5 17.324,6.1 16,8.3 14.677,6.1 12.002,5 9.538,5 5.227,5 2,7.702 2,12.236 c 0,1.956 0.785,4.495 2.558,6.604 1.773,2.109 2.827,3.231 6.26,5.5 3.433,2.269 5.183,2.66 5.183,2.66 0,0 1.75,-0.391 5.183,-2.66 3.433,-2.269 4.487,-3.392 6.26,-5.5 1.773,-2.108 2.558,-4.648 2.558,-6.604 C 30.002,7.702 26.774,5 22.464,5 Z"
         id="path805" /></symbol></defs><sodipodi:namedview
     id="base"
     pagecolor="#ffffff"
     bordercolor="#7d7d7d"
     borderopacity="0.49019608"
     inkscape:pageopacity="0"
     inkscape:pageshadow="2"
     inkscape:zoom="5"
     inkscape:cx="-144.4"
     inkscape:cy="424.6"
     inkscape:document-units="px"
     inkscape:current-layer="layer2"
     showgrid="false"
     inkscape:snap-bbox="true"
     inkscape:bbox-paths="true"
     inkscape:bbox-nodes="true"
     inkscape:object-paths="true"
     units="px"
     borderlayer="true"
     inkscape:showpageshadow="false"
     inkscape:pagecheckerboard="false"
     showguides="false"
     inkscape:guide-bbox="true"
     inkscape:document-rotation="0"
     inkscape:deskcolor="#ffffff"><sodipodi:guide
       position="0,1000.001"
       orientation="-1,0"
       id="guide4487"
       inkscape:locked="false"
       inkscape:label=""
       inkscape:color="rgb(0,0,255)" /><sodipodi:guide
       position="-99.999998,900.00098"
       orientation="0,1"
       id="guide4497"
       inkscape:locked="false"
       inkscape:label=""
       inkscape:color="rgb(0,0,255)" /><inkscape:grid
       type="axonomgrid"
       id="grid1"
       units="px"
       originx="-0.70710677"
       originy="0"
       spacingx="0"
       spacingy="1.41421"
       empcolor="#3f3fff"
       empopacity="0.30196078"
       color="#3f3fff"
       opacity="0.10196078"
       empspacing="2"
       dotted="false"
       gridanglex="45"
       gridanglez="45"
       visible="false" /><sodipodi:guide
       position="-20,24"
       orientation="0,1"
       id="guide1"
       inkscape:locked="false"
       inkscape:label=""
       inkscape:color="rgb(0,134,229)" /><sodipodi:guide
       position="-20,0"
       orientation="0,1"
       id="guide2"
       inkscape:locked="false"
       inkscape:label=""
       inkscape:color="rgb(0,134,229)" /><sodipodi:guide
       position="-20,-20"
       orientation="0,1"
       id="guide3"
       inkscape:locked="false"
       inkscape:label=""
       inkscape:color="rgb(0,134,229)" /><sodipodi:guide
       position="-20,41.999999"
       orientation="0,1"
       id="guide4"
       inkscape:locked="false"
       inkscape:label=""
       inkscape:color="rgb(0,134,229)" /><sodipodi:guide
       position="12,12"
       orientation="-1,0"
       id="guide5"
       inkscape:locked="false"
       inkscape:label=""
       inkscape:color="rgb(0,134,229)" /><sodipodi:guide
       position="35.999999,11.999999"
       orientation="-1,0"
       id="guide6"
       inkscape:locked="false"
       inkscape:label=""
       inkscape:color="rgb(0,134,229)" /></sodipodi:namedview><metadata
     id="metadata5"><rdf:RDF><cc:Work
         rdf:about=""><dc:format>image/svg+xml</dc:format><dc:type
           rdf:resource="http://purl.org/dc/dcmitype/StillImage" /><cc:license
           rdf:resource="http://creativecommons.org/publicdomain/zero/1.0/" /></cc:Work><cc:License
         rdf:about="http://creativecommons.org/publicdomain/zero/1.0/"><cc:permits
           rdf:resource="http://creativecommons.org/ns#Reproduction" /><cc:permits
           rdf:resource="http://creativecommons.org/ns#Distribution" /><cc:permits
           rdf:resource="http://creativecommons.org/ns#DerivativeWorks" /></cc:License></rdf:RDF></metadata><g
     inkscape:groupmode="layer"
     id="layer2"
     inkscape:label="bg"
     transform="translate(0,-5.2916666)"><rect
       style="opacity:1;fill:#fbce2f;fill-opacity:1;stroke-width:5.90771;stroke-linecap:round;stroke-linejoin:round"
       id="rect4"
       width="24"
       height="24"
       x="0"
       y="5.2916665"
       rx="8"
       ry="8" /><circle
       style="opacity:1;fill:#fbce2f;fill-opacity:1;stroke:none;stroke-width:1.9824;stroke-linecap:square;stroke-linejoin:miter;stroke-miterlimit:2;stroke-dasharray:none;stroke-opacity:1"
       id="ellipse47"
       cx="52"
       cy="17.291666"
       r="8" /><g
       id="g7"
       transform="translate(-40)"
       inkscape:export-filename="24/checkmark.png"
       inkscape:export-xdpi="96"
       inkscape:export-ydpi="96"><rect
         style="opacity:1;fill:#fbce2f;fill-opacity:1;stroke-width:5.90771;stroke-linecap:round;stroke-linejoin:round"
         id="rect7"
         width="24"
         height="24"
         x="-60"
         y="5.2916665"
         rx="8"
         ry="8" /><path
         style="opacity:1;fill:none;fill-opacity:1;stroke:#000000;stroke-width:2;stroke-linecap:square;stroke-linejoin:miter;stroke-miterlimit:2;stroke-dasharray:none"
         d="m -53.656807,16.584551 4.242614,4.242615 7.071,-7.071"
         id="path7"
         sodipodi:nodetypes="ccc" /></g><ellipse
       style="opacity:1;fill:none;fill-opacity:1;stroke:#000000;stroke-width:2;stroke-linecap:square;stroke-linejoin:miter;stroke-miterlimit:2;stroke-dasharray:none"
       id="ellipse8"
       cx="52"
       cy="17.291666"
       rx="7"
       ry="7.0000005" /><ellipse
       style="opacity:1;fill:#000000;fill-opacity:1;stroke:none;stroke-width:0.424266;stroke-linecap:square;stroke-linejoin:miter;stroke-miterlimit:2;stroke-dasharray:none;stroke-opacity:1"
       id="ellipse9"
       cx="48.5"
       cy="15.791666"
       rx="1.5"
       ry="1.5000001" /><ellipse
       style="opacity:1;fill:#000000;fill-opacity:1;stroke:none;stroke-width:0.424266;stroke-linecap:square;stroke-linejoin:miter;stroke-miterlimit:2;stroke-dasharray:none;stroke-opacity:1"
       id="ellipse10"
       cx="55.5"
       cy="15.791666"
       rx="1.5"
       ry="1.5000001" /><g
       id="g16"
       transform="translate(20)"><rect
         style="opacity:1;fill:#fbce2f;fill-opacity:1;stroke-width:5.90771;stroke-linecap:round;stroke-linejoin:round"
         id="rect13"
         width="24"
         height="24"
         x="-160"
         y="5.2916665"
         rx="8"
         ry="8" /><ellipse
         style="opacity:1;fill:#fbce2f;fill-opacity:1;stroke:#fbce2f;stroke-width:1.9824;stroke-linecap:square;stroke-linejoin:miter;stroke-miterlimit:2;stroke-dasharray:none;stroke-opacity:1"
         id="ellipse14"
         cx="-148"
         cy="16.291666"
         rx="7.0088"
         ry="7.0088005" /><path
         style="opacity:1;fill:none;fill-opacity:1;stroke:#000000;stroke-width:1.9824;stroke-linecap:square;stroke-linejoin:miter;stroke-miterlimit:2;stroke-dasharray:none"
         id="path14"
         sodipodi:type="arc"
         sodipodi:cx="-148"
         sodipodi:cy="16.291666"
         sodipodi:rx="7.0088"
         sodipodi:ry="7.0088005"
         sodipodi:start="0.6981317"
         sodipodi:end="2.443461"
         sodipodi:open="true"
         sodipodi:arc-type="arc"
         d="M -142.63095,20.796836 A 7.0088,7.0088005 0 0 1 -148,23.300467 a 7.0088,7.0088005 0 0 1 -5.36905,-2.503631" /><ellipse
         style="opacity:1;fill:#000000;fill-opacity:1;stroke:none;stroke-width:0.424266;stroke-linecap:square;stroke-linejoin:miter;stroke-miterlimit:2;stroke-dasharray:none;stroke-opacity:1"
         id="ellipse15"
         cx="-151.5"
         cy="14.791666"
         rx="1.5"
         ry="1.5000001" /><ellipse
         style="opacity:1;fill:#000000;fill-opacity:1;stroke:none;stroke-width:0.424266;stroke-linecap:square;stroke-linejoin:miter;stroke-miterlimit:2;stroke-dasharray:none;stroke-opacity:1"
         id="ellipse16"
         cx="-144.5"
         cy="14.791666"
         rx="1.5"
         ry="1.5000001" /></g><g
       id="g17"
       transform="translate(-140)"><rect
         style="opacity:1;fill:#fbce2f;fill-opacity:1;stroke-width:5.90771;stroke-linecap:round;stroke-linejoin:round"
         id="rect16"
         width="24"
         height="24"
         x="-40"
         y="5.2916665"
         rx="8"
         ry="8" /><use
         xlink:href="#icon-ios-heart"
         style="fill:none;stroke:#000000;stroke-width:3.83609;stroke-linecap:square;stroke-linejoin:miter"
         id="use16"
         transform="matrix(0.50254076,0,0,0.54089344,-36.041186,9.6246574)" /></g><g
       id="g19"
       transform="translate(-160)"><rect
         style="opacity:1;fill:#fbce2f;fill-opacity:1;stroke-width:5.90771;stroke-linecap:round;stroke-linejoin:round"
         id="rect18"
         width="24"
         height="24"
         x="-60"
         y="5.2916665"
         rx="8"
         ry="8" /><path
         sodipodi:type="star"
         style="opacity:1;fill:none;fill-opacity:1;stroke:#000000;stroke-width:1.76563191;stroke-linecap:square;stroke-linejoin:round;stroke-miterlimit:2;stroke-dasharray:none;stroke-opacity:1"
         id="path19"
         inkscape:flatsided="false"
         sodipodi:sides="5"
         sodipodi:cx="13.75"
         sodipodi:cy="31.5"
         sodipodi:r1="3.0579813"
         sodipodi:r2="7.6449533"
         sodipodi:arg1="0.95993109"
         sodipodi:arg2="1.5882496"
         inkscape:rounded="0"
         inkscape:randomized="0"
         d="m 15.503986,34.004952 -1.887409,5.138837 -1.706916,-5.201577 -5.4705661,-0.207044 4.4195271,-3.230749 -1.4935872,-5.266798 4.4383342,3.204863 4.547479,-3.048015 -1.676486,5.211464 4.304083,3.38302 z"
         transform="matrix(0.96293016,0,0,-0.96272603,-61.20059,48.282469)"
         inkscape:transform-center-x="-0.039701603"
         inkscape:transform-center-y="0.66495931" /></g><g
       id="g20"
       transform="translate(-60,40)"
       inkscape:export-filename="24\asterisk.png"
       inkscape:export-xdpi="96"
       inkscape:export-ydpi="96"><rect
         style="opacity:1;fill:#fbce2f;fill-opacity:1;stroke-width:5.90771;stroke-linecap:round;stroke-linejoin:round"
         id="rect19"
         width="24"
         height="24"
         x="-40"
         y="5.2916665"
         rx="8"
         ry="8" /><path
         sodipodi:type="star"
         style="opacity:1;fill:none;fill-opacity:1;stroke:#000000;stroke-width:2.17479095;stroke-linecap:square;stroke-linejoin:miter;stroke-miterlimit:2;stroke-dasharray:none;stroke-opacity:1"
         id="path20"
         inkscape:flatsided="false"
         sodipodi:sides="5"
         sodipodi:cx="11.3125"
         sodipodi:cy="30.3125"
         sodipodi:r1="7.6449533"
         sodipodi:r2="0.076449536"
         sodipodi:arg1="0.95993109"
         sodipodi:arg2="1.5882496"
         inkscape:rounded="0"
         inkscape:randomized="0"
         d="m 15.697465,36.574879 -4.386299,-6.185941 -4.5995137,6.029093 4.5277387,-6.083179 -7.1553363,-2.511305 7.1845953,2.426329 0.177273,-7.581165 -0.08742,7.582734 7.264897,-2.174113 -7.238621,2.260058 z"
         transform="matrix(0.91962862,0,0,0.91962862,-38.424649,-10.226906)"
         inkscape:transform-center-x="-0.037915737"
         inkscape:transform-center-y="-0.63519373" /></g><g
       id="g35"
       transform="translate(-100,40)"
       inkscape:export-filename="24\update.png"
       inkscape:export-xdpi="96"
       inkscape:export-ydpi="96"><rect
         style="opacity:1;fill:#fbce2f;fill-opacity:1;stroke-width:5.90771;stroke-linecap:round;stroke-linejoin:round"
         id="rect33"
         width="24"
         height="24"
         x="-40"
         y="5.2916665"
         rx="8"
         ry="8" /><ellipse
         style="opacity:1;fill:#fbce2f;fill-opacity:1;stroke:#fbce2f;stroke-width:1.9824;stroke-linecap:square;stroke-linejoin:miter;stroke-miterlimit:2;stroke-dasharray:none;stroke-opacity:1"
         id="ellipse33"
         cx="-28"
         cy="17.291666"
         rx="7.0088"
         ry="7.0088005" /><path
         style="fill:none;fill-opacity:1;stroke:#000000;stroke-width:2;stroke-linecap:butt;stroke-linejoin:miter;stroke-miterlimit:2;stroke-dasharray:none;stroke-opacity:1"
         d="m -27.979217,13.776927 v 4.24263 l 3.535525,3.535525"
         id="path33"
         sodipodi:nodetypes="ccc" /><path
         id="path34"
         style="opacity:1;stroke-width:2;stroke-miterlimit:2"
         d="m -24,17.291668 h 6 l -3,3 z"
         sodipodi:nodetypes="cccc" /><path
         style="opacity:1;fill:none;fill-opacity:1;stroke:#000000;stroke-width:2;stroke-linecap:butt;stroke-linejoin:miter;stroke-miterlimit:2;stroke-dasharray:none"
         id="path35"
         sodipodi:type="arc"
         sodipodi:cx="-28.000349"
         sodipodi:cy="17.291191"
         sodipodi:rx="7.0002913"
         sodipodi:ry="7.0005593"
         sodipodi:start="1.5707963"
         sodipodi:end="0.087266463"
         sodipodi:open="true"
         sodipodi:arc-type="arc"
         d="m -28.000349,24.29175 a 7.0002913,7.0005593 0 0 1 -6.524327,-4.46329 7.0002913,7.0005593 0 0 1 1.794999,-7.698623 7.0002913,7.0005593 0 0 1 7.825478,-1.117257 7.0002913,7.0005593 0 0 1 3.877503,6.88875" /></g><g
       id="g41"
       transform="translate(-140,40)"
       inkscape:export-filename="24\factory.png"
       inkscape:export-xdpi="96"
       inkscape:export-ydpi="96"><rect
         style="opacity:1;fill:#fbce2f;fill-opacity:1;stroke-width:5.90771;stroke-linecap:round;stroke-linejoin:round"
         id="rect40"
         width="24"
         height="24"
         x="-40"
         y="5.2916665"
         rx="8"
         ry="8" /><path
         id="path41"
         style="opacity:1;fill:none;fill-opacity:1;stroke:#000000;stroke-width:1.75;stroke-linecap:square;stroke-linejoin:round;stroke-miterlimit:2;stroke-dasharray:none;stroke-opacity:1"
         d="m -28,11.291549 v 6.000055 l -6,-6.000055 v 12.000109 h 12 v -6.000054 z"
         sodipodi:nodetypes="ccccccc" /></g><g
       id="g45"
       transform="translate(-180,40)"><rect
         style="opacity:1;fill:#fbce2f;fill-opacity:1;stroke-width:5.90771;stroke-linecap:round;stroke-linejoin:round"
         id="rect44"
         width="24"
         height="24"
         x="-40"
         y="5.2916665"
         rx="8"
         ry="8" /><ellipse
         style="fill:#fbce2f;fill-opacity:1;stroke:#fbce2f;stroke-width:1.9824;stroke-linecap:square;stroke-linejoin:miter;stroke-miterlimit:2;stroke-dasharray:none;stroke-opacity:1"
         id="ellipse44"
         cx="-28"
         cy="15.291668"
         rx="4.0088"
         ry="4.0088005" /><path
         style="fill:none;fill-opacity:1;stroke:#000000;stroke-width:2;stroke-linecap:butt;stroke-linejoin:miter;stroke-miterlimit:2;stroke-dasharray:none"
         id="path44"
         sodipodi:type="arc"
         sodipodi:cx="-28"
         sodipodi:cy="15.291667"
         sodipodi:rx="4"
         sodipodi:ry="4"
         sodipodi:start="3.1415927"
         sodipodi:end="1.5707963"
         sodipodi:open="true"
         sodipodi:arc-type="arc"
         d="m -32,15.291667 a 4,4 0 0 1 4,-4 4,4 0 0 1 4,4 4,4 0 0 1 -4,4" /><path
         style="color:#000000;fill:#000000;stroke:none;stroke-linejoin:round;stroke-miterlimit:2;-inkscape-stroke:none"
         d="m -29,18.291667 v 2 h 1 c 0.58945,-0.371487 0.834072,-1.087803 0.882813,-2 z"
         id="path45"
         sodipodi:nodetypes="ccccc" /><ellipse
         style="fill:#000000;fill-opacity:1;stroke:none;stroke-width:0.424266;stroke-linecap:square;stroke-linejoin:miter;stroke-miterlimit:2;stroke-dasharray:none;stroke-opacity:1"
         id="ellipse45"
         cx="-28"
         cy="22.79167"
         rx="1.5"
         ry="1.5000001" /></g><g
       id="g52"
       transform="translate(-100,60)"
       inkscape:export-filename="24\hair.png"
       inkscape:export-xdpi="96"
       inkscape:export-ydpi="96"><rect
         style="opacity:1;fill:#fbce2f;fill-opacity:1;stroke-width:5.90771;stroke-linecap:round;stroke-linejoin:round"
         id="rect50"
         width="24"
         height="24"
         x="0"
         y="25.291666"
         rx="8"
         ry="8" /><circle
         style="fill:#fbce2f;fill-opacity:1;stroke:none;stroke-width:1.9824;stroke-linecap:square;stroke-linejoin:miter;stroke-miterlimit:2;stroke-dasharray:none;stroke-opacity:1"
         id="circle50"
         cx="12"
         cy="-36.291664"
         r="7"
         transform="scale(1,-1)" /><path
         id="path50"
         style="stroke-width:1.9824;stroke-linecap:square;stroke-miterlimit:2"
         d="m 19,36.291666 c 0,-2.500859 -1.334192,-4.811748 -3.5,-6.062178 -2.165808,-1.25043 -4.834193,-1.25043 -7.0000002,0 C 6.3341923,31.479918 4.9999999,33.790807 5,36.291666 c 2.0710483,2.434996 4.7619684,-0.174674 6,-2 1.727888,1.606576 5.970518,4.434996 8,2 z"
         sodipodi:nodetypes="cssccc" /><path
         id="path51"
         style="opacity:1;stroke-width:2;stroke-linejoin:round;stroke-miterlimit:2"
         d="m 5,36.291666 2,-2 v 10 H 4 l 0.9497333,-4.029479 z"
         sodipodi:nodetypes="cccccc" /><path
         id="path52"
         style="opacity:1;stroke-width:2;stroke-linejoin:round;stroke-miterlimit:2"
         d="m 17,34.291666 2,2 0.09183,3.970521 L 20,44.291666 h -3 z"
         sodipodi:nodetypes="cccccc" /></g><g
       id="g54"
       transform="translate(-140,80)"
       inkscape:export-filename="24\feather.png"
       inkscape:export-xdpi="96"
       inkscape:export-ydpi="96"><rect
         style="opacity:1;fill:#fbce2f;fill-opacity:1;stroke-width:5.90771;stroke-linecap:round;stroke-linejoin:round"
         id="rect53"
         width="24"
         height="24"
         x="0"
         y="5.2916665"
         rx="8"
         ry="8" /><path
         id="path54"
         d="m 20.577399,8.7139368 a 4.8565042,4.8566737 0 0 0 -6.864097,-0.0036 L 8.705389,13.659859 a 1.4219559,1.4220055 0 0 0 -0.419945,1.009902 v 5.12022 l -2.0340181,2.03623 a 0.85851695,0.85854691 0 0 0 1.214126,1.214169 L 9.49957,21.004147 h 5.120755 a 1.4190991,1.4191486 0 0 0 1.010582,-0.41853 h 0.0036 L 20.577428,15.5861 a 4.8607894,4.860959 0 0 0 0,-6.8721932 z m -5.657113,1.214168 a 3.1424439,3.1425536 0 0 1 4.649389,4.2195932 h -3.213863 l 1.965455,-1.964811 a 0.85851677,0.85854673 0 0 0 -1.214126,-1.214168 l -3.679516,3.67893 V 11.40082 Z m -4.920782,4.8623872 1.714061,-1.694121 v 3.265398 l -1.714061,1.71412 z m 4.499409,4.499566 H 11.21363 l 3.428121,-3.42824 h 3.249573 z"
         style="stroke-width:0.999997" /></g><g
       id="g55"
       transform="translate(-180,80)"><rect
         style="opacity:1;fill:#fbce2f;fill-opacity:1;stroke-width:5.90771;stroke-linecap:round;stroke-linejoin:round"
         id="rect54"
         width="24"
         height="24"
         x="0"
         y="5.2916665"
         rx="8"
         ry="8" /><path
         id="path55"
         d="m 18.577427,10.713922 a 4.8565042,4.8566737 0 0 0 -6.864097,-0.0036 l -5.007913,4.949522 a 1.4219559,1.4220055 0 0 0 -0.419945,1.009902 v 5.12022 l -2.034018,2.03623 a 0.85851695,0.85854691 0 0 0 1.214126,1.214169 l 2.034018,-2.036233 h 5.120755 a 1.4190991,1.4191486 0 0 0 1.010582,-0.41853 h 0.0036 l 4.942921,-4.999517 a 4.8607894,4.860959 0 0 0 0,-6.872193 z m -5.657113,1.214168 a 3.1424439,3.1425536 0 0 1 4.649389,4.219593 H 14.35584 l 1.965455,-1.964811 a 0.85851677,0.85854673 0 0 0 -1.214126,-1.214168 l -3.679516,3.67893 v -3.246829 z m -4.920782,4.862387 1.714061,-1.694121 v 3.265398 l -1.714061,1.71412 z m 4.499409,4.499566 H 9.213658 l 3.428121,-3.42824 h 3.249573 z"
         style="stroke-width:0.999997" /></g><g
       id="g57"
       transform="translate(-220,40)"
       inkscape:export-filename="24\story.png"
       inkscape:export-xdpi="96"
       inkscape:export-ydpi="96"><rect
         style="opacity:1;fill:#fbce2f;fill-opacity:1;stroke-width:5.90771;stroke-linecap:round;stroke-linejoin:round"
         id="rect56"
         width="24"
         height="24"
         x="0"
         y="45.291664"
         rx="8"
         ry="8" /><path
         id="path57"
         d="m 16,64.676282 q 0.761539,0 1.304308,-0.54277 0.542769,-0.542769 0.541846,-1.303384 v -2.769231 h -2.769231 v -2.076923 q 0.807692,-0.04615 1.535077,-0.358154 0.727385,-0.312 1.326462,-0.934154 V 55.676282 H 19 l 3,-3 q -0.830769,-1.061539 -2.053846,-1.5 -1.223077,-0.438462 -2.469231,-0.438462 -0.623077,0 -1.212,0.09231 -0.588923,0.09231 -1.188,0.346154 V 49.907051 H 4 v 12 q 0,1.153846 0.807692,1.961538 0.807693,0.807693 1.961539,0.807693 z M 13.230769,60.060897 H 7.692308 v 1.846154 q 0,0.392308 -0.265846,0.658154 -0.265847,0.265846 -0.657231,0.264923 -0.392308,0 -0.658154,-0.265846 Q 5.845231,62.298436 5.846154,61.907051 V 51.753205 h 7.384615 v 0.553846 L 7.692308,57.845512 V 59.13782 H 8.984615 L 11.615385,56.507051 11.8,56.691666 q 0.323077,0.323077 0.681231,0.576923 0.358154,0.253847 0.749538,0.392308 z m 4.984616,-6.230769 h -2.123077 v 1.984615 q -0.276923,0.184616 -0.576923,0.253846 -0.3,0.06923 -0.623077,0.06923 -0.53077,0 -0.958154,-0.161538 -0.427385,-0.161539 -0.841846,-0.576923 L 12.907692,55.214743 14.2,53.922436 q 0.669231,-0.669231 1.5,-1.004308 0.830769,-0.335077 1.776923,-0.334154 0.461539,0 0.876923,0.06923 0.415385,0.06923 0.830769,0.207692 z M 9.538462,61.907051 H 16 v 0.923077 H 9.4 q 0.06923,-0.207692 0.104308,-0.438462 0.03508,-0.230769 0.03415,-0.484615 z M 16,62.830128 v -0.923077 z"
         style="fill:#000000;stroke-width:0.999997" /></g><g
       id="g62"
       transform="matrix(0.75,0,0,0.75,20,-78.677083)"
       inkscape:export-filename="24\smile.png"
       inkscape:export-xdpi="96"
       inkscape:export-ydpi="96"><rect
         style="opacity:1;fill:#fbce2f;fill-opacity:1;stroke-width:5.90771;stroke-linecap:round;stroke-linejoin:round"
         id="rect59"
         width="24"
         height="24"
         x="-160"
         y="5.2916665"
         rx="8"
         ry="8" /><ellipse
         style="opacity:1;fill:#fbce2f;fill-opacity:1;stroke:#fbce2f;stroke-width:1.9824;stroke-linecap:square;stroke-linejoin:miter;stroke-miterlimit:2;stroke-dasharray:none;stroke-opacity:1"
         id="ellipse60"
         cx="-148"
         cy="16.291666"
         rx="7.0088"
         ry="7.0088005" /><path
         style="opacity:1;fill:none;fill-opacity:1;stroke:#000000;stroke-width:1.9824;stroke-linecap:square;stroke-linejoin:miter;stroke-miterlimit:2;stroke-dasharray:none"
         id="path60"
         sodipodi:type="arc"
         sodipodi:cx="-148"
         sodipodi:cy="16.291666"
         sodipodi:rx="7.0088"
         sodipodi:ry="7.0088005"
         sodipodi:start="0.6981317"
         sodipodi:end="2.443461"
         sodipodi:open="true"
         sodipodi:arc-type="arc"
         d="M -142.63095,20.796836 A 7.0088,7.0088005 0 0 1 -148,23.300467 a 7.0088,7.0088005 0 0 1 -5.36905,-2.503631" /><ellipse
         style="opacity:1;fill:#000000;fill-opacity:1;stroke:none;stroke-width:0.424266;stroke-linecap:square;stroke-linejoin:miter;stroke-miterlimit:2;stroke-dasharray:none;stroke-opacity:1"
         id="ellipse61"
         cx="-151.5"
         cy="14.791666"
         rx="1.5"
         ry="1.5000001" /><ellipse
         style="opacity:1;fill:#000000;fill-opacity:1;stroke:none;stroke-width:0.424266;stroke-linecap:square;stroke-linejoin:miter;stroke-miterlimit:2;stroke-dasharray:none;stroke-opacity:1"
         id="ellipse62"
         cx="-144.5"
         cy="14.791666"
         rx="1.5"
         ry="1.5000001" /></g><g
       id="g63"
       transform="matrix(0.75,0,0,0.75,-95,-78.677083)"
       inkscape:export-filename="24\star.png"
       inkscape:export-xdpi="96"
       inkscape:export-ydpi="96"><rect
         style="opacity:1;fill:#fbce2f;fill-opacity:1;stroke-width:5.90771;stroke-linecap:round;stroke-linejoin:round"
         id="rect62"
         width="24"
         height="24"
         x="-60"
         y="5.2916665"
         rx="8"
         ry="8" /><path
         sodipodi:type="star"
         style="opacity:1;fill:none;fill-opacity:1;stroke:#000000;stroke-width:1.66177121;stroke-linecap:square;stroke-linejoin:round;stroke-miterlimit:2;stroke-dasharray:none;stroke-opacity:1"
         id="path62"
         inkscape:flatsided="false"
         sodipodi:sides="5"
         sodipodi:cx="13.75"
         sodipodi:cy="31.5"
         sodipodi:r1="3.0579813"
         sodipodi:r2="7.6449533"
         sodipodi:arg1="0.95993109"
         sodipodi:arg2="1.5882496"
         inkscape:rounded="0"
         inkscape:randomized="0"
         d="m 15.503986,34.004952 -1.887409,5.138837 -1.706916,-5.201577 -5.4705661,-0.207044 4.4195271,-3.230749 -1.4935872,-5.266798 4.4383342,3.204863 4.547479,-3.048015 -1.676486,5.211464 4.304083,3.38302 z"
         transform="matrix(0.96293016,0,0,-0.96272603,-61.20059,48.282469)"
         inkscape:transform-center-x="-0.039701603"
         inkscape:transform-center-y="0.66495931" /></g><g
       id="g64"
       transform="matrix(0.83333333,0,0,0.83333333,-50,-39.118056)"
       inkscape:export-filename="24\checkmark.png"
       inkscape:export-xdpi="96"
       inkscape:export-ydpi="96"><rect
         style="opacity:1;fill:#fbce2f;fill-opacity:1;stroke-width:5.90771;stroke-linecap:round;stroke-linejoin:round"
         id="rect63"
         width="24"
         height="24"
         x="-60"
         y="5.2916665"
         rx="8"
         ry="8" /><path
         style="opacity:1;fill:none;fill-opacity:1;stroke:#000000;stroke-width:2;stroke-linecap:square;stroke-linejoin:miter;stroke-miterlimit:2;stroke-dasharray:none"
         d="m -53.656807,16.584551 4.242614,4.242615 7.071,-7.071"
         id="path63"
         sodipodi:nodetypes="ccc" /></g><g
       id="g65"
       transform="matrix(0.83333333,0,0,0.83333333,-106.66667,-39.118056)"
       inkscape:export-filename="24\question.png"
       inkscape:export-xdpi="96"
       inkscape:export-ydpi="96"><rect
         style="opacity:1;fill:#fbce2f;fill-opacity:1;stroke-width:5.90771;stroke-linecap:round;stroke-linejoin:round"
         id="rect64"
         width="24"
         height="24"
         x="-40"
         y="5.2916665"
         rx="8"
         ry="8" /><ellipse
         style="fill:#fbce2f;fill-opacity:1;stroke:#fbce2f;stroke-width:1.9824;stroke-linecap:square;stroke-linejoin:miter;stroke-miterlimit:2;stroke-dasharray:none;stroke-opacity:1"
         id="ellipse64"
         cx="-28"
         cy="15.291668"
         rx="4.0088"
         ry="4.0088005" /><path
         style="fill:none;fill-opacity:1;stroke:#000000;stroke-width:1.80000001;stroke-linecap:butt;stroke-linejoin:miter;stroke-miterlimit:2;stroke-dasharray:none"
         id="path64"
         sodipodi:type="arc"
         sodipodi:cx="-28"
         sodipodi:cy="15.291667"
         sodipodi:rx="4"
         sodipodi:ry="4"
         sodipodi:start="3.1415927"
         sodipodi:end="1.5707963"
         sodipodi:open="true"
         sodipodi:arc-type="arc"
         d="m -32,15.291667 a 4,4 0 0 1 4,-4 4,4 0 0 1 4,4 4,4 0 0 1 -4,4" /><path
         style="color:#000000;fill:#000000;stroke:none;stroke-linejoin:round;stroke-miterlimit:2;-inkscape-stroke:none"
         d="m -29,18.291667 v 2 h 1 c 0.58945,-0.371487 0.834072,-1.087803 0.882813,-2 z"
         id="path65"
         sodipodi:nodetypes="ccccc" /><ellipse
         style="fill:#000000;fill-opacity:1;stroke:none;stroke-width:0.424266;stroke-linecap:square;stroke-linejoin:miter;stroke-miterlimit:2;stroke-dasharray:none;stroke-opacity:1"
         id="ellipse65"
         cx="-28"
         cy="22.79167"
         rx="1.5"
         ry="1.5000001" /></g><g
       id="g68"
       transform="translate(160,80)"><g
         id="g69"
         transform="translate(-100,40)"><rect
           style="opacity:1;fill:#fbce2f;fill-opacity:1;stroke-width:5.90771;stroke-linecap:round;stroke-linejoin:round"
           id="rect65"
           width="24"
           height="24"
           x="-160"
           y="5.2916665"
           rx="8"
           ry="8" /><ellipse
           style="opacity:1;fill:#fbce2f;fill-opacity:1;stroke:#fbce2f;stroke-width:1.9824;stroke-linecap:square;stroke-linejoin:miter;stroke-miterlimit:2;stroke-dasharray:none;stroke-opacity:1"
           id="ellipse66"
           cx="-148"
           cy="16.291666"
           rx="7.0088"
           ry="7.0088005" /><path
           style="opacity:1;fill:none;fill-opacity:1;stroke:#000000;stroke-width:1.9824;stroke-linecap:square;stroke-linejoin:miter;stroke-miterlimit:2;stroke-dasharray:none"
           id="path66"
           sodipodi:type="arc"
           sodipodi:cx="-148"
           sodipodi:cy="16.291666"
           sodipodi:rx="7.0088"
           sodipodi:ry="7.0088005"
           sodipodi:start="0.6981317"
           sodipodi:end="2.443461"
           sodipodi:open="true"
           sodipodi:arc-type="arc"
           d="M -142.63095,20.796836 A 7.0088,7.0088005 0 0 1 -148,23.300467 a 7.0088,7.0088005 0 0 1 -5.36905,-2.503631" /><path
           id="rect68"
           style="opacity:1;fill:#000000;fill-opacity:1;stroke-width:4.17738;stroke-linecap:round;stroke-linejoin:round"
           d="m -152,5.2916666 c -4.432,0 -8,3.5680044 -8,8.0000004 v 5 h 24 v -5 c 0,-4.431996 -3.568,-8.0000004 -8,-8.0000004 z"
           sodipodi:nodetypes="ssccsss" /><ellipse
           style="opacity:1;fill:#fbce2f;fill-opacity:1;stroke:none;stroke-width:0.424266;stroke-linecap:square;stroke-linejoin:miter;stroke-miterlimit:2;stroke-dasharray:none;stroke-opacity:1"
           id="ellipse67"
           cx="-151.5"
           cy="14.791666"
           rx="1.5"
           ry="1.5000001" /><ellipse
           style="opacity:1;fill:#fbce2f;fill-opacity:1;stroke:none;stroke-width:0.424266;stroke-linecap:square;stroke-linejoin:miter;stroke-miterlimit:2;stroke-dasharray:none;stroke-opacity:1"
           id="ellipse68"
           cx="-144.5"
           cy="14.791666"
           rx="1.5"
           ry="1.5000001" /></g></g><g
       id="g72"
       transform="translate(-120,120)"
       inkscape:export-filename="24/support.png"
       inkscape:export-xdpi="96"
       inkscape:export-ydpi="96"><rect
         style="opacity:1;fill:#fbce2f;fill-opacity:1;stroke-width:5.90771;stroke-linecap:round;stroke-linejoin:round"
         id="rect71"
         width="24"
         height="24"
         x="-20"
         y="5.2916665"
         rx="8"
         ry="8" /><circle
         style="opacity:1;fill:#000000;fill-opacity:1;stroke:none;stroke-width:1.9824;stroke-linecap:square;stroke-linejoin:miter;stroke-miterlimit:2;stroke-dasharray:none;stroke-opacity:1"
         id="circle71"
         cx="-8"
         cy="17.291666"
         r="8" /><circle
         style="opacity:1;fill:#fbce2f;fill-opacity:1;stroke:none;stroke-width:1.239;stroke-linecap:square;stroke-linejoin:miter;stroke-miterlimit:2;stroke-dasharray:none;stroke-opacity:1"
         id="circle72"
         cx="-8"
         cy="17.291666"
         r="5" /><path
         id="path72"
         style="opacity:1;fill:#fbce2f;fill-opacity:1;stroke:none;stroke-width:0.821912;stroke-linecap:butt;stroke-linejoin:round;stroke-miterlimit:2;stroke-dasharray:none;stroke-opacity:1"
         d="m -15.778175,10.927706 6.363962,6.363961 -6.363962,6.363961 1.414214,1.414214 L -8,18.705881 -1.636039,25.069842 -0.221825,23.655628 -6.585786,17.291667 -0.221825,10.927706 -1.636039,9.5134923 -8,15.877453 -14.363961,9.5134921 Z" /></g><g
       id="g76"
       inkscape:export-filename="24/wm.png"
       inkscape:export-xdpi="96"
       inkscape:export-ydpi="96"><rect
         style="opacity:1;fill:#fbce2f;fill-opacity:1;stroke-width:5.90771;stroke-linecap:round;stroke-linejoin:round"
         id="rect73"
         width="24"
         height="24"
         x="-180"
         y="125.29166"
         rx="8"
         ry="8" /><circle
         style="opacity:1;fill:#fbce2f;fill-opacity:1;stroke:none;stroke-width:0.9912;stroke-linecap:square;stroke-linejoin:miter;stroke-miterlimit:2;stroke-dasharray:none;stroke-opacity:1"
         id="circle73"
         cx="-168"
         cy="137.29166"
         r="4" /><path
         id="path73"
         style="opacity:1;fill:#fbce2f;fill-opacity:1;stroke:none;stroke-width:0.821912;stroke-linecap:butt;stroke-linejoin:round;stroke-miterlimit:2;stroke-dasharray:none;stroke-opacity:1"
         d="m -175.77818,130.92771 6.36397,6.36396 -6.36397,6.36396 1.41422,1.41421 6.36396,-6.36396 6.36396,6.36396 1.41422,-1.41421 -6.36397,-6.36396 6.36397,-6.36396 -1.41422,-1.41422 -6.36396,6.36396 -6.36396,-6.36396 z" /><g
         id="g75"
         transform="matrix(0.30000001,0,0,0.30000001,-174.66095,124.5036)"><path
           inkscape:connector-curvature="0"
           id="path74"
           d="m -7.7968456,45.126905 5.0000001,-5 9.9999997,9.999999 10.0000008,-9.999999 9.999999,9.999999 9.999998,-9.999999 5.000001,5 -14.999999,15 L 17.203155,50.126904 7.2031542,60.126905 Z"
           style="fill:#000000;fill-opacity:1;stroke:none;stroke-width:6;stroke-linecap:round;stroke-linejoin:round;stroke-miterlimit:3.8637;stroke-dasharray:none;stroke-opacity:1" /><path
           style="fill:#000000;fill-opacity:1;stroke:none;stroke-width:6;stroke-linecap:round;stroke-linejoin:round;stroke-miterlimit:3.8637;stroke-dasharray:none;stroke-opacity:1"
           d="m 2.2031549,40.126905 5.0000004,5 9.9999997,-10 9.999999,10 9.999998,-10 10.000002,10 4.999998,-5 -15,-15 -9.999998,10 -10,-10 z"
           id="path75"
           inkscape:connector-curvature="0" /></g></g><g
       id="g2"
       inkscape:export-filename="24/story.png"
       inkscape:export-xdpi="96"
       inkscape:export-ydpi="96"><rect
         style="opacity:1;fill:#fbce2f;fill-opacity:1;stroke-width:5.90771;stroke-linecap:round;stroke-linejoin:round"
         id="rect1"
         width="24"
         height="24"
         x="-220"
         y="125.29166"
         rx="8"
         ry="8" /><path
         id="path2"
         d="m -202.75556,129.29167 -0.8,0.26666 c -0.0889,0 -3.2,0.88889 -4.62222,1.86667 -1.51111,0.97778 -2.13333,1.86667 -2.48889,2.4 -0.53333,0.8 -1.51111,4.17778 -1.51111,5.6 l -0.8,2.04445 c -0.17777,0.35555 0,0.71111 0.35556,0.88888 0.0889,0 0.17778,0.0889 0.26667,0.0889 0.26666,0 0.53333,-0.17777 0.62222,-0.44444 l 0.53333,-1.33333 c 0.26667,0 0.62222,-0.0889 1.06667,-0.17778 0.62222,-0.0889 1.24444,-0.26667 1.95555,-0.44445 0.71111,-0.17777 1.42222,-0.44444 2.13333,-0.71111 0.62223,-0.26666 1.24445,-0.62222 1.68889,-1.06666 0.44445,-0.44445 0.71111,-1.06667 0.88889,-1.68889 0.17778,-0.62223 0.26667,-1.42223 0.35556,-2.13334 0.0889,-0.71111 0.0889,-1.51111 0.17778,-2.22222 0,-0.71111 0.0889,-1.33333 0.17777,-1.86667 z m -1.68888,4.97778 c -0.0889,0.71111 -0.17778,1.33333 -0.26667,1.86666 -0.17778,0.53334 -0.35556,0.88889 -0.53334,1.15556 -0.26666,0.26666 -0.71111,0.53333 -1.24444,0.8 -0.62222,0.26666 -1.24444,0.44444 -1.95556,0.71111 -0.53333,0.17778 -1.15555,0.26667 -1.59999,0.35555 l 4.79999,-4.97777 c 0.26667,-0.26667 0.53334,-0.62223 0.8889,-0.97778 0,0.35555 0,0.71111 -0.0889,1.06667 z m -8.80001,11.02222 h 7.11112 v -1.33334 h -7.11112 z"
         style="stroke-width:0.888889" /></g><g
       id="g5"
       transform="translate(-160,160)"
       inkscape:export-filename="24/cog.png"
       inkscape:export-xdpi="96"
       inkscape:export-ydpi="96"><rect
         style="opacity:1;fill:#fbce2f;fill-opacity:1;stroke-width:5.90771;stroke-linecap:round;stroke-linejoin:round"
         id="rect5"
         width="24"
         height="24"
         x="-60"
         y="5.2916665"
         rx="8"
         ry="8" /><path
         id="path5"
         style="fill:#000000;stroke:none"
         d="m -48.65175,9.2916657 a 1,1 0 0 0 -0.986328,0.8359383 l -0.244141,1.464844 a 5.994,5.994 0 0 0 -2.109375,1.21875 l -1.392578,-0.521485 a 1,1 0 0 0 -1.216797,0.435547 l -0.652343,1.130859 a 1,1 0 0 0 0.230468,1.273438 l 1.146485,0.943359 a 6.026,6.026 0 0 0 0,2.435547 l -1.148438,0.945313 a 1,1 0 0 0 -0.230469,1.271484 l 0.654297,1.130859 a 1,1 0 0 0 1.216797,0.4375 l 1.392578,-0.523437 a 5.995,5.995 0 0 0 2.109375,1.21875 l 0.244141,1.466797 a 1,1 0 0 0 0.986328,0.835937 h 1.304688 a 1,1 0 0 0 0.988281,-0.835937 l 0.242187,-1.466797 c 0.788,-0.26 1.504376,-0.678751 2.109375,-1.21875 l 1.392579,0.523437 a 1,1 0 0 0 1.216796,-0.4375 L -40.7455,20.72526 a 1,1 0 0 0 -0.228516,-1.271484 l -1.15039,-0.945313 a 6.025,6.025 0 0 0 0,-2.435547 l 1.148437,-0.943359 a 1,1 0 0 0 0.230469,-1.273438 l -0.652344,-1.130859 a 1,1 0 0 0 -1.216796,-0.435547 l -1.392579,0.521485 c -0.604999,-0.539 -1.322375,-0.958751 -2.109375,-1.21875 l -0.242187,-1.464844 a 1,1 0 0 0 -0.988281,-0.8359383 z m 0.652344,5.0000003 a 3,3 0 0 1 3,3 3,3 0 0 1 -6,0 3,3 0 0 1 3,-3 z" /></g><g
       id="g8"
       transform="translate(-180,160)"
       inkscape:export-filename="24/list.png"
       inkscape:export-xdpi="96"
       inkscape:export-ydpi="96"><rect
         style="opacity:1;fill:#fbce2f;fill-opacity:1;stroke-width:5.90771;stroke-linecap:round;stroke-linejoin:round"
         id="rect6"
         width="24"
         height="24"
         x="0"
         y="5.2916665"
         rx="8"
         ry="8" /><path
         id="path8"
         d="M 11.2125,21.054167 H 19 v -1.3125 h -7.7875 z m 0,-7.525 v 1.3125 H 19 v -1.3125 z m -4.4625,5.075 c -0.9625,0 -1.75,0.7875 -1.75,1.75 0,0.9625 0.7875,1.75 1.75,1.75 0.9625,0 1.75,-0.7875 1.75,-1.75 0,-0.9625 -0.7875,-1.75 -1.75,-1.75 z m 0,-6.125 c -0.9625,0 -1.75,0.7875 -1.75,1.75 0,0.9625 0.7875,1.75 1.75,1.75 0.9625,0 1.75,-0.7875 1.75,-1.75 0,-0.9625 -0.7875,-1.75 -1.75,-1.75 z"
         style="stroke-width:0.875" /></g><g
       id="g3"
       transform="translate(-140,160)"><rect
         style="opacity:1;fill:#fbce2f;fill-opacity:1;stroke-width:5.90771;stroke-linecap:round;stroke-linejoin:round"
         id="rect2"
         width="24"
         height="24"
         x="0"
         y="5.2916665"
         rx="8"
         ry="8" /><path
         id="path3"
         d="m 12,10.663095 a 6.6285715,6.6285715 0 1 0 0,13.257143 6.6285715,6.6285715 0 0 0 0,-13.257143 z m -8,6.628572 a 8,8 0 1 1 16,0 8,8 0 0 1 -16,0 z m 8,-2.971429 a 1.3714286,1.3714286 0 0 1 0.152686,2.733715 c -0.425143,0.04754 -0.8384,0.402285 -0.8384,0.923428 v 1.142857 h 1.371428 v -0.772571 a 2.7428571,2.7428571 0 1 0 -3.4285711,-2.656 H 10.628571 A 1.3714286,1.3714286 0 0 1 12,14.320238 Z m -0.685714,5.714286 v 1.371429 h 1.371428 v -1.371429 z"
         style="stroke-width:0.914286" /></g><g
       id="g4"
       transform="matrix(0.83333333,0,0,0.83333333,-180,-39.118056)"
       inkscape:export-filename="20/question-circle.png"
       inkscape:export-xdpi="96"
       inkscape:export-ydpi="96"><rect
         style="opacity:1;fill:#fbce2f;fill-opacity:1;stroke-width:5.90771;stroke-linecap:round;stroke-linejoin:round"
         id="rect3"
         width="24"
         height="24"
         x="0"
         y="5.2916665"
         rx="8"
         ry="8" /><path
         id="path4"
         d="m 12,10.663095 a 6.6285715,6.6285715 0 1 0 0,13.257143 6.6285715,6.6285715 0 0 0 0,-13.257143 z m -8,6.628572 a 8,8 0 1 1 16,0 8,8 0 0 1 -16,0 z m 8,-2.971429 a 1.3714286,1.3714286 0 0 1 0.152686,2.733715 c -0.425143,0.04754 -0.8384,0.402285 -0.8384,0.923428 v 1.142857 h 1.371428 v -0.772571 a 2.7428571,2.7428571 0 1 0 -3.4285711,-2.656 H 10.628571 A 1.3714286,1.3714286 0 0 1 12,14.320238 Z m -0.685714,5.714286 v 1.371429 h 1.371428 v -1.371429 z"
         style="stroke-width:0.914286" /></g><g
       id="g15"
       transform="translate(-60,120)"
       inkscape:export-filename="24/lifesaver.png"
       inkscape:export-xdpi="96"
       inkscape:export-ydpi="96"><rect
         style="opacity:1;fill:#fbce2f;fill-opacity:1;stroke-width:5.90771;stroke-linecap:round;stroke-linejoin:round"
         id="rect14"
         width="24"
         height="24"
         x="-40"
         y="45.291664"
         rx="8"
         ry="8" /><path
         id="path15"
         d="m -28,48.291667 a 9.0000002,9.0000002 0 0 0 0,18 9.0000002,9.0000002 0 0 0 0,-18 z m 0,1.6875 a 7.2787498,7.2787498 0 0 1 4.056152,1.226073 l -0.911865,1.419434 C -25.753461,52.0183 -26.835628,51.666667 -28,51.666667 a 5.5991248,5.5991248 0 0 0 -3.144287,0.958007 L -32.05835,51.207437 A 7.2787498,7.2787498 0 0 1 -28,49.979167 Z m 0,3.375 a 3.9375,3.9375 0 0 1 0,7.875 3.9375,3.9375 0 0 1 0,-7.875 z m 6.251221,0.140625 a 7.2787498,7.2787498 0 0 1 1.061279,3.796875 7.2787498,7.2787498 0 0 1 -1.265625,4.113281 l -1.419434,-0.914063 A 5.5991248,5.5991248 0 0 0 -22.375,57.291667 c 0,-1.052998 -0.289215,-2.04019 -0.793213,-2.882813 z m -12.502441,0.0023 1.417236,0.911865 a 5.5991248,5.5991248 0 0 0 -0.791016,2.88276 c 0,1.187997 0.368685,2.289149 0.997559,3.197021 l -1.419434,0.91626 h -0.0022 A 7.2787498,7.2787498 0 0 1 -35.3125,57.291667 c 0,-1.389373 0.387406,-2.688805 1.061279,-3.794678 z m 3.311278,8.591309 c 0.856123,0.524144 1.862194,0.828266 2.939942,0.828266 a 5.5979998,5.5979998 0 0 0 2.937744,-0.828369 l 0.914062,1.419433 A 7.2787498,7.2787498 0 0 1 -28,64.604167 7.2787498,7.2787498 0 0 1 -31.854004,63.505533 Z"
         style="stroke-width:1.125" /></g><g
       id="g18"
       transform="translate(-100,200)"
       inkscape:export-filename="24/list-box.png"
       inkscape:export-xdpi="96"
       inkscape:export-ydpi="96"><rect
         style="opacity:1;fill:#fbce2f;fill-opacity:1;stroke-width:5.90771;stroke-linecap:round;stroke-linejoin:round"
         id="rect17"
         width="24"
         height="24"
         x="0"
         y="5.2916665"
         rx="8"
         ry="8" /><path
         id="path17"
         d="M 18,9.2916666 H 6 c -1.1,0 -2,0.9000004 -2,2.0000004 v 12 c 0,1.1 0.9,2 2,2 h 12 c 1.1,0 2,-0.9 2,-2 v -12 c 0,-1.1 -0.9,-2.0000004 -2,-2.0000004 z m 0.5,14.0000004 c 0,0.3 -0.2,0.5 -0.5,0.5 H 6 c -0.3,0 -0.5,-0.2 -0.5,-0.5 v -12 c 0,-0.3 0.2,-0.5 0.5,-0.5 h 12 c 0.3,0 0.5,0.2 0.5,0.5 z m -11.5,-7 h 2 v -2 H 7 Z m 0,4 h 2 v -2 H 7 Z m 3,-4 h 7 v -2 h -7 z m 0,4 h 7 v -2 h -7 z" /></g><g
       id="g21"
       transform="translate(-140,160)"
       inkscape:export-filename="24/updates.png"
       inkscape:export-xdpi="96"
       inkscape:export-ydpi="96"><rect
         style="opacity:1;fill:#fbce2f;fill-opacity:1;stroke-width:5.90771;stroke-linecap:round;stroke-linejoin:round"
         id="rect20"
         width="24"
         height="24"
         x="0"
         y="45.291664"
         rx="8"
         ry="8" /><path
         id="path21"
         d="m 15.05,50.991667 -3,-2.500001 v 1.700001 c -4.4,0 -8,3.6 -8,8 0,3.7 2.5,6.9 6,7.7 0.3,0.1 0.6,0.1 1,0.2 l 0.2,-1.5 c -0.4,0 -0.7,-0.1 -1.1,-0.2 l -0.1,0.2 v -0.2 c -2.6,-0.8 -4.5,-3.3 -4.5,-6.2 0,-3.6 2.9,-6.5 6.5,-6.5 v 1.8 z m 4.9,6.2 c -0.2,-1.4 -0.7,-2.7 -1.6,-3.8 l -1.2,0.8 c 0.7,0.9 1.1,2 1.3,3.1 z m -1.5,1.8 c -0.1,0.5 -0.2,1.1 -0.4,1.6 -0.2,0.5 -0.5,1 -0.8,1.5 l 1.2,0.9 c 0.4,-0.5 0.8,-1.1 1,-1.8 0.2,-0.7 0.5,-1.3 0.5,-2 z m -5.6,5.6 0.2,1.5 c 1.4,-0.2 2.7,-0.7 3.8,-1.6 l -0.9,-1.1 c -0.9,0.7 -2,1.1 -3.1,1.2 z" /></g><g
       id="g23"
       transform="translate(-180,140)"
       inkscape:export-filename="24/settings.png"
       inkscape:export-xdpi="96"
       inkscape:export-ydpi="96"><rect
         style="opacity:1;fill:#fbce2f;fill-opacity:1;stroke-width:5.90771;stroke-linecap:round;stroke-linejoin:round"
         id="rect22"
         width="24"
         height="24"
         x="0"
         y="65.291664"
         rx="8"
         ry="8" /><path
         id="path23"
         d="m 14.1875,78.866664 c -0.9625,0 -1.8375,0.6125 -2.1,1.575 H 5 v 1.225 h 7.0875 c 0.2625,0.875 1.1375,1.575 2.1,1.575 0.9625,0 1.8375,-0.6125 2.1,-1.575 H 19 v -1.3125 h -2.7125 c -0.2625,-0.875 -1.1375,-1.4875 -2.1,-1.4875 z m -2.275,-5.95 c -0.2625,-0.875 -1.1375,-1.575 -2.1,-1.575 -0.9625,0 -1.8375,0.7 -2.1,1.575 H 5 v 1.3125 h 2.7125 c 0.2625,0.875 1.1375,1.575 2.1,1.575 0.9625,0 1.8375,-0.6125 2.1,-1.575 H 19 v -1.3125 z"
         style="stroke-width:0.875" /></g><g
       id="g25"><rect
         style="opacity:1;fill:#fbce2f;fill-opacity:1;stroke-width:5.90771;stroke-linecap:round;stroke-linejoin:round"
         id="rect24"
         width="24"
         height="24"
         x="-220"
         y="205.29166"
         rx="8"
         ry="8" /><path
         id="path25"
         d="m -210.293,214.578 a 0.25,0.25 0 0 1 -0.188,0.137 l -4.626,0.672 a 0.25,0.25 0 0 0 -0.139,0.427 l 3.348,3.262 a 0.25,0.25 0 0 1 0.072,0.222 l -0.79,4.607 a 0.25,0.25 0 0 0 0.362,0.264 l 4.138,-2.176 a 0.25,0.25 0 0 1 0.233,0 l 4.137,2.175 a 0.25,0.25 0 0 0 0.363,-0.263 l -0.79,-4.607 a 0.25,0.25 0 0 1 0.072,-0.222 l 3.347,-3.262 a 0.25,0.25 0 0 0 -0.139,-0.427 l -4.626,-0.672 a 0.25,0.25 0 0 1 -0.188,-0.137 l -2.069,-4.192 a 0.25,0.25 0 0 0 -0.448,0 z m 2.294,-1.256 -0.948,1.921 a 1.75,1.75 0 0 1 -1.317,0.957 l -2.12,0.308 1.534,1.495 c 0.412,0.402 0.6,0.982 0.503,1.55 l -0.362,2.11 1.896,-0.997 a 1.75,1.75 0 0 1 1.629,0 l 1.895,0.997 -0.362,-2.11 a 1.75,1.75 0 0 1 0.504,-1.55 l 1.533,-1.495 -2.12,-0.308 a 1.75,1.75 0 0 1 -1.317,-0.957 z" /></g><g
       id="g26"
       transform="matrix(0.75,0,0,0.75,-15,-228.67709)"
       inkscape:export-filename="18/star-full.png"
       inkscape:export-xdpi="96"
       inkscape:export-ydpi="96"><rect
         style="opacity:1;fill:#fbce2f;fill-opacity:1;stroke-width:5.90771;stroke-linecap:round;stroke-linejoin:round"
         id="rect25"
         width="24"
         height="24"
         x="-220"
         y="205.29166"
         rx="8"
         ry="8" /><path
         id="path26"
         d="m -210.293,214.578 a 0.25,0.25 0 0 1 -0.188,0.137 l -4.626,0.672 a 0.25,0.25 0 0 0 -0.139,0.427 l 3.348,3.262 a 0.25,0.25 0 0 1 0.072,0.222 l -0.79,4.607 a 0.25,0.25 0 0 0 0.362,0.264 l 4.138,-2.176 a 0.25,0.25 0 0 1 0.233,0 l 4.137,2.175 a 0.25,0.25 0 0 0 0.363,-0.263 l -0.79,-4.607 a 0.25,0.25 0 0 1 0.072,-0.222 l 3.347,-3.262 a 0.25,0.25 0 0 0 -0.139,-0.427 l -4.626,-0.672 a 0.25,0.25 0 0 1 -0.188,-0.137 l -2.069,-4.192 a 0.25,0.25 0 0 0 -0.448,0 z m 2.294,-1.256 -0.948,1.921 a 1.75,1.75 0 0 1 -1.317,0.957 l -2.12,0.308 1.534,1.495 c 0.412,0.402 0.6,0.982 0.503,1.55 l -0.362,2.11 1.896,-0.997 a 1.75,1.75 0 0 1 1.629,0 l 1.895,0.997 -0.362,-2.11 a 1.75,1.75 0 0 1 0.504,-1.55 l 1.533,-1.495 -2.12,-0.308 a 1.75,1.75 0 0 1 -1.317,-0.957 z" /></g><g
       id="g27"
       transform="translate(-40)"><rect
         style="opacity:1;fill:#fbce2f;fill-opacity:1;stroke-width:5.90771;stroke-linecap:round;stroke-linejoin:round"
         id="rect26"
         width="24"
         height="24"
         x="-220"
         y="205.29166"
         rx="8"
         ry="8" /><path
         id="path27"
         d="M -208 210.24674 A 0.25 0.25 0 0 0 -208.22461 210.38542 L -210.29297 214.57878 A 0.25 0.25 0 0 1 -210.48047 214.71549 L -215.10742 215.38737 A 0.25 0.25 0 0 0 -215.24609 215.81315 L -211.89844 219.07682 A 0.25 0.25 0 0 1 -211.82617 219.29753 L -212.61523 223.90495 A 0.25 0.25 0 0 0 -212.25391 224.16862 L -208.11523 221.99284 A 0.25 0.25 0 0 1 -207.88281 221.99284 L -203.74609 224.16862 A 0.25 0.25 0 0 0 -203.38281 223.90495 L -204.17383 219.29753 A 0.25 0.25 0 0 1 -204.10156 219.07682 L -200.75391 215.81315 A 0.25 0.25 0 0 0 -200.89258 215.38737 L -205.51953 214.71549 A 0.25 0.25 0 0 1 -205.70703 214.57878 L -207.77539 210.38542 A 0.25 0.25 0 0 0 -208 210.24674 z M -207.99805 213.32292 L -207.05078 215.24284 A 1.75 1.75 0 0 0 -205.73438 216.19987 L -203.61328 216.50846 L -205.14648 218.0026 A 1.75 1.75 0 0 0 -205.65039 219.55339 L -205.28906 221.66276 L -207.18359 220.66667 A 1.75 1.75 0 0 0 -208.8125 220.66667 L -210.70898 221.66276 L -210.34766 219.55339 C -210.25066 218.98539 -210.43761 218.4046 -210.84961 218.0026 L -212.38477 216.50846 L -210.26367 216.19987 A 1.75 1.75 0 0 0 -208.94727 215.24284 L -207.99805 213.32292 z " /></g><g
       id="g28"
       transform="matrix(0.75,0,0,0.75,-55,-228.67709)"
       inkscape:export-filename="18/star.png"
       inkscape:export-xdpi="96"
       inkscape:export-ydpi="96"><rect
         style="opacity:1;fill:#fbce2f;fill-opacity:1;stroke-width:5.90771;stroke-linecap:round;stroke-linejoin:round"
         id="rect28"
         width="24"
         height="24"
         x="-220"
         y="205.29166"
         rx="8"
         ry="8" /><path
         id="path28"
         d="m -208,210.24674 a 0.25,0.25 0 0 0 -0.22461,0.13868 l -2.06836,4.19336 a 0.25,0.25 0 0 1 -0.1875,0.13671 l -4.62695,0.67188 a 0.25,0.25 0 0 0 -0.13867,0.42578 l 3.34765,3.26367 a 0.25,0.25 0 0 1 0.0723,0.22071 l -0.78906,4.60742 a 0.25,0.25 0 0 0 0.36132,0.26367 l 4.13868,-2.17578 a 0.25,0.25 0 0 1 0.23242,0 l 4.13672,2.17578 a 0.25,0.25 0 0 0 0.36328,-0.26367 l -0.79102,-4.60742 a 0.25,0.25 0 0 1 0.0723,-0.22071 l 3.34765,-3.26367 a 0.25,0.25 0 0 0 -0.13867,-0.42578 l -4.62695,-0.67188 a 0.25,0.25 0 0 1 -0.1875,-0.13671 l -2.06836,-4.19336 A 0.25,0.25 0 0 0 -208,210.24674 Z m 0.002,3.07618 0.94727,1.91992 a 1.75,1.75 0 0 0 1.3164,0.95703 l 2.1211,0.30859 -1.5332,1.49414 a 1.75,1.75 0 0 0 -0.50391,1.55079 l 0.36133,2.10937 -1.89453,-0.99609 a 1.75,1.75 0 0 0 -1.62891,0 l -1.89648,0.99609 0.36132,-2.10937 c 0.097,-0.568 -0.09,-1.14879 -0.50195,-1.55079 l -1.53516,-1.49414 2.1211,-0.30859 a 1.75,1.75 0 0 0 1.3164,-0.95703 z" /></g><g
       id="g30"
       inkscape:export-filename="24/updates.png"
       inkscape:export-xdpi="96"
       inkscape:export-ydpi="96"><rect
         style="opacity:1;fill:#fbce2f;fill-opacity:1;stroke-width:5.90771;stroke-linecap:round;stroke-linejoin:round"
         id="rect29"
         width="24"
         height="24"
         x="-100"
         y="245.29166"
         rx="8"
         ry="8" /><path
         id="path30"
         d="m -89.006261,261.90368 -4.773848,-4.77385 c -0.09548,-0.0955 -0.09548,-0.28643 0,-0.38191 l 2.19597,-2.19597 -1.050247,-0.95477 -2.19597,2.19597 c -0.668339,0.66834 -0.668339,1.71859 0,2.38692 l 4.773849,4.77385 h -2.577879 v 1.43216 h 5.06028 v -4.96481 h -1.432155 z m 7.160773,-6.11053 -4.773848,-4.77385 h 2.577878 v -1.52763 h -4.964803 v 4.9648 h 1.432155 v -2.4824 l 4.773848,4.77385 c 0.09548,0.0955 0.09548,0.28643 0,0.38191 l -2.19597,2.19597 1.050247,1.05024 2.19597,-2.19597 c 0.572862,-0.66833 0.572862,-1.81406 -0.09548,-2.38692 z"
         style="stroke-width:0.95477" /></g><g
       id="g32"
       transform="translate(-140,180)"
       inkscape:export-filename="24/bulb.png"
       inkscape:export-xdpi="96"
       inkscape:export-ydpi="96"><rect
         style="opacity:1;fill:#fbce2f;fill-opacity:1;stroke-width:5.90771;stroke-linecap:round;stroke-linejoin:round"
         id="rect31"
         width="24"
         height="24"
         x="0"
         y="65.291664"
         rx="8"
         ry="8" /><path
         id="path32"
         d="m 12,80.281566 c -2.989899,0 -5.4949495,-2.424242 -5.4949495,-5.49495 0,-3.070707 2.4242424,-5.494949 5.4949495,-5.494949 2.989898,0 5.494949,2.424242 5.494949,5.494949 0,3.070708 -2.50505,5.49495 -5.494949,5.49495 z m 0,-9.69697 c -2.3434343,0 -4.2020202,1.858586 -4.2020202,4.20202 0,2.343435 1.9393939,4.202021 4.2020202,4.202021 2.343434,0 4.20202,-1.939395 4.20202,-4.202021 0,-2.262626 -1.858586,-4.20202 -4.20202,-4.20202 z M 8.7676768,81.655303 h 6.4646472 v 1.212122 H 8.7676768 Z m 1.6161612,2.424243 h 3.232324 v 1.212121 h -3.232324 z"
         style="stroke-width:0.808081" /></g><g
       id="g36"
       transform="matrix(0.83333333,0,0,0.83333333,-220,-89.118056)"
       inkscape:export-filename="20/bulb.png"
       inkscape:export-xdpi="96"
       inkscape:export-ydpi="96"><rect
         style="opacity:1;fill:#fbce2f;fill-opacity:1;stroke-width:5.90771;stroke-linecap:round;stroke-linejoin:round"
         id="rect32"
         width="24"
         height="24"
         x="0"
         y="65.291664"
         rx="8"
         ry="8" /><path
         id="path36"
         d="m 12,80.281566 c -2.989899,0 -5.4949495,-2.424242 -5.4949495,-5.49495 0,-3.070707 2.4242424,-5.494949 5.4949495,-5.494949 2.989898,0 5.494949,2.424242 5.494949,5.494949 0,3.070708 -2.50505,5.49495 -5.494949,5.49495 z m 0,-9.69697 c -2.3434343,0 -4.2020202,1.858586 -4.2020202,4.20202 0,2.343435 1.9393939,4.202021 4.2020202,4.202021 2.343434,0 4.20202,-1.939395 4.20202,-4.202021 0,-2.262626 -1.858586,-4.20202 -4.20202,-4.20202 z M 8.7676768,81.655303 h 6.4646472 v 1.212122 H 8.7676768 Z m 1.6161612,2.424243 h 3.232324 v 1.212121 h -3.232324 z"
         style="stroke-width:0.808081" /></g><g
       id="g37"
       transform="matrix(0.75,0,0,0.75,-260,-123.67708)"
       inkscape:export-filename="18/bulb.png"
       inkscape:export-xdpi="96"
       inkscape:export-ydpi="96"><rect
         style="opacity:1;fill:#fbce2f;fill-opacity:1;stroke-width:5.90771;stroke-linecap:round;stroke-linejoin:round"
         id="rect36"
         width="24"
         height="24"
         x="0"
         y="65.291664"
         rx="8"
         ry="8" /><path
         id="path37"
         d="m 12,80.281566 c -2.989899,0 -5.4949495,-2.424242 -5.4949495,-5.49495 0,-3.070707 2.4242424,-5.494949 5.4949495,-5.494949 2.989898,0 5.494949,2.424242 5.494949,5.494949 0,3.070708 -2.50505,5.49495 -5.494949,5.49495 z m 0,-9.69697 c -2.3434343,0 -4.2020202,1.858586 -4.2020202,4.20202 0,2.343435 1.9393939,4.202021 4.2020202,4.202021 2.343434,0 4.20202,-1.939395 4.20202,-4.202021 0,-2.262626 -1.858586,-4.20202 -4.20202,-4.20202 z M 8.7676768,81.655303 h 6.4646472 v 1.212122 H 8.7676768 Z m 1.6161612,2.424243 h 3.232324 v 1.212121 h -3.232324 z"
         style="stroke-width:0.808081" /></g><g
       id="g39"
       transform="translate(-180,240)"><rect
         style="opacity:1;fill:#fbce2f;fill-opacity:1;stroke-width:5.90771;stroke-linecap:round;stroke-linejoin:round"
         id="rect38"
         width="24"
         height="24"
         x="0"
         y="5.2916665"
         rx="8"
         ry="8" /><path
         id="path39"
         d="M 17,9.2916665 H 7 c -1.1,0 -2,0.9000005 -2,2.0000005 v 12 c 0,1.1 0.9,2 2,2 h 10 c 1.1,0 2,-0.9 2,-2 v -12 c 0,-1.1 -0.9,-2.0000005 -2,-2.0000005 z m 0.5,14.0000005 c 0,0.3 -0.2,0.5 -0.5,0.5 H 7 c -0.3,0 -0.5,-0.2 -0.5,-0.5 v -12 c 0,-0.3 0.2,-0.5 0.5,-0.5 h 10 c 0.3,0 0.5,0.2 0.5,0.5 z m -7.5,-0.5 h 4 v -1.5 h -4 z" /></g><g
       id="g48"
       inkscape:export-filename="24/shop.png"
       inkscape:export-xdpi="96"
       inkscape:export-ydpi="96"><rect
         style="opacity:1;fill:#fbce2f;fill-opacity:1;stroke-width:5.90771;stroke-linecap:round;stroke-linejoin:round"
         id="rect48"
         width="24"
         height="24"
         x="-220"
         y="245.29166"
         rx="8"
         ry="8" /><path
         id="path48"
         d="m -215,250.29167 -1,4.14757 v 2.07465 h 1.11111 v 7.77778 h 13.77778 v -7.77778 H -200 v -2.07465 l -1,-4.14757 z m 1.05035,1.33333 h 2.09722 l -0.4132,2.75521 -0.0295,0.80034 h -2.37152 v -0.58333 z m 3.44618,0 h 1.8368 v 3.55555 h -2.2934 l 0.0243,-0.67534 z m 3.17014,0 h 1.8368 l 0.43229,2.88021 0.0243,0.67534 h -2.2934 z m 3.18576,0 h 2.09722 l 0.71702,2.97222 v 0.58333 h -2.37153 l -0.0295,-0.80034 z m -9.40799,4.88889 h 11.11112 v 6.44444 h -3.77778 v -4.66666 h -3.55556 v 4.66666 h -3.77778 z"
         style="stroke-width:0.888889" /></g><g
       id="g53"
       transform="translate(-100,240)"
       inkscape:export-filename="24/plus.png"
       inkscape:export-xdpi="96"
       inkscape:export-ydpi="96"><rect
         style="opacity:1;fill:#fbce2f;fill-opacity:1;stroke-width:5.90771;stroke-linecap:round;stroke-linejoin:round"
         id="rect49"
         width="24"
         height="24"
         x="0"
         y="45.291664"
         rx="8"
         ry="8" /><path
         id="path53"
         d="m 12,49.291667 c -4.4444444,0 -8,3.555555 -8,8 0,4.444444 3.5555556,8 8,8 4.444444,0 8,-3.555556 8,-8 0,-4.444445 -3.555556,-8 -8,-8 z m 0,14.222222 c -3.4666667,0 -6.2222222,-2.755555 -6.2222222,-6.222222 0,-3.466667 2.7555555,-6.222223 6.2222222,-6.222223 3.466667,0 6.222222,2.755556 6.222222,6.222223 0,3.466667 -2.755555,6.222222 -6.222222,6.222222 z m 0.888889,-9.777778 h -1.777778 v 2.666667 H 8.4444444 v 1.777777 h 2.6666666 v 2.666668 h 1.777778 v -2.666668 h 2.666667 V 56.402778 H 12.888889 Z M 12,49.291667 c -4.4444444,0 -8,3.555555 -8,8 0,4.444444 3.5555556,8 8,8 4.444444,0 8,-3.555556 8,-8 0,-4.444445 -3.555556,-8 -8,-8 z m 0,14.222222 c -3.4666667,0 -6.2222222,-2.755555 -6.2222222,-6.222222 0,-3.466667 2.7555555,-6.222223 6.2222222,-6.222223 3.466667,0 6.222222,2.755556 6.222222,6.222223 0,3.466667 -2.755555,6.222222 -6.222222,6.222222 z m 0.888889,-9.777778 h -1.777778 v 2.666667 H 8.4444444 v 1.777777 h 2.6666666 v 2.666668 h 1.777778 v -2.666668 h 2.666667 v -1.777777 h -2.666667 z"
         style="stroke-width:0.888889" /></g><g
       id="g56"
       transform="matrix(0.83333333,0,0,0.83333333,-260,-72.451389)"
       inkscape:export-filename="20/plus.png"
       inkscape:export-xdpi="96"
       inkscape:export-ydpi="96"><rect
         style="opacity:1;fill:#fbce2f;fill-opacity:1;stroke-width:5.90771;stroke-linecap:round;stroke-linejoin:round"
         id="rect55"
         width="24"
         height="24"
         x="0"
         y="45.291664"
         rx="8"
         ry="8" /><path
         id="path56"
         d="m 12,49.291667 c -4.4444444,0 -8,3.555555 -8,8 0,4.444444 3.5555556,8 8,8 4.444444,0 8,-3.555556 8,-8 0,-4.444445 -3.555556,-8 -8,-8 z m 0,14.222222 c -3.4666667,0 -6.2222222,-2.755555 -6.2222222,-6.222222 0,-3.466667 2.7555555,-6.222223 6.2222222,-6.222223 3.466667,0 6.222222,2.755556 6.222222,6.222223 0,3.466667 -2.755555,6.222222 -6.222222,6.222222 z m 0.888889,-9.777778 h -1.777778 v 2.666667 H 8.4444444 v 1.777777 h 2.6666666 v 2.666668 h 1.777778 v -2.666668 h 2.666667 V 56.402778 H 12.888889 Z M 12,49.291667 c -4.4444444,0 -8,3.555555 -8,8 0,4.444444 3.5555556,8 8,8 4.444444,0 8,-3.555556 8,-8 0,-4.444445 -3.555556,-8 -8,-8 z m 0,14.222222 c -3.4666667,0 -6.2222222,-2.755555 -6.2222222,-6.222222 0,-3.466667 2.7555555,-6.222223 6.2222222,-6.222223 3.466667,0 6.222222,2.755556 6.222222,6.222223 0,3.466667 -2.755555,6.222222 -6.222222,6.222222 z m 0.888889,-9.777778 h -1.777778 v 2.666667 H 8.4444444 v 1.777777 h 2.6666666 v 2.666668 h 1.777778 v -2.666668 h 2.666667 v -1.777777 h -2.666667 z"
         style="stroke-width:0.888889" /></g><g
       id="g58"
       transform="matrix(0.75,0,0,0.75,-300,-108.67708)"
       inkscape:export-filename="18/plus.png"
       inkscape:export-xdpi="96"
       inkscape:export-ydpi="96"><rect
         style="opacity:1;fill:#fbce2f;fill-opacity:1;stroke-width:5.90771;stroke-linecap:round;stroke-linejoin:round"
         id="rect57"
         width="24"
         height="24"
         x="0"
         y="45.291664"
         rx="8"
         ry="8" /><path
         id="path58"
         d="m 12,49.291667 c -4.4444444,0 -8,3.555555 -8,8 0,4.444444 3.5555556,8 8,8 4.444444,0 8,-3.555556 8,-8 0,-4.444445 -3.555556,-8 -8,-8 z m 0,14.222222 c -3.4666667,0 -6.2222222,-2.755555 -6.2222222,-6.222222 0,-3.466667 2.7555555,-6.222223 6.2222222,-6.222223 3.466667,0 6.222222,2.755556 6.222222,6.222223 0,3.466667 -2.755555,6.222222 -6.222222,6.222222 z m 0.888889,-9.777778 h -1.777778 v 2.666667 H 8.4444444 v 1.777777 h 2.6666666 v 2.666668 h 1.777778 v -2.666668 h 2.666667 V 56.402778 H 12.888889 Z M 12,49.291667 c -4.4444444,0 -8,3.555555 -8,8 0,4.444444 3.5555556,8 8,8 4.444444,0 8,-3.555556 8,-8 0,-4.444445 -3.555556,-8 -8,-8 z m 0,14.222222 c -3.4666667,0 -6.2222222,-2.755555 -6.2222222,-6.222222 0,-3.466667 2.7555555,-6.222223 6.2222222,-6.222223 3.466667,0 6.222222,2.755556 6.222222,6.222223 0,3.466667 -2.755555,6.222222 -6.222222,6.222222 z m 0.888889,-9.777778 h -1.777778 v 2.666667 H 8.4444444 v 1.777777 h 2.6666666 v 2.666668 h 1.777778 v -2.666668 h 2.666667 v -1.777777 h -2.666667 z"
         style="stroke-width:0.888889" /></g><g
       id="g70"
       transform="translate(-140,280)"
       inkscape:export-filename="24/percent.png"
       inkscape:export-xdpi="96"
       inkscape:export-ydpi="96"><rect
         style="opacity:1;fill:#fbce2f;fill-opacity:1;stroke-width:5.90771;stroke-linecap:round;stroke-linejoin:round"
         id="rect69"
         width="24"
         height="24"
         x="0"
         y="5.2916665"
         rx="8"
         ry="8" /><path
         id="path70"
         d="m 8,10.291667 a 3,3 0 0 0 0,6 3,3 0 0 0 0,-6 z m 10.03125,0.234375 a 0.75,0.75 0 0 0 -0.621094,0.234375 L 5.4707031,22.701823 a 0.75,0.75 0 0 0 1.0585938,1.058594 L 18.470703,11.820964 A 0.75,0.75 0 0 0 18.03125,10.526042 Z m -9.9980469,1.265625 a 1.5,1.5 0 0 1 1.4667969,1.5 1.5,1.5 0 0 1 -3,0 1.5,1.5 0 0 1 1.3886719,-1.496094 1.5,1.5 0 0 1 0.1445312,-0.0039 z M 16,18.291667 a 3,3 0 0 0 0,6 3,3 0 0 0 0,-6 z m 0.0332,1.5 a 1.5,1.5 0 0 1 1.466797,1.5 1.5,1.5 0 0 1 -3,0 1.5,1.5 0 0 1 1.388672,-1.496094 1.5,1.5 0 0 1 0.144531,-0.0039 z" /></g><g
       id="g77"
       transform="translate(-180,280)"
       inkscape:export-filename="24/mobile.png"
       inkscape:export-xdpi="96"
       inkscape:export-ydpi="96"><rect
         style="opacity:1;fill:#fbce2f;fill-opacity:1;stroke-width:5.90771;stroke-linecap:round;stroke-linejoin:round"
         id="rect72"
         width="24"
         height="24"
         x="0"
         y="5.2916665"
         rx="8"
         ry="8" /><path
         id="path76"
         d="M 15,9.2916666 H 9 c -1.1,0 -2,0.9000004 -2,2.0000004 v 12 c 0,1.1 0.9,2 2,2 h 6 c 1.1,0 2,-0.9 2,-2 v -12 c 0,-1.1 -0.9,-2.0000004 -2,-2.0000004 z m 0.5,14.0000004 c 0,0.3 -0.2,0.5 -0.5,0.5 H 9 c -0.3,0 -0.5,-0.2 -0.5,-0.5 v -12 c 0,-0.3 0.2,-0.5 0.5,-0.5 h 6 c 0.3,0 0.5,0.2 0.5,0.5 z m -4.5,-0.5 h 2 v -1.5 h -2 z" /></g><g
       id="g78"
       transform="translate(-220,280)"
       inkscape:export-filename="24/info.png"
       inkscape:export-xdpi="96"
       inkscape:export-ydpi="96"><rect
         style="opacity:1;fill:#fbce2f;fill-opacity:1;stroke-width:5.90771;stroke-linecap:round;stroke-linejoin:round"
         id="rect77"
         width="24"
         height="24"
         x="0"
         y="5.2916665"
         rx="8"
         ry="8" /><path
         id="path78"
         d="m 12,9.2916666 c -4.3636364,0 -8,3.5454544 -8,8.0000004 0,4.363636 3.5454545,8 8,8 4.363636,0 8,-3.545455 8,-8 0,-4.363637 -3.636364,-8.0000004 -8,-8.0000004 z m 0,14.5454554 c -3.6363636,0 -6.5454545,-3 -6.5454545,-6.545455 0,-3.636364 2.9090909,-6.545455 6.5454545,-6.545455 3.636364,0 6.545455,3 6.545455,6.545455 0,3.636364 -2.909091,6.545455 -6.545455,6.545455 z m -0.909091,-2 h 1.818182 v -5.454546 h -1.818182 z m 0,-7.272728 h 1.818182 v -1.818182 h -1.818182 z"
         style="stroke-width:0.909091" /></g><g
       id="g87"
       transform="translate(-100,280)"
       inkscape:export-filename="24/pattern.png"
       inkscape:export-xdpi="96"
       inkscape:export-ydpi="96"><rect
         style="opacity:1;fill:#fbce2f;fill-opacity:1;stroke-width:5.90771;stroke-linecap:round;stroke-linejoin:round"
         id="rect86"
         width="24"
         height="24"
         x="0"
         y="45.291664"
         rx="8"
         ry="8" /><path
         id="path87"
         d="m 6,49.291667 a 2,2 0 0 0 -2,2 v 3 a 2,2 0 0 0 2,2 h 3 a 2,2 0 0 0 2,-2 v -3 a 2,2 0 0 0 -2,-2 z m 9,0 a 2,2 0 0 0 -2,2 v 3 a 2,2 0 0 0 2,2 h 3 a 2,2 0 0 0 2,-2 v -3 a 2,2 0 0 0 -2,-2 z m -9,1.5 h 3 a 0.5,0.5 0 0 1 0.5,0.5 v 3 a 0.5,0.5 0 0 1 -0.5,0.5 H 6 a 0.5,0.5 0 0 1 -0.5,-0.5 v -3 a 0.5,0.5 0 0 1 0.5,-0.5 z m 9,0 h 3 a 0.5,0.5 0 0 1 0.5,0.5 v 3 a 0.5,0.5 0 0 1 -0.5,0.5 h -3 a 0.5,0.5 0 0 1 -0.5,-0.5 v -3 a 0.5,0.5 0 0 1 0.5,-0.5 z m -9,7.5 a 2,2 0 0 0 -2,2 v 3 a 2,2 0 0 0 2,2 h 3 a 2,2 0 0 0 2,-2 v -3 a 2,2 0 0 0 -2,-2 z m 9,0 a 2,2 0 0 0 -2,2 v 3 a 2,2 0 0 0 2,2 h 3 a 2,2 0 0 0 2,-2 v -3 a 2,2 0 0 0 -2,-2 z m -9,1.5 h 3 a 0.5,0.5 0 0 1 0.5,0.5 v 3 a 0.5,0.5 0 0 1 -0.5,0.5 H 6 a 0.5,0.5 0 0 1 -0.5,-0.5 v -3 a 0.5,0.5 0 0 1 0.5,-0.5 z m 9,0 h 3 a 0.5,0.5 0 0 1 0.5,0.5 v 3 a 0.5,0.5 0 0 1 -0.5,0.5 h -3 a 0.5,0.5 0 0 1 -0.5,-0.5 v -3 a 0.5,0.5 0 0 1 0.5,-0.5 z" /></g><g
       id="g89"
       transform="translate(-140,260)"
       inkscape:export-filename="24/style.png"
       inkscape:export-xdpi="96"
       inkscape:export-ydpi="96"><rect
         style="opacity:1;fill:#fbce2f;fill-opacity:1;stroke-width:5.90771;stroke-linecap:round;stroke-linejoin:round"
         id="rect88"
         width="24"
         height="24"
         x="0"
         y="65.291664"
         rx="8"
         ry="8" /><path
         id="path89"
         d="M 4.7488579,85.291666 H 12.30048 V 83.875737 H 4.7488579 Z M 18.813754,69.716445 c -0.566371,-0.566371 -1.415929,-0.566371 -1.9823,0 l -6.796461,6.796461 c -0.3775807,-0.0944 -0.6607665,0 -1.0383476,0.09439 -0.4719764,0.188791 -1.4159292,0.660767 -1.7935103,2.076696 -0.3775811,1.60472 -0.7551622,2.076696 -1.038348,2.548673 -0.094395,0.09439 -0.1887906,0.283185 -0.2831859,0.377581 l -0.5663716,1.038353 h 1.3215338 c 1.8879056,0 3.2094395,-0.377581 4.4365786,-1.321534 0.755162,-0.566372 1.132743,-1.321534 1.227138,-2.171092 0,-0.283185 0,-0.471976 -0.09439,-0.660766 l 6.702065,-6.702065 c 0.471976,-0.566372 0.471976,-1.510325 -0.0944,-2.076696 z m -8.684366,10.572272 c -0.6607662,0.471976 -1.4159284,0.755162 -2.2654859,0.943953 0.1887905,-0.471977 0.4719763,-1.132744 0.7551622,-2.171092 0.1887905,-0.566371 0.3775811,-0.943953 0.7551622,-1.038348 0.4719764,-0.09439 0.9439525,0.09439 1.2271385,0.283186 0.188791,0.188791 0.283186,0.471976 0.188791,0.755162 0,0.283186 -0.0944,0.849558 -0.660768,1.227139 z"
         style="stroke-width:0.943953" /></g><g
       id="g91"
       transform="translate(-180,280)"
       inkscape:export-filename="24/block.png"
       inkscape:export-xdpi="96"
       inkscape:export-ydpi="96"><rect
         style="opacity:1;fill:#fbce2f;fill-opacity:1;stroke-width:5.90771;stroke-linecap:round;stroke-linejoin:round"
         id="rect90"
         width="24"
         height="24"
         x="0"
         y="45.291664"
         rx="8"
         ry="8" /><path
         id="path91"
         d="m 18.222222,52.847222 h -0.888889 v -1.777777 h -4.444444 v 1.777777 H 11.111111 V 51.069445 H 6.6666667 v 1.777777 H 5.7777778 C 4.8,52.847222 4,53.647222 4,54.625 v 7.111112 c 0,0.977777 0.8,1.777777 1.7777778,1.777777 H 18.222222 C 19.2,63.513889 20,62.713889 20,61.736112 V 54.625 c 0,-0.977778 -0.8,-1.777778 -1.777778,-1.777778 z m 0.444445,8.88889 c 0,0.266666 -0.177778,0.444444 -0.444445,0.444444 H 5.7777778 c -0.2666667,0 -0.4444445,-0.177778 -0.4444445,-0.444444 V 54.625 c 0,-0.266667 0.1777778,-0.444444 0.4444445,-0.444444 H 18.222222 c 0.266667,0 0.444445,0.177777 0.444445,0.444444 z"
         style="stroke-width:0.888889" /></g><text
       xml:space="preserve"
       style="font-size:16.2166px;line-height:110%;font-family:Roboto;-inkscape-font-specification:Roboto;text-align:center;text-decoration:none;text-decoration-line:none;text-decoration-color:#000000;letter-spacing:0px;word-spacing:0px;text-anchor:middle;fill:#000000;stroke-width:0.709478;stroke-linejoin:round;stroke-miterlimit:2"
       x="-420.15442"
       y="213.99767"
       id="text91"><tspan
         sodipodi:role="line"
         id="tspan91"
         x="-420.15442"
         y="213.99767"
         style="stroke-width:0.709478">https://wphelpers.dev/icons</tspan></text><g
       id="g92"
       inkscape:export-filename="32/story.png"
       inkscape:export-xdpi="96"
       inkscape:export-ydpi="96"
       transform="translate(0,300)"><rect
         style="opacity:1;fill:#fbce2f;fill-opacity:1;stroke-width:7.87695;stroke-linecap:round;stroke-linejoin:round"
         id="rect91"
         width="32"
         height="32"
         x="-220"
         y="125.29166"
         rx="10.666667"
         ry="10.666667" /><path
         id="path92"
         d="m -198.75555,133.29166 -0.8,0.26666 c -0.0889,0 -3.2,0.88889 -4.62222,1.86667 -1.51111,0.97778 -2.13333,1.86667 -2.48889,2.4 -0.53333,0.8 -1.51111,4.17778 -1.51111,5.6 l -0.8,2.04445 c -0.17778,0.35555 0,0.71111 0.35556,0.88888 0.0889,0 0.17778,0.0889 0.26667,0.0889 0.26666,0 0.53333,-0.17777 0.62222,-0.44444 l 0.53333,-1.33333 c 0.26667,0 0.62222,-0.0889 1.06666,-0.17778 0.62222,-0.0889 1.24444,-0.26667 1.95555,-0.44445 0.71111,-0.17777 1.42222,-0.44444 2.13333,-0.71111 0.62223,-0.26666 1.24445,-0.62222 1.68889,-1.06666 0.44445,-0.44445 0.71111,-1.06667 0.88889,-1.68889 0.17778,-0.62223 0.26667,-1.42223 0.35556,-2.13334 0.0889,-0.71111 0.0889,-1.51111 0.17778,-2.22222 0,-0.71111 0.0889,-1.33333 0.17777,-1.86667 z m -1.68888,4.97778 c -0.0889,0.71111 -0.17778,1.33333 -0.26667,1.86666 -0.17779,0.53334 -0.35556,0.88889 -0.53335,1.15556 -0.26666,0.26666 -0.7111,0.53333 -1.24443,0.8 -0.62222,0.26666 -1.24444,0.44444 -1.95556,0.71111 -0.53333,0.17778 -1.15555,0.26667 -1.59999,0.35555 l 4.79999,-4.97777 c 0.26667,-0.26667 0.53334,-0.62223 0.8889,-0.97778 0,0.35555 0,0.71111 -0.0889,1.06667 z m -8.80002,11.02222 h 7.11112 v -1.33334 h -7.11112 z"
         style="stroke-width:0.888889" /></g><g
       id="g93"
       transform="translate(-180,420)"
       inkscape:export-filename="32/list.png"
       inkscape:export-xdpi="96"
       inkscape:export-ydpi="96"><rect
         style="opacity:1;fill:#fbce2f;fill-opacity:1;stroke-width:7.87695;stroke-linecap:round;stroke-linejoin:round"
         id="rect92"
         width="32"
         height="32"
         x="0"
         y="5.2916665"
         rx="10.666667"
         ry="10.666667" /><path
         id="path93"
         d="M 15.2125,25.054167 H 23 v -1.3125 h -7.7875 z m 0,-7.525 v 1.3125 H 23 v -1.3125 z m -4.4625,5.075 c -0.9625,0 -1.75,0.7875 -1.75,1.75 0,0.9625 0.7875,1.75 1.75,1.75 0.9625,0 1.75,-0.7875 1.75,-1.75 0,-0.9625 -0.7875,-1.75 -1.75,-1.75 z m 0,-6.125 c -0.9625,0 -1.75,0.7875 -1.75,1.75 0,0.9625 0.7875,1.75 1.75,1.75 0.9625,0 1.75,-0.7875 1.75,-1.75 0,-0.9625 -0.7875,-1.75 -1.75,-1.75 z"
         style="stroke-width:0.875" /></g><g
       id="g94"
       transform="matrix(0.75,0,0,0.75,-340,-78.677084)"
       inkscape:export-filename="18/question-circle.png"
       inkscape:export-xdpi="96"
       inkscape:export-ydpi="96"><rect
         style="opacity:1;fill:#fbce2f;fill-opacity:1;stroke-width:5.90771;stroke-linecap:round;stroke-linejoin:round"
         id="rect93"
         width="24"
         height="24"
         x="0"
         y="5.2916665"
         rx="8"
         ry="8" /><path
         id="path94"
         d="m 12,10.663095 a 6.6285715,6.6285715 0 1 0 0,13.257143 6.6285715,6.6285715 0 0 0 0,-13.257143 z m -8,6.628572 a 8,8 0 1 1 16,0 8,8 0 0 1 -16,0 z m 8,-2.971429 a 1.3714286,1.3714286 0 0 1 0.152686,2.733715 c -0.425143,0.04754 -0.8384,0.402285 -0.8384,0.923428 v 1.142857 h 1.371428 v -0.772571 a 2.7428571,2.7428571 0 1 0 -3.4285711,-2.656 H 10.628571 A 1.3714286,1.3714286 0 0 1 12,14.320238 Z m -0.685714,5.714286 v 1.371429 h 1.371428 v -1.371429 z"
         style="stroke-width:0.914286" /></g><g
       id="g95"
       transform="translate(-60,380)"
       inkscape:export-filename="32/lifesaver.png"
       inkscape:export-xdpi="96"
       inkscape:export-ydpi="96"><rect
         style="opacity:1;fill:#fbce2f;fill-opacity:1;stroke-width:7.87695;stroke-linecap:round;stroke-linejoin:round"
         id="rect94"
         width="32"
         height="32"
         x="-40"
         y="45.291664"
         rx="10.666667"
         ry="10.666667" /><path
         id="path95"
         d="m -24,52.291664 a 9.0000002,9.0000002 0 0 0 0,18 9.0000002,9.0000002 0 0 0 0,-18 z m 0,1.6875 a 7.2787498,7.2787498 0 0 1 4.056152,1.226073 l -0.911865,1.419434 C -21.753461,56.018297 -22.835628,55.666664 -24,55.666664 a 5.5991248,5.5991248 0 0 0 -3.144287,0.958007 L -28.05835,55.207434 A 7.2787498,7.2787498 0 0 1 -24,53.979164 Z m 0,3.375 a 3.9375,3.9375 0 0 1 0,7.875 3.9375,3.9375 0 0 1 0,-7.875 z m 6.251221,0.140625 a 7.2787498,7.2787498 0 0 1 1.061279,3.796875 7.2787498,7.2787498 0 0 1 -1.265625,4.113281 l -1.419434,-0.914063 A 5.5991248,5.5991248 0 0 0 -18.375,61.291664 c 0,-1.052998 -0.289215,-2.04019 -0.793213,-2.882813 z m -12.502441,0.0023 1.417236,0.911865 a 5.5991248,5.5991248 0 0 0 -0.791016,2.88276 c 0,1.187997 0.368685,2.289149 0.997559,3.197021 l -1.419434,0.91626 h -0.0022 A 7.2787498,7.2787498 0 0 1 -31.3125,61.291664 c 0,-1.389373 0.387406,-2.688805 1.061279,-3.794678 z m 3.311278,8.591309 c 0.856123,0.524144 1.862194,0.828266 2.939942,0.828266 a 5.5979998,5.5979998 0 0 0 2.937744,-0.828369 l 0.914062,1.419433 A 7.2787498,7.2787498 0 0 1 -24,68.604164 7.2787498,7.2787498 0 0 1 -27.854004,67.50553 Z"
         style="stroke-width:1.125" /></g><g
       id="g96"
       transform="translate(-80,420)"
       inkscape:export-filename="32/cog.png"
       inkscape:export-xdpi="96"
       inkscape:export-ydpi="96"><rect
         style="opacity:1;fill:#fbce2f;fill-opacity:1;stroke-width:7.87695;stroke-linecap:round;stroke-linejoin:round"
         id="rect95"
         width="32"
         height="32"
         x="-60"
         y="5.2916665"
         rx="10.666667"
         ry="10.666667" /><path
         id="path96"
         style="fill:#000000;stroke:none"
         d="m -44.65175,13.291666 a 1,1 0 0 0 -0.986328,0.835939 l -0.244141,1.464844 a 5.994,5.994 0 0 0 -2.109375,1.21875 l -1.392578,-0.521485 a 1,1 0 0 0 -1.216797,0.435547 l -0.652343,1.130859 a 1,1 0 0 0 0.230468,1.273438 l 1.146485,0.943359 a 6.026,6.026 0 0 0 0,2.435547 l -1.148438,0.945313 a 1,1 0 0 0 -0.230469,1.271484 l 0.654297,1.130859 a 1,1 0 0 0 1.216797,0.4375 l 1.392578,-0.523437 a 5.995,5.995 0 0 0 2.109375,1.21875 l 0.244141,1.466797 a 1,1 0 0 0 0.986328,0.835937 h 1.304688 a 1,1 0 0 0 0.988281,-0.835937 l 0.242187,-1.466797 c 0.788,-0.26 1.504376,-0.678751 2.109375,-1.21875 l 1.392579,0.523437 a 1,1 0 0 0 1.216796,-0.4375 l 0.652344,-1.130859 a 1,1 0 0 0 -0.228516,-1.271484 l -1.15039,-0.945313 a 6.025,6.025 0 0 0 0,-2.435547 l 1.148437,-0.943359 A 1,1 0 0 0 -36.7455,17.85612 l -0.652344,-1.130859 a 1,1 0 0 0 -1.216796,-0.435547 l -1.392579,0.521485 c -0.604999,-0.539 -1.322375,-0.958751 -2.109375,-1.21875 l -0.242187,-1.464844 a 1,1 0 0 0 -0.988281,-0.835939 z m 0.652344,5.000001 a 3,3 0 0 1 3,3 3,3 0 0 1 -6,0 3,3 0 0 1 3,-3 z" /></g><g
       id="g100"
       inkscape:export-filename="32/wm.png"
       inkscape:export-xdpi="96"
       inkscape:export-ydpi="96"
       transform="translate(0,340)"><rect
         style="opacity:1;fill:#fbce2f;fill-opacity:1;stroke-width:7.87695;stroke-linecap:round;stroke-linejoin:round"
         id="rect96"
         width="32"
         height="32"
         x="-180"
         y="125.29166"
         rx="10.666667"
         ry="10.666667" /><circle
         style="opacity:1;fill:#fbce2f;fill-opacity:1;stroke:none;stroke-width:0.9912;stroke-linecap:square;stroke-linejoin:miter;stroke-miterlimit:2;stroke-dasharray:none;stroke-opacity:1"
         id="circle96"
         cx="-168"
         cy="137.29166"
         r="4" /><path
         id="path97"
         style="opacity:1;fill:#fbce2f;fill-opacity:1;stroke:none;stroke-width:0.821912;stroke-linecap:butt;stroke-linejoin:round;stroke-miterlimit:2;stroke-dasharray:none;stroke-opacity:1"
         d="m -175.77818,130.92771 6.36397,6.36396 -6.36397,6.36396 1.41422,1.41421 6.36396,-6.36396 6.36396,6.36396 1.41422,-1.41421 -6.36397,-6.36396 6.36397,-6.36396 -1.41422,-1.41422 -6.36396,6.36396 -6.36396,-6.36396 z" /><g
         id="g99"
         transform="matrix(0.30000001,0,0,0.30000001,-170.66095,128.50358)"><path
           inkscape:connector-curvature="0"
           id="path98"
           d="m -7.7968456,45.126905 5.0000001,-5 9.9999997,9.999999 10.0000008,-9.999999 9.999999,9.999999 9.999998,-9.999999 5.000001,5 -14.999999,15 L 17.203155,50.126904 7.2031542,60.126905 Z"
           style="fill:#000000;fill-opacity:1;stroke:none;stroke-width:6;stroke-linecap:round;stroke-linejoin:round;stroke-miterlimit:3.8637;stroke-dasharray:none;stroke-opacity:1" /><path
           style="fill:#000000;fill-opacity:1;stroke:none;stroke-width:6;stroke-linecap:round;stroke-linejoin:round;stroke-miterlimit:3.8637;stroke-dasharray:none;stroke-opacity:1"
           d="m 2.2031549,40.126905 5.0000004,5 9.9999997,-10 9.999999,10 9.999998,-10 10.000002,10 4.999998,-5 -15,-15 -9.999998,10 -10,-10 z"
           id="path99"
           inkscape:connector-curvature="0" /></g></g><g
       id="g101"
       inkscape:export-filename="32/updates.png"
       inkscape:export-xdpi="96"
       inkscape:export-ydpi="96"
       transform="translate(0,220)"><rect
         style="opacity:1;fill:#fbce2f;fill-opacity:1;stroke-width:7.87695;stroke-linecap:round;stroke-linejoin:round"
         id="rect100"
         width="32"
         height="32"
         x="-100"
         y="245.29166"
         rx="10.666667"
         ry="10.666667" /><path
         id="path100"
         d="m -84.674651,266.25646 -4.773848,-4.77385 c -0.09548,-0.0955 -0.09548,-0.28643 0,-0.38191 l 2.19597,-2.19597 -1.050247,-0.95477 -2.19597,2.19597 c -0.668339,0.66834 -0.668339,1.71859 0,2.38692 l 4.773849,4.77385 h -2.577879 v 1.43216 h 5.06028 v -4.96481 h -1.432155 z m 7.160773,-6.11053 -4.773848,-4.77385 h 2.577878 v -1.52763 h -4.964803 v 4.9648 h 1.432155 v -2.4824 l 4.773848,4.77385 c 0.09548,0.0955 0.09548,0.28643 0,0.38191 l -2.19597,2.19597 1.050247,1.05024 2.19597,-2.19597 c 0.572862,-0.66833 0.572862,-1.81406 -0.09548,-2.38692 z"
         style="stroke-width:0.95477" /></g></g></svg>
