<?xml version="1.0" encoding="UTF-8" standalone="no"?>
<svg
   width="600"
   height="400"
   viewBox="0 0 600 400"
   version="1.1"
   id="svg8"
   inkscape:version="1.4.2 (ebf0e94, 2025-05-08)"
   sodipodi:docname="privacy.svg"
   inkscape:export-filename="privacy.png"
   xml:space="preserve"
   inkscape:export-xdpi="96"
   inkscape:export-ydpi="96"
   xmlns:inkscape="http://www.inkscape.org/namespaces/inkscape"
   xmlns:sodipodi="http://sodipodi.sourceforge.net/DTD/sodipodi-0.dtd"
   xmlns:xlink="http://www.w3.org/1999/xlink"
   xmlns="http://www.w3.org/2000/svg"
   xmlns:svg="http://www.w3.org/2000/svg"
   xmlns:rdf="http://www.w3.org/1999/02/22-rdf-syntax-ns#"
   xmlns:cc="http://creativecommons.org/ns#"
   xmlns:dc="http://purl.org/dc/elements/1.1/"><defs
     id="defs2"><linearGradient
       id="linearGradient10"
       inkscape:collect="always"><stop
         style="stop-color:#006d57;stop-opacity:1;"
         offset="0"
         id="stop10" /><stop
         style="stop-color:#ffc022;stop-opacity:1;"
         offset="1"
         id="stop11" /></linearGradient><symbol
       id="phosphor-light.svg:phosphor-shield-check-light"
       viewBox="0 0 32 32"><title
         id="title1">phosphor-light.svg:phosphor-shield-check-light_inkscape_duplicate</title><path
         d="M 26,5.25 H 6 C 5.034,5.25 4.25,6.034 4.25,7 v 0 7 c 0,6.492 3.14,10.425 5.775,12.58 2.841,2.325 5.659,3.111 5.777,3.144 0.059,0.017 0.127,0.026 0.197,0.026 0.07,0 0.138,-0.01 0.203,-0.028 l -0.005,10e-4 c 0.119,-0.032 2.936,-0.819 5.777,-3.144 2.635,-2.155 5.775,-6.088 5.775,-12.58 v -7 c 0,-0.966 -0.784,-1.75 -1.75,-1.75 v 0 z M 26.25,14 c 0,4.72 -1.742,8.549 -5.18,11.383 -1.44,1.19 -3.123,2.152 -4.955,2.797 L 16,28.215 c -1.947,-0.68 -3.63,-1.642 -5.098,-2.855 l 0.028,0.022 C 7.492,22.548 5.75,18.719 5.75,13.999 v -7 C 5.75,6.861 5.862,6.749 6,6.749 v 0 h 20 c 0.138,0 0.25,0.112 0.25,0.25 v 0 z m -4.72,-1.53 c 0.136,0.136 0.219,0.323 0.219,0.53 0,0.207 -0.084,0.394 -0.219,0.53 v 0 l -7,7 c -0.136,0.136 -0.323,0.219 -0.53,0.219 -0.207,0 -0.394,-0.084 -0.53,-0.219 v 0 l -3,-3 c -0.125,-0.134 -0.201,-0.314 -0.201,-0.511 0,-0.414 0.336,-0.75 0.75,-0.75 0.198,0 0.378,0.077 0.512,0.202 v 0 l 2.47,2.469 6.47,-6.469 c 0.136,-0.136 0.323,-0.219 0.53,-0.219 0.207,0 0.394,0.084 0.53,0.219 v 0 z"
         id="path1188" /></symbol><filter
       style="color-interpolation-filters:sRGB;"
       inkscape:label="Drop Shadow"
       id="filter10"
       x="-0.23446814"
       y="-0.22391673"
       width="1.4689363"
       height="1.4724905"><feFlood
         result="flood"
         in="SourceGraphic"
         flood-opacity="0.501961"
         flood-color="rgb(0,0,0)"
         id="feFlood9" /><feGaussianBlur
         result="blur"
         in="SourceGraphic"
         stdDeviation="10.000000"
         id="feGaussianBlur9" /><feOffset
         result="offset"
         in="blur"
         dx="0.000000"
         dy="3.000000"
         id="feOffset9" /><feComposite
         result="comp1"
         operator="in"
         in="flood"
         in2="offset"
         id="feComposite9" /><feComposite
         result="comp2"
         operator="over"
         in="SourceGraphic"
         in2="comp1"
         id="feComposite10" /></filter><linearGradient
       inkscape:collect="always"
       xlink:href="#linearGradient10"
       id="linearGradient11"
       x1="295.20779"
       y1="303.46307"
       x2="352.92111"
       y2="209.60112"
       gradientUnits="userSpaceOnUse" /></defs><sodipodi:namedview
     id="base"
     pagecolor="#ffffff"
     bordercolor="#7d7d7d"
     borderopacity="0.49019608"
     inkscape:pageopacity="0"
     inkscape:pageshadow="2"
     inkscape:zoom="1.953125"
     inkscape:cx="275.456"
     inkscape:cy="207.36"
     inkscape:document-units="px"
     inkscape:current-layer="g4"
     showgrid="false"
     inkscape:snap-bbox="true"
     inkscape:bbox-paths="true"
     inkscape:bbox-nodes="true"
     inkscape:object-paths="true"
     units="px"
     borderlayer="true"
     inkscape:showpageshadow="false"
     inkscape:pagecheckerboard="false"
     showguides="true"
     inkscape:guide-bbox="true"
     inkscape:document-rotation="0"
     inkscape:deskcolor="#444444"><sodipodi:guide
       position="0,2000"
       orientation="-1,0"
       id="guide4487"
       inkscape:locked="false"
       inkscape:label=""
       inkscape:color="rgb(0,0,255)" /><sodipodi:guide
       position="-100,1900"
       orientation="0,1"
       id="guide4497"
       inkscape:locked="false"
       inkscape:label=""
       inkscape:color="rgb(0,0,255)" /><inkscape:grid
       type="xygrid"
       id="grid4499"
       spacingx="1"
       spacingy="1"
       empspacing="20"
       dotted="false"
       originx="0"
       originy="0"
       units="px"
       visible="false" /></sodipodi:namedview><metadata
     id="metadata5"><rdf:RDF><cc:Work
         rdf:about=""><dc:format>image/svg+xml</dc:format><dc:type
           rdf:resource="http://purl.org/dc/dcmitype/StillImage" /><cc:license
           rdf:resource="http://creativecommons.org/publicdomain/zero/1.0/" /></cc:Work><cc:License
         rdf:about="http://creativecommons.org/publicdomain/zero/1.0/"><cc:permits
           rdf:resource="http://creativecommons.org/ns#Reproduction" /><cc:permits
           rdf:resource="http://creativecommons.org/ns#Distribution" /><cc:permits
           rdf:resource="http://creativecommons.org/ns#DerivativeWorks" /></cc:License></rdf:RDF></metadata><g
     inkscape:groupmode="layer"
     id="layer2"
     inkscape:label="img"
     transform="translate(0,-5.2916666)"><image
       width="600"
       height="400.5"
       preserveAspectRatio="none"
       xlink:href="gwyneth/themedemos.webmandesign.eu_gwyneth_%20--%2020260410105018.png"
       id="image1"
       x="0"
       y="5.2916665"
       style="stroke-width:2" /></g><g
     inkscape:groupmode="layer"
     id="layer1"
     inkscape:label="shield"
     style="display:inline"><g
       id="g4"
       transform="matrix(1.6346458,0,0,1.6316231,-161.88654,-181.99059)"
       style="stroke-width:0.612319;filter:url(#filter10)"><path
         style="fill:url(#linearGradient11);fill-opacity:1;stroke:#ffffff;stroke-width:12.2464;stroke-dasharray:none"
         d="m 346.79792,261.16672 c 0,29.5805 -10.9172,53.57705 -32.46333,71.33788 -9.02456,7.45779 -19.57201,13.4867 -31.05326,17.52895 l -0.72071,0.21935 c -12.20195,-4.2616 -22.7494,-10.29051 -31.94944,-17.89244 l 0.17548,0.13787 C 229.24053,314.7375 218.32332,290.74095 218.32332,261.16046 v -43.86938 c 0,-0.86485 0.70191,-1.56676 1.56676,-1.56676 v 0 h 125.34108 c 0.86485,0 1.56676,0.70191 1.56676,1.56676 v 0 z"
         id="path3"
         sodipodi:nodetypes="scccccssscsscs" /><path
         style="fill:#ffffff;stroke-width:0.612319"
         d="m 317.21743,251.57813 c 0.85232,0.85232 1.37249,2.02426 1.37249,3.32154 0,1.29728 -0.52644,2.46922 -1.37249,3.32154 v 0 l -43.86938,43.86938 c -0.85232,0.85232 -2.02426,1.37248 -3.32154,1.37248 -1.29728,0 -2.46921,-0.52643 -3.32153,-1.37248 v 0 l -18.80117,-18.80117 c -0.78338,-0.83978 -1.25967,-1.96785 -1.25967,-3.20246 0,-2.59456 2.10573,-4.70029 4.70029,-4.70029 1.24087,0 2.36894,0.48256 3.20873,1.26594 v 0 l 15.47962,15.47336 40.54784,-40.54157 c 0.85232,-0.85232 2.02426,-1.37249 3.32154,-1.37249 1.29728,0 2.46922,0.52644 3.32154,1.37249 v 0 z"
         id="path4" /></g><rect
       style="display:inline;fill:#006d57;fill-opacity:1;stroke:none;stroke-width:20;stroke-dasharray:none"
       id="rect8"
       width="99.999985"
       height="100"
       x="200"
       y="-140" /><rect
       style="display:inline;fill:#ffc022;fill-opacity:1;stroke:none;stroke-width:20;stroke-dasharray:none"
       id="rect9"
       width="99.999985"
       height="100"
       x="320"
       y="-140" /></g></svg>
