<?xml version="1.0" encoding="UTF-8" standalone="no"?>
<!-- Created with Inkscape (http://www.inkscape.org/) -->

<svg
   width="436"
   height="140"
   viewBox="0 0 115.35833 37.041668"
   version="1.1"
   id="svg8"
   inkscape:version="1.3-beta (cedbd6c6ff, 2023-05-28)"
   sodipodi:docname="banner.svg"
   inkscape:export-filename="banner-introductory-price-20-black.png"
   inkscape:export-xdpi="107.85696"
   inkscape:export-ydpi="107.85696"
   xmlns:inkscape="http://www.inkscape.org/namespaces/inkscape"
   xmlns:sodipodi="http://sodipodi.sourceforge.net/DTD/sodipodi-0.dtd"
   xmlns:xlink="http://www.w3.org/1999/xlink"
   xmlns="http://www.w3.org/2000/svg"
   xmlns:svg="http://www.w3.org/2000/svg"
   xmlns:rdf="http://www.w3.org/1999/02/22-rdf-syntax-ns#"
   xmlns:cc="http://creativecommons.org/ns#"
   xmlns:dc="http://purl.org/dc/elements/1.1/">
  <defs
     id="defs2">
    <linearGradient
       id="linearGradient27"
       inkscape:collect="always">
      <stop
         style="stop-color:#000000;stop-opacity:1;"
         offset="0"
         id="stop27" />
      <stop
         style="stop-color:#000000;stop-opacity:0.79215686;"
         offset="0.05833632"
         id="stop29" />
      <stop
         style="stop-color:#000000;stop-opacity:0;"
         offset="1"
         id="stop28" />
    </linearGradient>
    <pattern
       inkscape:collect="always"
       xlink:href="#Wave"
       preserveAspectRatio="xMidYMid"
       id="pattern27"
       patternTransform="scale(0.15)"
       x="0"
       y="0" />
    <pattern
       patternUnits="userSpaceOnUse"
       width="24"
       height="10"
       preserveAspectRatio="xMidYMid"
       id="Wave"
       style="fill:#000000"
       x="0"
       y="0"
       inkscape:collect="always"
       inkscape:isstock="true"
       inkscape:label="Wave">
      <g
         id="wave_g"
         style="display:inline">
        <path
           d="M 12,-2 C 9.1666695,-2 7.1679672,-0.56445187 5.4179687,0.68554687 3.6679703,1.9355456 2.1666645,3 0,3 V 5 C 2.8333305,5 4.8320328,3.5644519 6.5820312,2.3144531 8.3320297,1.0644544 9.8333355,0 12,0 14.166665,0 15.667971,1.0644544 17.417969,2.3144531 19.167967,3.5644519 21.166669,5 24,5 V 3 C 21.833335,3 20.332029,1.9355456 18.582031,0.68554687 16.832033,-0.56445189 14.833331,-2 12,-2 Z"
           id="path3" />
        <path
           d="M 12,3 C 9.1666695,3 7.1679672,4.4355481 5.4179687,5.6855469 3.6679703,6.9355456 2.1666645,8 0,8 v 2 C 2.8333305,10 4.8320328,8.5644519 6.5820312,7.3144531 8.3320297,6.0644544 9.8333355,5 12,5 14.166665,5 15.667971,6.0644544 17.417969,7.3144531 19.167967,8.5644519 21.166669,10 24,10 V 8 C 21.833335,8 20.332029,6.9355456 18.582031,5.6855469 16.832033,4.4355481 14.833331,3 12,3 Z"
           id="path4" />
        <path
           d="M 12,8 C 9.1666695,8 7.1679672,9.4355481 5.4179687,10.685547 3.6679703,11.935546 2.1666645,13 0,13 v 2 C 2.8333305,15 4.8320328,13.564452 6.5820312,12.314453 8.3320297,11.064454 9.8333355,10 12,10 c 2.166665,0 3.667971,1.064454 5.417969,2.314453 C 19.167967,13.564452 21.166669,15 24,15 V 13 C 21.833335,13 20.332029,11.935546 18.582031,10.685547 16.832033,9.4355481 14.833331,8 12,8 Z"
           id="path5" />
      </g>
    </pattern>
    <pattern
       inkscape:collect="always"
       xlink:href="#pattern25"
       preserveAspectRatio="xMidYMid"
       id="pattern26"
       patternTransform="scale(0.3)"
       x="0"
       y="0" />
    <pattern
       patternUnits="userSpaceOnUse"
       width="24"
       height="10"
       preserveAspectRatio="xMidYMid"
       id="pattern25"
       style="fill:#000000"
       x="0"
       y="0"
       inkscape:collect="always"
       inkscape:isstock="true"
       inkscape:label="Wave">
      <g
         id="g25"
         style="display:inline">
        <path
           d="M 12,-2 C 9.1666695,-2 7.1679672,-0.56445187 5.4179687,0.68554687 3.6679703,1.9355456 2.1666645,3 0,3 V 5 C 2.8333305,5 4.8320328,3.5644519 6.5820312,2.3144531 8.3320297,1.0644544 9.8333355,0 12,0 14.166665,0 15.667971,1.0644544 17.417969,2.3144531 19.167967,3.5644519 21.166669,5 24,5 V 3 C 21.833335,3 20.332029,1.9355456 18.582031,0.68554687 16.832033,-0.56445189 14.833331,-2 12,-2 Z"
           id="path23" />
        <path
           d="M 12,3 C 9.1666695,3 7.1679672,4.4355481 5.4179687,5.6855469 3.6679703,6.9355456 2.1666645,8 0,8 v 2 C 2.8333305,10 4.8320328,8.5644519 6.5820312,7.3144531 8.3320297,6.0644544 9.8333355,5 12,5 14.166665,5 15.667971,6.0644544 17.417969,7.3144531 19.167967,8.5644519 21.166669,10 24,10 V 8 C 21.833335,8 20.332029,6.9355456 18.582031,5.6855469 16.832033,4.4355481 14.833331,3 12,3 Z"
           id="path24" />
        <path
           d="M 12,8 C 9.1666695,8 7.1679672,9.4355481 5.4179687,10.685547 3.6679703,11.935546 2.1666645,13 0,13 v 2 C 2.8333305,15 4.8320328,13.564452 6.5820312,12.314453 8.3320297,11.064454 9.8333355,10 12,10 c 2.166665,0 3.667971,1.064454 5.417969,2.314453 C 19.167967,13.564452 21.166669,15 24,15 V 13 C 21.833335,13 20.332029,11.935546 18.582031,10.685547 16.832033,9.4355481 14.833331,8 12,8 Z"
           id="path25" />
      </g>
    </pattern>
    <clipPath
       clipPathUnits="userSpaceOnUse"
       id="clipPath54">
      <path
         id="path54"
         style="stroke-width:0.0999999;stroke-linecap:square;paint-order:markers fill stroke;stop-color:#000000"
         d="m 1691.1994,-792.32001 h 1634.8919 v 92.82806 H 1691.1994 Z" />
    </clipPath>
    <rect
       x="529.59998"
       y="-93.599998"
       width="137.60001"
       height="57.599998"
       id="rect12" />
    <marker
       inkscape:stockid="Arrow1Lstart"
       orient="auto"
       refY="0"
       refX="0"
       id="marker5496"
       style="overflow:visible"
       inkscape:isstock="true">
      <path
         id="path5494"
         d="M 0,0 5,-5 -12.5,0 5,5 Z"
         style="fill-rule:evenodd;stroke:#000000;stroke-width:1pt"
         transform="matrix(0.8,0,0,0.8,10,0)" />
    </marker>
    <marker
       inkscape:stockid="Arrow1Lstart"
       orient="auto"
       refY="0"
       refX="0"
       id="Arrow1Lstart"
       style="overflow:visible"
       inkscape:isstock="true">
      <path
         id="path5224"
         d="M 0,0 5,-5 -12.5,0 5,5 Z"
         style="fill-rule:evenodd;stroke:#000000;stroke-width:1pt"
         transform="matrix(0.8,0,0,0.8,10,0)" />
    </marker>
    <clipPath
       id="clip-path"
       transform="translate(0 -1.7)">
      <rect
         class="cls-1"
         x="60.689999"
         width="60"
         height="140"
         id="rect1102"
         y="0" />
    </clipPath>
    <linearGradient
       id="linear-gradient"
       x1="10.14"
       y1="67.970001"
       x2="110.52"
       y2="67.970001"
       gradientUnits="userSpaceOnUse">
      <stop
         offset="0.3"
         stop-color="#c3922e"
         id="stop1105" />
      <stop
         offset="0.8"
         stop-color="#ebbb10"
         id="stop1107" />
      <stop
         offset="1"
         stop-color="#eed688"
         id="stop1109" />
    </linearGradient>
    <clipPath
       clipPathUnits="userSpaceOnUse"
       id="clipPath13">
      <path
         id="path13"
         style="font-variation-settings:'wght' 700;fill:#ffffff;fill-opacity:1;stroke:#000000;stroke-width:0.657704;stroke-linejoin:round;stroke-miterlimit:2;stroke-dasharray:none"
         d="M 14.555657,0.20633887 V 42.167718 H 38.956535 V 0.20633887 Z M 25.796677,10.530812 c 1.094251,0 1.998102,0.18545 2.711744,0.556544 0.723157,0.361578 1.260724,0.913633 1.612787,1.655821 0.361579,0.732672 0.542413,1.655626 0.542413,2.768907 v 0.271046 c 0,0.761218 -0.166668,1.636736 -0.499701,2.62632 -0.333033,0.989583 -0.83733,2.121705 -1.512911,3.396745 l -3.296869,6.208686 h 5.280899 v 3.482811 h -9.5913 v -3.240027 l 4.181943,-7.27906 c 0.628005,-1.084735 1.089482,-2.060061 1.384454,-2.925947 0.304487,-0.865885 0.456667,-1.627108 0.456667,-2.283658 v -0.271367 c 0,-0.504307 -0.09981,-0.875206 -0.299628,-1.113087 -0.190304,-0.247396 -0.49005,-0.371243 -0.899204,-0.371243 -0.466246,0 -0.808812,0.15218 -1.027663,0.456668 -0.209335,0.304487 -0.314079,0.780451 -0.314079,1.427487 v 0.742165 h -3.596818 v -0.742165 c 0,-1.208434 0.176219,-2.207799 0.528283,-2.997563 0.361578,-0.789763 0.899145,-1.379703 1.612787,-1.769827 0.723157,-0.399639 1.631945,-0.599256 2.726196,-0.599256 z" />
    </clipPath>
    <pattern
       patternUnits="userSpaceOnUse"
       width="30"
       height="9"
       patternTransform="translate(435,777)"
       preserveAspectRatio="xMidYMid"
       style="fill:#000000"
       id="Wave 2"
       inkscape:collect="always"
       inkscape:isstock="true"
       inkscape:label="Wave 2">
      <path
         id="path37"
         style="stroke:none;stroke-linecap:butt;stroke-linejoin:bevel;paint-order:stroke markers fill;stop-color:#000000"
         d="M 8,9 15,5.5 22,9 Z M 0,9 V 4 L 8,0 h 14 l 8,4 V 9 L 15,1 Z"
         sodipodi:nodetypes="cccccccccccc" />
    </pattern>
    <clipPath
       clipPathUnits="userSpaceOnUse"
       id="clipPath13-3">
      <path
         id="path13-7"
         style="font-variation-settings:'wght' 700;fill:#ffffff;fill-opacity:1;stroke:#000000;stroke-width:0.657704;stroke-linejoin:round;stroke-miterlimit:2;stroke-dasharray:none"
         d="M 14.555657,0.20633887 V 42.167718 H 38.956535 V 0.20633887 Z M 25.796677,10.530812 c 1.094251,0 1.998102,0.18545 2.711744,0.556544 0.723157,0.361578 1.260724,0.913633 1.612787,1.655821 0.361579,0.732672 0.542413,1.655626 0.542413,2.768907 v 0.271046 c 0,0.761218 -0.166668,1.636736 -0.499701,2.62632 -0.333033,0.989583 -0.83733,2.121705 -1.512911,3.396745 l -3.296869,6.208686 h 5.280899 v 3.482811 h -9.5913 v -3.240027 l 4.181943,-7.27906 c 0.628005,-1.084735 1.089482,-2.060061 1.384454,-2.925947 0.304487,-0.865885 0.456667,-1.627108 0.456667,-2.283658 v -0.271367 c 0,-0.504307 -0.09981,-0.875206 -0.299628,-1.113087 -0.190304,-0.247396 -0.49005,-0.371243 -0.899204,-0.371243 -0.466246,0 -0.808812,0.15218 -1.027663,0.456668 -0.209335,0.304487 -0.314079,0.780451 -0.314079,1.427487 v 0.742165 h -3.596818 v -0.742165 c 0,-1.208434 0.176219,-2.207799 0.528283,-2.997563 0.361578,-0.789763 0.899145,-1.379703 1.612787,-1.769827 0.723157,-0.399639 1.631945,-0.599256 2.726196,-0.599256 z" />
    </clipPath>
    <pattern
       inkscape:collect="always"
       xlink:href="#Wave 2"
       preserveAspectRatio="xMidYMid"
       id="pattern1"
       patternTransform="matrix(0.07514102,0,0,0.07514102,333.55888,589.34331)"
       x="0"
       y="0" />
    <pattern
       inkscape:collect="always"
       xlink:href="#Wave 2"
       preserveAspectRatio="xMidYMid"
       id="pattern4"
       patternTransform="matrix(0.07514102,0,0,0.07514102,333.55888,589.34331)"
       x="0"
       y="0" />
    <filter
       style="color-interpolation-filters:sRGB"
       inkscape:label="Colorize"
       id="filter35"
       x="0"
       y="-0.02498311"
       width="1.0322829"
       height="1.0499662">
      <feComposite
         in2="SourceGraphic"
         operator="arithmetic"
         k1="10"
         k2="10"
         result="composite1"
         id="feComposite34"
         k3="0"
         k4="0" />
      <feColorMatrix
         in="composite1"
         values="1"
         type="saturate"
         result="colormatrix1"
         id="feColorMatrix34" />
      <feFlood
         flood-opacity="1"
         flood-color="rgb(4,49,208)"
         result="flood1"
         id="feFlood34" />
      <feBlend
         in="flood1"
         in2="colormatrix1"
         mode="normal"
         result="blend1"
         id="feBlend34" />
      <feBlend
         in2="blend1"
         mode="normal"
         result="blend2"
         id="feBlend35" />
      <feColorMatrix
         in="blend2"
         values="1"
         type="saturate"
         result="colormatrix2"
         id="feColorMatrix35" />
      <feComposite
         in="colormatrix2"
         in2="SourceGraphic"
         operator="in"
         result="composite2"
         id="feComposite35" />
    </filter>
    <linearGradient
       inkscape:collect="always"
       xlink:href="#linearGradient27"
       id="linearGradient28"
       x1="135.46666"
       y1="-39.6875"
       x2="135.46666"
       y2="-29.104168"
       gradientUnits="userSpaceOnUse"
       gradientTransform="matrix(1,0,0,0.50000002,0,-19.843749)" />
  </defs>
  <sodipodi:namedview
     id="base"
     pagecolor="#ffffff"
     bordercolor="#7d7d7d"
     borderopacity="0.49019608"
     inkscape:pageopacity="0.0"
     inkscape:pageshadow="2"
     inkscape:zoom="1.25"
     inkscape:cx="612.4"
     inkscape:cy="-57.6"
     inkscape:document-units="px"
     inkscape:current-layer="layer1"
     showgrid="false"
     inkscape:snap-bbox="true"
     inkscape:bbox-paths="true"
     inkscape:bbox-nodes="true"
     inkscape:object-paths="true"
     units="px"
     borderlayer="true"
     inkscape:showpageshadow="false"
     inkscape:pagecheckerboard="false"
     showguides="true"
     inkscape:guide-bbox="true"
     inkscape:snap-nodes="false"
     inkscape:deskcolor="#ffffff"
     showborder="true">
    <sodipodi:guide
       position="502.70833,-113.95981"
       orientation="1,0"
       id="guide4495"
       inkscape:locked="false"
       inkscape:label=""
       inkscape:color="rgb(0,0,255)" />
    <inkscape:grid
       type="xygrid"
       id="grid4499"
       spacingx="5.2916667"
       spacingy="5.2916667"
       empspacing="20"
       dotted="true"
       originx="0"
       originy="0"
       units="px"
       visible="false" />
  </sodipodi:namedview>
  <metadata
     id="metadata5">
    <rdf:RDF>
      <cc:Work
         rdf:about="">
        <dc:format>image/svg+xml</dc:format>
        <dc:type
           rdf:resource="http://purl.org/dc/dcmitype/StillImage" />
        <cc:license
           rdf:resource="http://creativecommons.org/publicdomain/zero/1.0/" />
      </cc:Work>
      <cc:License
         rdf:about="http://creativecommons.org/publicdomain/zero/1.0/">
        <cc:permits
           rdf:resource="http://creativecommons.org/ns#Reproduction" />
        <cc:permits
           rdf:resource="http://creativecommons.org/ns#Distribution" />
        <cc:permits
           rdf:resource="http://creativecommons.org/ns#DerivativeWorks" />
      </cc:License>
    </rdf:RDF>
  </metadata>
  <g
     inkscape:groupmode="layer"
     id="layer2"
     inkscape:label="introductory price">
    <g
       inkscape:groupmode="layer"
       id="layer3"
       inkscape:label="20"
       style="display:inline">
      <rect
         transform="rotate(14.999999)"
         ry="4.1672044"
         rx="4.1672044"
         y="-0.82994527"
         x="13.798844"
         height="28.745872"
         width="28.745872"
         id="rect1608"
         style="display:inline;fill:#fbce2f;fill-opacity:1;stroke:none;stroke-width:0.833441;stroke-linecap:round;stroke-linejoin:round"
         inkscape:export-filename="banner-introductory-price-20-black.png"
         inkscape:export-xdpi="96"
         inkscape:export-ydpi="96" />
      <g
         id="g19"
         style="mix-blend-mode:normal"
         transform="matrix(0.69999998,0,0,0.69999998,-1.3953076e-6,0)">
        <text
           xml:space="preserve"
           style="font-style:normal;font-variant:normal;font-weight:normal;font-stretch:normal;font-size:29.2308px;line-height:110%;font-family:Bahnschrift;-inkscape-font-specification:'Bahnschrift, @wght=700';font-variant-ligatures:normal;font-variant-caps:normal;font-variant-numeric:normal;font-variant-east-asian:normal;font-variation-settings:'wght' 700;text-align:end;text-decoration:none;text-decoration-line:none;text-decoration-color:#000000;letter-spacing:0px;word-spacing:0px;text-anchor:end;fill:url(#pattern27);fill-opacity:1;stroke:#000000;stroke-width:1.05833;stroke-linejoin:round;stroke-miterlimit:2"
           x="42.058445"
           y="31.497557"
           id="text8"
           clip-path="url(#clipPath13-3)"
           transform="matrix(2.1414848,0,0,2.1414848,-43.686981,-21.418215)"><tspan
             sodipodi:role="line"
             id="tspan8"
             style="font-style:normal;font-variant:normal;font-weight:normal;font-stretch:normal;font-size:29.2308px;font-family:Bahnschrift;-inkscape-font-specification:'Bahnschrift, @wght=700';font-variant-ligatures:normal;font-variant-caps:normal;font-variant-numeric:normal;font-variant-east-asian:normal;font-variation-settings:'wght' 700;text-align:end;text-anchor:end;fill:url(#pattern27);fill-opacity:1;stroke:#000000;stroke-width:1.05833"
             x="42.058445"
             y="31.497557"
             dx="0">0</tspan></text>
        <text
           xml:space="preserve"
           style="font-style:normal;font-variant:normal;font-weight:normal;font-stretch:normal;font-size:62.5973px;line-height:110%;font-family:Bahnschrift;-inkscape-font-specification:'Bahnschrift, @wght=700';font-variant-ligatures:normal;font-variant-caps:normal;font-variant-numeric:normal;font-variant-east-asian:normal;font-variation-settings:'wght' 700;text-align:end;text-decoration:none;text-decoration-line:none;text-decoration-color:#000000;letter-spacing:0px;word-spacing:0px;text-anchor:end;fill:url(#pattern26);fill-opacity:1;stroke:#000000;stroke-width:2.2664;stroke-linejoin:round;stroke-miterlimit:2"
           x="31.362078"
           y="46.262562"
           id="text6"><tspan
             sodipodi:role="line"
             id="tspan6"
             style="font-style:normal;font-variant:normal;font-weight:normal;font-stretch:normal;font-size:62.5973px;font-family:Bahnschrift;-inkscape-font-specification:'Bahnschrift, @wght=700';font-variant-ligatures:normal;font-variant-caps:normal;font-variant-numeric:normal;font-variant-east-asian:normal;font-variation-settings:'wght' 700;text-align:end;text-anchor:end;fill:url(#pattern26);fill-opacity:1;stroke:#000000;stroke-width:2.2664"
             x="31.362078"
             y="46.262562"
             dx="0">2</tspan></text>
        <text
           xml:space="preserve"
           style="font-style:normal;font-variant:normal;font-weight:normal;font-stretch:normal;font-size:26.1709px;line-height:110%;font-family:Bahnschrift;-inkscape-font-specification:'Bahnschrift, Normal';font-variant-ligatures:normal;font-variant-caps:normal;font-variant-numeric:normal;font-variant-east-asian:normal;text-align:center;text-decoration:none;text-decoration-line:none;text-decoration-color:#000000;letter-spacing:0px;word-spacing:0px;text-anchor:middle;opacity:0.25;fill:#000000;stroke-width:3.27137;stroke-linejoin:round;stroke-miterlimit:2"
           x="4.9325967"
           y="27.348377"
           id="text2"><tspan
             sodipodi:role="line"
             id="tspan2"
             style="font-style:normal;font-variant:normal;font-weight:normal;font-stretch:normal;font-size:26.1709px;font-family:Bahnschrift;-inkscape-font-specification:'Bahnschrift, Normal';font-variant-ligatures:normal;font-variant-caps:normal;font-variant-numeric:normal;font-variant-east-asian:normal;stroke-width:3.27137"
             x="4.9325967"
             y="27.348377">~</tspan></text>
      </g>
    </g>
    <g
       inkscape:groupmode="layer"
       id="layer6"
       inkscape:label="text"
       style="display:inline">
      <g
         id="g10"
         transform="matrix(0.80368261,0,0,0.80368261,-2.5247045,-7.7732799)">
        <g
           id="g6"
           transform="matrix(0.92826944,0,0,0.92826944,18.285265,13.529176)"
           style="fill:#000000;fill-opacity:1">
          <text
             xml:space="preserve"
             style="font-style:normal;font-variant:normal;font-weight:600;font-stretch:normal;font-size:22.3912px;line-height:110%;font-family:'Segoe UI';-inkscape-font-specification:'Segoe UI Semi-Bold';text-align:start;text-decoration:none;text-decoration-line:none;text-decoration-color:#000000;letter-spacing:0px;word-spacing:0px;text-anchor:start;fill:#000000;fill-opacity:1;stroke-width:2.79891;stroke-linejoin:round;stroke-miterlimit:2"
             x="20.247805"
             y="25.262278"
             id="text1"><tspan
               sodipodi:role="line"
               id="tspan1"
               style="font-style:normal;font-variant:normal;font-weight:bold;font-stretch:normal;font-family:'Segoe UI';-inkscape-font-specification:'Segoe UI Bold';text-align:start;text-anchor:start;fill:#000000;fill-opacity:1;stroke-width:2.79891"
               x="20.247805"
               y="25.262278">%<tspan
   style="font-style:normal;font-variant:normal;font-weight:600;font-stretch:normal;font-family:'Segoe UI';-inkscape-font-specification:'Segoe UI Semi-Bold'"
   id="tspan9">OFF</tspan></tspan></text>
        </g>
        <text
           xml:space="preserve"
           style="font-style:normal;font-variant:normal;font-weight:300;font-stretch:normal;font-size:5.3239px;line-height:110%;font-family:'Segoe UI';-inkscape-font-specification:'Segoe UI Light';font-variant-ligatures:normal;font-variant-caps:normal;font-variant-numeric:normal;font-variant-east-asian:normal;text-align:start;text-decoration:none;text-decoration-line:none;text-decoration-color:#000000;letter-spacing:0px;word-spacing:0px;text-anchor:start;fill:#000000;fill-opacity:1;stroke:none;stroke-width:0.608445;stroke-linejoin:round;stroke-miterlimit:2;stroke-dasharray:none"
           x="37.505371"
           y="42.600613"
           id="text13"><tspan
             sodipodi:role="line"
             id="tspan13"
             style="font-style:normal;font-variant:normal;font-weight:normal;font-stretch:normal;font-size:5.3239px;font-family:'Segoe UI';-inkscape-font-specification:'Segoe UI';text-align:start;text-anchor:start;fill:#000000;fill-opacity:1;stroke-width:0.608445"
             x="37.505371"
             y="42.600613"
             dx="0 0 0 0 0 0 0 0 0.81429964">LIMITED DISCOUNTED</tspan><tspan
             sodipodi:role="line"
             style="font-style:normal;font-variant:normal;font-weight:normal;font-stretch:normal;font-size:5.3239px;font-family:'Segoe UI';-inkscape-font-specification:'Segoe UI';text-align:start;text-anchor:start;fill:#000000;fill-opacity:1;stroke-width:0.608445"
             x="37.505371"
             y="48.456902"
             id="tspan10">INTRODUCTORY PRICE</tspan></text>
      </g>
      <g
         id="g15"
         transform="matrix(0.97872622,0,0,0.97872622,-120.26886,14.43652)">
        <text
           xml:space="preserve"
           style="font-style:normal;font-variant:normal;font-weight:600;font-stretch:normal;font-size:22.3912px;line-height:110%;font-family:'Segoe UI';-inkscape-font-specification:'Segoe UI Semi-Bold';text-align:center;text-decoration:none;text-decoration-line:none;text-decoration-color:#000000;letter-spacing:0px;word-spacing:0px;text-anchor:middle;fill:#000000;stroke-width:2.79891;stroke-linejoin:round;stroke-miterlimit:2"
           x="29.655825"
           y="25.262278"
           id="text14"><tspan
             sodipodi:role="line"
             id="tspan14"
             style="font-style:normal;font-variant:normal;font-weight:600;font-stretch:normal;font-family:'Segoe UI';-inkscape-font-specification:'Segoe UI Semi-Bold';stroke-width:2.79891"
             x="29.655825"
             y="25.262278">%</tspan></text>
        <text
           xml:space="preserve"
           style="font-style:normal;font-variant:normal;font-weight:normal;font-stretch:normal;font-size:9.65894px;line-height:110%;font-family:'Segoe UI';-inkscape-font-specification:'Segoe UI';text-align:center;text-decoration:none;text-decoration-line:none;text-decoration-color:#000000;letter-spacing:0px;word-spacing:0px;text-anchor:middle;fill:#000000;stroke:none;stroke-width:0.0396875;stroke-linejoin:round;stroke-miterlimit:2;stroke-dasharray:none"
           x="29.686909"
           y="33.557743"
           id="text15"><tspan
             sodipodi:role="line"
             id="tspan15"
             style="font-style:normal;font-variant:normal;font-weight:bold;font-stretch:normal;font-family:'Segoe UI';-inkscape-font-specification:'Segoe UI Bold';letter-spacing:0px;stroke:none;stroke-width:0.0396875;stroke-dasharray:none"
             x="29.686909"
             y="33.557743">OFF</tspan></text>
      </g>
      <g
         id="g5"
         transform="matrix(0.97872622,0,0,0.97872622,17.213977,76.558839)"
         style="fill:#000000;fill-opacity:1">
        <text
           xml:space="preserve"
           style="font-style:normal;font-variant:normal;font-weight:600;font-stretch:normal;font-size:22.3912px;line-height:110%;font-family:'Segoe UI';-inkscape-font-specification:'Segoe UI Semi-Bold';text-align:start;text-decoration:none;text-decoration-line:none;text-decoration-color:#000000;letter-spacing:0px;word-spacing:0px;text-anchor:start;fill:#000000;fill-opacity:1;stroke-width:2.79891;stroke-linejoin:round;stroke-miterlimit:2"
           x="20.247805"
           y="25.262278"
           id="text5"><tspan
             sodipodi:role="line"
             id="tspan5"
             style="font-style:normal;font-variant:normal;font-weight:600;font-stretch:normal;font-family:'Segoe UI';-inkscape-font-specification:'Segoe UI Semi-Bold';text-align:start;text-anchor:start;fill:#000000;fill-opacity:1;stroke-width:2.79891"
             x="20.247805"
             y="25.262278"><tspan
               style="font-style:normal;font-variant:normal;font-weight:bold;font-stretch:normal;font-family:'Segoe UI';-inkscape-font-specification:'Segoe UI Bold';fill:#000000;fill-opacity:1"
               id="tspan3">%</tspan><tspan
               style="font-style:normal;font-variant:normal;font-weight:300;font-stretch:normal;font-family:'Segoe UI';-inkscape-font-specification:'Segoe UI Light';fill:#000000;fill-opacity:1"
               id="tspan4">OFF</tspan></tspan></text>
      </g>
      <text
         xml:space="preserve"
         style="font-style:normal;font-variant:normal;font-weight:300;font-stretch:normal;font-size:9.68715px;line-height:110%;font-family:'Segoe UI';-inkscape-font-specification:'Segoe UI Light';font-variant-ligatures:normal;font-variant-caps:normal;font-variant-numeric:normal;font-variant-east-asian:normal;text-align:start;text-decoration:none;text-decoration-line:none;text-decoration-color:#000000;letter-spacing:0px;word-spacing:0px;text-anchor:start;fill:#000000;fill-opacity:1;stroke:none;stroke-width:1.1071;stroke-linejoin:round;stroke-miterlimit:2;stroke-dasharray:none"
         x="38.861931"
         y="110.71796"
         id="text7"><tspan
           sodipodi:role="line"
           id="tspan7"
           style="font-style:normal;font-variant:normal;font-weight:300;font-stretch:normal;font-size:9.68715px;font-family:'Segoe UI';-inkscape-font-specification:'Segoe UI Light';text-align:start;text-anchor:start;fill:#000000;fill-opacity:1;stroke-width:1.1071"
           x="38.861931"
           y="110.71796">Time limited introductory price</tspan></text>
    </g>
  </g>
  <g
     inkscape:groupmode="layer"
     id="layer1"
     inkscape:label="shadow">
    <rect
       style="opacity:0.1;fill:url(#linearGradient28);fill-opacity:1;stroke:none;stroke-width:0.328014;stroke-linecap:round;stroke-linejoin:round;stroke-miterlimit:2"
       id="rect27"
       width="162.98334"
       height="5.2916665"
       x="68.791664"
       y="-39.6875"
       rx="0"
       ry="0"
       inkscape:export-filename="shadow.png"
       inkscape:export-xdpi="107.85696"
       inkscape:export-ydpi="107.85696" />
  </g>
  <g
     inkscape:groupmode="layer"
     id="layer7"
     inkscape:label="colors"
     style="display:inline">
    <rect
       style="fill:#0431d0;fill-opacity:1;stroke:none;stroke-width:0.448789;stroke-linejoin:round;stroke-miterlimit:2;stroke-dasharray:none;stroke-opacity:1"
       id="rect18"
       width="26.458334"
       height="26.458334"
       x="1.7763568e-15"
       y="-52.916668"
       rx="0"
       ry="0" />
    <rect
       style="fill:#fbce2f;fill-opacity:1;stroke:none;stroke-width:0.448789;stroke-linejoin:round;stroke-miterlimit:2;stroke-dasharray:none;stroke-opacity:1"
       id="rect19"
       width="26.458334"
       height="26.458334"
       x="26.458334"
       y="-52.916668"
       rx="0"
       ry="0" />
    <rect
       style="fill:#000000;fill-opacity:1;stroke:none;stroke-width:0.448789;stroke-linejoin:round;stroke-miterlimit:2;stroke-dasharray:none;stroke-opacity:1"
       id="rect35"
       width="26.458334"
       height="26.458334"
       x="-26.458332"
       y="-52.916668"
       rx="0"
       ry="0" />
  </g>
</svg>
