<svg id="logo-27" width="154" height="34" viewBox="0 0 154 34" fill="none" xmlns="http://www.w3.org/2000/svg"> <path d="M45.1094 22.6914C45.1094 23.4336 44.957 24.0039 44.6523 24.4023C44.3555 24.8008 43.8594 25 43.1641 25C42.5078 25 42.043 24.8008 41.7695 24.4023C41.5039 24.0039 41.3711 23.4336 41.3711 22.6914V10.3047C41.3711 9.5625 41.5039 8.99219 41.7695 8.59375C42.043 8.19531 42.5078 7.99609 43.1641 7.99609C43.8594 7.99609 44.3555 8.19531 44.6523 8.59375C44.957 8.99219 45.1094 9.5625 45.1094 10.3047V22.6914Z" class="cneutral" fill="#000000"></path> <path d="M46.2442 19.0938C46.2442 18.2656 46.377 17.4844 46.6427 16.75C46.9161 16.0078 47.3223 15.3594 47.8614 14.8047C48.4083 14.25 49.088 13.8086 49.9005 13.4805C50.7208 13.1523 51.6817 12.9883 52.7833 12.9883C53.838 12.9883 54.7716 13.1406 55.5841 13.4453C56.3966 13.75 57.0802 14.1758 57.6348 14.7227C58.1895 15.2617 58.6114 15.9062 58.9005 16.6562C59.1895 17.3984 59.3341 18.2109 59.3341 19.0938C59.3341 19.9141 59.1973 20.6914 58.9239 21.4258C58.6505 22.1523 58.2403 22.793 57.6934 23.3477C57.1466 23.8945 56.463 24.332 55.6427 24.6602C54.8223 24.9805 53.8692 25.1406 52.7833 25.1406C51.713 25.1406 50.7677 24.9883 49.9473 24.6836C49.1348 24.3711 48.4513 23.9453 47.8966 23.4062C47.3497 22.8594 46.9356 22.2188 46.6544 21.4844C46.3809 20.7422 46.2442 19.9453 46.2442 19.0938ZM50.1466 19.0938C50.1466 19.6094 50.1934 20.1016 50.2872 20.5703C50.3809 21.0312 50.5294 21.4375 50.7325 21.7891C50.9434 22.1406 51.2169 22.4219 51.5528 22.6328C51.8888 22.8359 52.2989 22.9375 52.7833 22.9375C53.2286 22.9375 53.6153 22.8438 53.9434 22.6562C54.2794 22.4688 54.5528 22.207 54.7638 21.8711C54.9825 21.5352 55.1466 21.1328 55.2559 20.6641C55.3653 20.1875 55.42 19.6641 55.42 19.0938C55.42 18.5781 55.3692 18.0898 55.2677 17.6289C55.1739 17.1602 55.0216 16.75 54.8106 16.3984C54.5997 16.0391 54.3263 15.7578 53.9903 15.5547C53.6622 15.3438 53.2598 15.2383 52.7833 15.2383C52.3067 15.2383 51.9005 15.3398 51.5645 15.543C51.2286 15.7461 50.9552 16.0234 50.7442 16.375C50.5333 16.7266 50.3809 17.1367 50.2872 17.6055C50.1934 18.0742 50.1466 18.5703 50.1466 19.0938Z" class="cneutral" fill="#000000"></path> <path d="M68.9533 22.7383C68.7423 23.1289 68.4845 23.4609 68.1798 23.7344C67.883 24.0078 67.5509 24.2344 67.1838 24.4141C66.8244 24.5859 66.4377 24.7148 66.0236 24.8008C65.6173 24.8789 65.1994 24.918 64.7697 24.918C64.0509 24.918 63.3947 24.7891 62.8009 24.5312C62.2072 24.2734 61.6955 23.9023 61.2658 23.418C60.8439 22.9258 60.5158 22.3242 60.2814 21.6133C60.047 20.9023 59.9298 20.0898 59.9298 19.1758C59.9298 18.3164 60.0392 17.5117 60.258 16.7617C60.4767 16.0117 60.7931 15.3594 61.2072 14.8047C61.6291 14.25 62.1447 13.8125 62.7541 13.4922C63.3634 13.1719 64.0588 13.0117 64.84 13.0117C65.7306 13.0117 66.5197 13.1836 67.2072 13.5273C67.9025 13.8711 68.5002 14.4336 69.0002 15.2148V14.9102C69.0002 14.3477 69.1525 13.9258 69.4572 13.6445C69.7697 13.3555 70.1994 13.2109 70.7463 13.2109C71.0744 13.2109 71.3517 13.2656 71.5783 13.375C71.8048 13.4766 71.9845 13.6328 72.1173 13.8438C72.2502 14.0469 72.3439 14.3008 72.3986 14.6055C72.4611 14.9023 72.4923 15.2422 72.4923 15.625V23.4766C72.4923 24.4297 72.3713 25.2812 72.1291 26.0312C71.8947 26.7812 71.5275 27.4141 71.0275 27.9297C70.5275 28.4453 69.8869 28.8359 69.1056 29.1016C68.3244 29.375 67.3947 29.5117 66.3166 29.5117C65.5588 29.5117 64.8869 29.4766 64.3009 29.4062C63.7228 29.3438 63.2228 29.2461 62.8009 29.1133C62.3791 28.9648 62.0588 28.8008 61.84 28.6211C61.6291 28.4414 61.5236 28.207 61.5236 27.918C61.5236 27.7539 61.547 27.5977 61.5939 27.4492C61.6408 27.3008 61.7111 27.168 61.8048 27.0508C61.9064 26.9414 62.0353 26.8516 62.1916 26.7812C62.3556 26.7188 62.5548 26.6875 62.7892 26.6875C63.0392 26.6875 63.2892 26.7031 63.5392 26.7344C63.797 26.7656 64.0627 26.7969 64.3361 26.8281C64.6173 26.8672 64.9103 26.9023 65.215 26.9336C65.5275 26.9648 65.8634 26.9805 66.2228 26.9805C66.6525 26.9805 67.0353 26.9375 67.3713 26.8516C67.7072 26.7656 67.9923 26.6133 68.2267 26.3945C68.4611 26.1758 68.6408 25.8828 68.7658 25.5156C68.8908 25.1562 68.9533 24.6953 68.9533 24.1328V22.7383ZM68.9533 19.0938C68.9533 18.5234 68.9103 18.0039 68.8244 17.5352C68.7463 17.0664 68.6095 16.668 68.4142 16.3398C68.2189 16.0039 67.9572 15.7461 67.6291 15.5664C67.3009 15.3789 66.8908 15.2852 66.3986 15.2852C65.9142 15.2852 65.5119 15.3828 65.1916 15.5781C64.8791 15.7734 64.6291 16.043 64.4416 16.3867C64.2541 16.7305 64.1213 17.1328 64.0431 17.5938C63.9728 18.0547 63.9377 18.5469 63.9377 19.0703C63.9377 20.2656 64.1486 21.1641 64.5705 21.7656C64.9923 22.3672 65.6056 22.668 66.4103 22.668C66.7853 22.6602 67.1252 22.5898 67.4298 22.457C67.7423 22.3164 68.0119 22.1016 68.2384 21.8125C68.465 21.5234 68.6408 21.1562 68.7658 20.7109C68.8908 20.2656 68.9533 19.7266 68.9533 19.0938Z" class="cneutral" fill="#000000"></path> <path d="M73.5686 19.0938C73.5686 18.2656 73.7014 17.4844 73.967 16.75C74.2405 16.0078 74.6467 15.3594 75.1858 14.8047C75.7327 14.25 76.4123 13.8086 77.2248 13.4805C78.0452 13.1523 79.0061 12.9883 80.1077 12.9883C81.1623 12.9883 82.0959 13.1406 82.9084 13.4453C83.7209 13.75 84.4045 14.1758 84.9592 14.7227C85.5139 15.2617 85.9358 15.9062 86.2248 16.6562C86.5139 17.3984 86.6584 18.2109 86.6584 19.0938C86.6584 19.9141 86.5217 20.6914 86.2483 21.4258C85.9748 22.1523 85.5647 22.793 85.0178 23.3477C84.4709 23.8945 83.7873 24.332 82.967 24.6602C82.1467 24.9805 81.1936 25.1406 80.1077 25.1406C79.0373 25.1406 78.092 24.9883 77.2717 24.6836C76.4592 24.3711 75.7756 23.9453 75.2209 23.4062C74.6741 22.8594 74.26 22.2188 73.9787 21.4844C73.7053 20.7422 73.5686 19.9453 73.5686 19.0938ZM77.4709 19.0938C77.4709 19.6094 77.5178 20.1016 77.6116 20.5703C77.7053 21.0312 77.8537 21.4375 78.0569 21.7891C78.2678 22.1406 78.5412 22.4219 78.8772 22.6328C79.2131 22.8359 79.6233 22.9375 80.1077 22.9375C80.553 22.9375 80.9397 22.8438 81.2678 22.6562C81.6037 22.4688 81.8772 22.207 82.0881 21.8711C82.3069 21.5352 82.4709 21.1328 82.5803 20.6641C82.6897 20.1875 82.7444 19.6641 82.7444 19.0938C82.7444 18.5781 82.6936 18.0898 82.592 17.6289C82.4983 17.1602 82.3459 16.75 82.135 16.3984C81.9241 16.0391 81.6506 15.7578 81.3147 15.5547C80.9866 15.3438 80.5842 15.2383 80.1077 15.2383C79.6311 15.2383 79.2248 15.3398 78.8889 15.543C78.553 15.7461 78.2795 16.0234 78.0686 16.375C77.8577 16.7266 77.7053 17.1367 77.6116 17.6055C77.5178 18.0742 77.4709 18.5703 77.4709 19.0938Z" class="cneutral" fill="#000000"></path> <path d="M91.6839 9.03906C91.6839 9.29688 91.6253 9.52734 91.5081 9.73047C91.3909 9.92578 91.2386 10.0898 91.0511 10.2227C90.8636 10.3555 90.6448 10.457 90.3948 10.5273C90.1527 10.5898 89.9027 10.6211 89.6448 10.6211C89.3714 10.6211 89.1097 10.5859 88.8597 10.5156C88.6175 10.4453 88.4027 10.3438 88.2152 10.2109C88.0277 10.0703 87.8792 9.90234 87.7698 9.70703C87.6605 9.51172 87.6058 9.28906 87.6058 9.03906C87.6058 8.8125 87.6566 8.60547 87.7581 8.41797C87.8675 8.22266 88.012 8.05469 88.1917 7.91406C88.3714 7.77344 88.5863 7.66406 88.8363 7.58594C89.0863 7.50781 89.3597 7.46875 89.6566 7.46875C89.9144 7.46875 90.1644 7.50391 90.4066 7.57422C90.6566 7.64453 90.8753 7.74609 91.0628 7.87891C91.2503 8.01172 91.3988 8.17578 91.5081 8.37109C91.6253 8.56641 91.6839 8.78906 91.6839 9.03906ZM91.5081 22.6914C91.5081 23.4336 91.3558 24.0039 91.0511 24.4023C90.7542 24.8008 90.2581 25 89.5628 25C88.9066 25 88.4417 24.8008 88.1683 24.4023C87.9027 24.0039 87.7698 23.4336 87.7698 22.6914V15.5195C87.7698 14.7773 87.9027 14.207 88.1683 13.8086C88.4417 13.4102 88.9066 13.2109 89.5628 13.2109C90.2581 13.2109 90.7542 13.4102 91.0511 13.8086C91.3558 14.207 91.5081 14.7773 91.5081 15.5195V22.6914Z" class="cneutral" fill="#000000"></path> <path d="M96.8969 19.0703C96.8969 19.5938 96.9359 20.082 97.0141 20.5352C97.1 20.9883 97.2406 21.3867 97.4359 21.7305C97.6391 22.0664 97.9047 22.332 98.2328 22.5273C98.5687 22.7227 98.9828 22.8203 99.475 22.8203C99.9281 22.8203 100.307 22.7266 100.612 22.5391C100.924 22.3438 101.174 22.0781 101.362 21.7422C101.549 21.3984 101.682 20.9961 101.76 20.5352C101.846 20.0742 101.889 19.5742 101.889 19.0352C101.889 18.6055 101.858 18.168 101.795 17.7227C101.733 17.2695 101.616 16.8594 101.444 16.4922C101.272 16.125 101.034 15.8242 100.729 15.5898C100.424 15.3555 100.026 15.2383 99.5336 15.2383C99.0414 15.2383 98.6234 15.3164 98.2797 15.4727C97.9437 15.6289 97.6703 15.8672 97.4594 16.1875C97.2562 16.5078 97.1117 16.9102 97.0258 17.3945C96.9398 17.8711 96.8969 18.4297 96.8969 19.0703ZM96.8852 15.5195C97.0805 15.1055 97.3305 14.7422 97.6352 14.4297C97.9398 14.1172 98.2758 13.8555 98.643 13.6445C99.0102 13.4336 99.393 13.2773 99.7914 13.1758C100.198 13.0664 100.6 13.0117 100.998 13.0117C101.717 13.0117 102.366 13.1719 102.944 13.4922C103.522 13.8125 104.014 14.25 104.42 14.8047C104.834 15.3516 105.151 16 105.37 16.75C105.588 17.4922 105.698 18.2891 105.698 19.1406C105.698 20.0234 105.58 20.832 105.346 21.5664C105.12 22.3008 104.795 22.9336 104.373 23.4648C103.959 23.9883 103.459 24.3984 102.873 24.6953C102.295 24.9922 101.651 25.1406 100.94 25.1406C100.065 25.1406 99.2836 24.9375 98.5961 24.5312C97.9086 24.125 97.3383 23.5547 96.8852 22.8203V27.0391C96.8852 27.7812 96.7328 28.3516 96.4281 28.75C96.1312 29.1484 95.6352 29.3477 94.9398 29.3477C94.2836 29.3477 93.8187 29.1484 93.5453 28.75C93.2797 28.3516 93.1469 27.7812 93.1469 27.0391V15.5195C93.1469 14.7773 93.2797 14.207 93.5453 13.8086C93.8187 13.4102 94.2836 13.2109 94.9398 13.2109C95.6352 13.2109 96.1312 13.4102 96.4281 13.8086C96.7328 14.207 96.8852 14.7773 96.8852 15.5195Z" class="cneutral" fill="#000000"></path> <path d="M109.821 16.3516C109.821 16.6562 109.954 16.8945 110.219 17.0664C110.485 17.2305 110.852 17.3672 111.321 17.4766C111.766 17.5781 112.223 17.6758 112.692 17.7695C113.161 17.8633 113.618 17.9727 114.063 18.0977C114.508 18.2148 114.926 18.3555 115.317 18.5195C115.707 18.6836 116.051 18.8906 116.348 19.1406C116.645 19.3828 116.879 19.6797 117.051 20.0312C117.223 20.375 117.309 20.7891 117.309 21.2734C117.309 21.8828 117.184 22.4258 116.934 22.9023C116.684 23.3711 116.329 23.7695 115.868 24.0977C115.415 24.4258 114.872 24.6797 114.239 24.8594C113.606 25.0391 112.907 25.1328 112.141 25.1406C111.415 25.1406 110.715 25.0938 110.043 25C109.372 24.9141 108.774 24.7773 108.25 24.5898C107.735 24.4023 107.321 24.1719 107.008 23.8984C106.696 23.6172 106.54 23.2891 106.54 22.9141C106.54 22.5859 106.645 22.332 106.856 22.1523C107.067 21.9727 107.336 21.8828 107.665 21.8828C107.79 21.8828 107.938 21.9062 108.11 21.9531C108.282 22 108.469 22.0586 108.672 22.1289C108.875 22.1992 109.09 22.2773 109.317 22.3633C109.551 22.4414 109.793 22.5117 110.043 22.5742C110.356 22.6602 110.676 22.7305 111.004 22.7852C111.34 22.832 111.684 22.8555 112.036 22.8555C112.254 22.8555 112.469 22.8359 112.68 22.7969C112.891 22.75 113.079 22.6836 113.243 22.5977C113.415 22.5039 113.555 22.3867 113.665 22.2461C113.774 22.1055 113.84 21.9336 113.864 21.7305C113.887 21.6836 113.907 21.6367 113.922 21.5898C113.938 21.543 113.946 21.4883 113.946 21.4258C113.946 21.207 113.844 21.0117 113.641 20.8398C113.446 20.668 113.168 20.5312 112.809 20.4297C112.207 20.2891 111.633 20.1602 111.086 20.043C110.54 19.9258 110.032 19.8008 109.563 19.668C109.102 19.5352 108.68 19.3828 108.297 19.2109C107.922 19.0391 107.602 18.8281 107.336 18.5781C107.079 18.3281 106.875 18.0273 106.727 17.6758C106.586 17.3242 106.516 16.8984 106.516 16.3984C106.516 15.8594 106.637 15.3789 106.879 14.957C107.129 14.5273 107.485 14.168 107.946 13.8789C108.407 13.5898 108.965 13.3711 109.622 13.2227C110.278 13.0664 111.02 12.9883 111.848 12.9883C113.332 12.9883 114.461 13.168 115.235 13.5273C116.016 13.8789 116.407 14.3398 116.407 14.9102C116.407 15.2305 116.301 15.4766 116.09 15.6484C115.879 15.8125 115.625 15.8945 115.329 15.8945C115.172 15.8945 115.008 15.8672 114.836 15.8125C114.672 15.75 114.473 15.6836 114.239 15.6133C114.004 15.5352 113.723 15.4688 113.395 15.4141C113.075 15.3516 112.676 15.3203 112.2 15.3203C111.84 15.3203 111.512 15.3359 111.215 15.3672C110.926 15.3984 110.676 15.4531 110.465 15.5312C110.262 15.6094 110.102 15.7148 109.985 15.8477C109.875 15.9805 109.821 16.1484 109.821 16.3516Z" class="cneutral" fill="#000000"></path> <path d="M122.065 20.6523C122.065 21.0195 122.112 21.3398 122.206 21.6133C122.307 21.8867 122.444 22.1172 122.616 22.3047C122.788 22.4844 122.987 22.6211 123.213 22.7148C123.448 22.8008 123.698 22.8438 123.963 22.8438C124.276 22.8438 124.577 22.7969 124.866 22.7031C125.155 22.6094 125.409 22.4648 125.628 22.2695C125.854 22.0742 126.034 21.8281 126.167 21.5312C126.299 21.2344 126.366 20.8867 126.366 20.4883V15.5195C126.366 14.7773 126.499 14.207 126.764 13.8086C127.038 13.4102 127.503 13.2109 128.159 13.2109C128.854 13.2109 129.35 13.4102 129.647 13.8086C129.952 14.207 130.104 14.7773 130.104 15.5195V22.6914C130.104 23.4336 129.952 24.0039 129.647 24.4023C129.35 24.8008 128.854 25 128.159 25C127.503 25 127.038 24.8008 126.764 24.4023C126.499 24.0039 126.366 23.4336 126.366 22.6914C126.202 23.0508 125.987 23.3789 125.721 23.6758C125.463 23.9727 125.159 24.2305 124.807 24.4492C124.463 24.6602 124.081 24.8242 123.659 24.9414C123.245 25.0586 122.795 25.1172 122.311 25.1172C121.788 25.1172 121.284 25.0273 120.799 24.8477C120.323 24.6602 119.901 24.3867 119.534 24.0273C119.167 23.6602 118.874 23.207 118.655 22.668C118.436 22.1289 118.327 21.5 118.327 20.7812V15.5195C118.327 14.7773 118.46 14.207 118.725 13.8086C118.999 13.4102 119.463 13.2109 120.12 13.2109C120.815 13.2109 121.311 13.4102 121.608 13.8086C121.913 14.207 122.065 14.7773 122.065 15.5195V20.6523Z" class="cneutral" fill="#000000"></path> <path d="M131.801 15.5195C131.801 14.7773 131.934 14.207 132.2 13.8086C132.473 13.4102 132.938 13.2109 133.594 13.2109C134.29 13.2109 134.786 13.4102 135.083 13.8086C135.387 14.207 135.54 14.7773 135.54 15.5195C135.696 15.1445 135.907 14.8047 136.173 14.5C136.446 14.1875 136.755 13.9219 137.098 13.7031C137.45 13.4844 137.829 13.3164 138.235 13.1992C138.641 13.0742 139.063 13.0117 139.501 13.0117C139.907 13.0117 140.305 13.0664 140.696 13.1758C141.094 13.2773 141.462 13.4453 141.798 13.6797C142.141 13.9062 142.442 14.1953 142.7 14.5469C142.958 14.8984 143.157 15.3203 143.298 15.8125C143.54 15.2891 143.825 14.8477 144.153 14.4883C144.481 14.1289 144.837 13.8398 145.219 13.6211C145.602 13.4023 146.001 13.2461 146.415 13.1523C146.837 13.0586 147.258 13.0117 147.68 13.0117C148.18 13.0117 148.657 13.1016 149.11 13.2812C149.571 13.4609 149.973 13.7344 150.317 14.1016C150.669 14.4609 150.946 14.918 151.149 15.4727C151.36 16.0195 151.465 16.6602 151.465 17.3945V22.6914C151.465 23.4336 151.313 24.0039 151.008 24.4023C150.712 24.8008 150.215 25 149.52 25C148.864 25 148.399 24.8008 148.126 24.4023C147.86 24.0039 147.727 23.4336 147.727 22.6914V17.5586C147.727 17.207 147.68 16.8945 147.587 16.6211C147.493 16.3398 147.36 16.1055 147.188 15.918C147.024 15.7227 146.829 15.5781 146.602 15.4844C146.376 15.3828 146.133 15.332 145.876 15.332C145.555 15.332 145.251 15.3828 144.962 15.4844C144.673 15.5859 144.419 15.7422 144.2 15.9531C143.989 16.1641 143.817 16.4336 143.684 16.7617C143.559 17.0898 143.497 17.4844 143.497 17.9453V22.6914C143.497 23.4336 143.344 24.0039 143.04 24.4023C142.743 24.8008 142.247 25 141.551 25C140.895 25 140.43 24.8008 140.157 24.4023C139.891 24.0039 139.758 23.4336 139.758 22.6914V17.7812C139.758 16.9766 139.59 16.3672 139.255 15.9531C138.926 15.5391 138.477 15.332 137.907 15.332C137.571 15.332 137.258 15.3867 136.969 15.4961C136.68 15.6055 136.43 15.7656 136.219 15.9766C136.008 16.1875 135.84 16.4492 135.715 16.7617C135.598 17.0742 135.54 17.4336 135.54 17.8398V22.6914C135.54 23.4336 135.387 24.0039 135.083 24.4023C134.786 24.8008 134.29 25 133.594 25C132.938 25 132.473 24.8008 132.2 24.4023C131.934 24.0039 131.801 23.4336 131.801 22.6914V15.5195Z" class="cneutral" fill="#000000"></path> <path d="M17 23C13.6863 23 11 20.3137 11 17C11 13.6863 13.6863 11 17 11C20.3137 11 23 13.6863 23 17C23 20.3137 20.3137 23 17 23Z" class="ccustom" fill="#666666"></path> <path d="M5.37623 19.0496C3.63748 19.3562 2.44566 21.0358 3.11311 22.6704C4.04495 24.9524 5.53158 26.9856 7.45889 28.5744C10.2148 30.8461 13.6908 32.06 17.2618 31.9977C20.8328 31.9354 24.2644 30.6009 26.9394 28.2343C28.81 26.5793 30.2248 24.4954 31.0765 22.1823C31.6865 20.5254 30.4367 18.8884 28.6883 18.6427C26.94 18.397 25.3702 19.6696 24.5066 21.2096C24.0385 22.0443 23.4308 22.8016 22.7028 23.4457C21.168 24.8036 19.1991 25.5692 17.1503 25.605C15.1014 25.6407 13.107 24.9443 11.5258 23.6408C10.7757 23.0225 10.142 22.2869 9.64502 21.469C8.72823 19.9601 7.11498 18.743 5.37623 19.0496Z" class="ccustom" fill="#666666"></path> <path d="M31.884 18.8745C31.9606 18.2604 32 17.6348 32 17C32 8.71573 25.2843 2 17 2C8.71573 2 2 8.71573 2 17C2 17.8147 2.06495 18.6142 2.18996 19.3937C2.87894 18.4505 3.95426 17.7772 5.11576 17.5724C6.37245 17.3508 7.51458 17.6556 8.48027 18.2253C8.42322 17.8251 8.3937 17.416 8.3937 17C8.3937 12.2469 12.2469 8.3937 17 8.3937C21.7531 8.3937 25.6063 12.2469 25.6063 17C25.6063 17.3134 25.5895 17.6229 25.5569 17.9276C26.5022 17.3243 27.6332 16.9796 28.8971 17.1573C30.0647 17.3214 31.1625 17.9564 31.884 18.8745Z" class="ccompli1" fill="#444444"></path> </svg>