<svg id="logo-24" width="97" height="50" viewBox="0 0 97 50" fill="none" xmlns="http://www.w3.org/2000/svg"> <path d="M24.5786 24.5765L24.7772 24.5345H41.2954L47.5023 30.7414H30.7437L24.5786 24.5765Z" class="ccustom" fill="#666666"></path> <path d="M19.2609 24.5344L2.5022 24.5345L8.70908 30.7414H19.2607L19.2609 24.5344Z" class="ccustom" fill="#666666"></path> <path d="M53.2702 6.70471H55.8443V14.7032H60.2654V16.8701H53.2702V6.70471Z" class="ccustom" fill="#666666"></path> <path d="M64.9388 17.0882C64.0759 17.0882 63.32 16.9331 62.6699 16.6228C62.0204 16.3029 61.5163 15.8667 61.1575 15.314C60.8084 14.7517 60.6339 14.107 60.6339 13.3798C60.6339 12.6527 60.8084 12.0128 61.1575 11.4602C61.5163 10.8979 62.0204 10.4616 62.6699 10.1514C63.32 9.83138 64.0759 9.67145 64.9388 9.67145C65.8017 9.67145 66.5582 9.83138 67.2077 10.1514C67.8571 10.4616 68.3564 10.8979 68.7054 11.4602C69.0642 12.0128 69.2436 12.6527 69.2436 13.3798C69.2436 14.107 69.0642 14.7517 68.7054 15.314C68.3564 15.8667 67.8571 16.3029 67.2077 16.6228C66.5582 16.9331 65.8017 17.0882 64.9388 17.0882ZM64.9388 15.0959C65.4526 15.0959 65.8601 14.9456 66.1605 14.6451C66.4706 14.3348 66.6257 13.9131 66.6257 13.3798C66.6257 12.8466 66.4706 12.4297 66.1605 12.1291C65.8601 11.8189 65.4526 11.6638 64.9388 11.6638C64.4249 11.6638 64.0133 11.8189 63.7025 12.1291C63.4021 12.4297 63.2519 12.8466 63.2519 13.3798C63.2519 13.9131 63.4021 14.3348 63.7025 14.6451C64.0133 14.9456 64.4249 15.0959 64.9388 15.0959Z" class="ccustom" fill="#666666"></path> <path d="M74.0512 20.2149C73.586 20.2149 73.1159 20.1713 72.6403 20.084C72.1751 19.9968 71.7732 19.8804 71.4339 19.735V17.9608C72.1995 18.2904 73.0721 18.4553 74.0512 18.4553C74.759 18.4553 75.268 18.3098 75.5781 18.0189C75.898 17.7281 76.0579 17.3016 76.0579 16.7392V16.3174C75.777 16.5598 75.428 16.7489 75.0114 16.8846C74.604 17.0204 74.1673 17.0882 73.7021 17.0882C72.9657 17.0882 72.3156 16.9331 71.7538 16.6228C71.1912 16.3127 70.7504 15.8763 70.4298 15.314C70.1197 14.7517 69.9647 14.107 69.9647 13.3798C69.9647 12.643 70.1197 11.9934 70.4298 11.4311C70.7407 10.8688 71.1766 10.4374 71.7392 10.1368C72.301 9.82658 72.9463 9.67145 73.6729 9.67145C74.6721 9.67145 75.4961 9.97685 76.1455 10.5876V9.88958H78.6175V16.3902C78.6175 17.6021 78.2448 18.5425 77.498 19.2115C76.7609 19.8804 75.6122 20.2149 74.0512 20.2149ZM74.3418 15.1104C74.7396 15.1104 75.0935 15.0086 75.4036 14.805C75.7137 14.6014 75.9321 14.33 76.0579 13.9906V12.7691C75.9223 12.4297 75.6991 12.1631 75.389 11.9692C75.0789 11.7656 74.7298 11.6638 74.3418 11.6638C73.8189 11.6638 73.3969 11.8189 73.077 12.1291C72.7571 12.4297 72.5972 12.8418 72.5972 13.3653C72.5972 13.8985 72.7571 14.3251 73.077 14.6451C73.3969 14.9553 73.8189 15.1104 74.3418 15.1104Z" class="ccustom" fill="#666666"></path> <path d="M83.5717 17.0882C82.7088 17.0882 81.9523 16.9331 81.3028 16.6228C80.6534 16.3029 80.1493 15.8667 79.7905 15.314C79.4414 14.7517 79.2669 14.107 79.2669 13.3798C79.2669 12.6527 79.4414 12.0128 79.7905 11.4602C80.1493 10.8979 80.6534 10.4616 81.3028 10.1514C81.9523 9.83138 82.7088 9.67145 83.5717 9.67145C84.4346 9.67145 85.1905 9.83138 85.8406 10.1514C86.4901 10.4616 86.9893 10.8979 87.3384 11.4602C87.6972 12.0128 87.8766 12.6527 87.8766 13.3798C87.8766 14.107 87.6972 14.7517 87.3384 15.314C86.9893 15.8667 86.4901 16.3029 85.8406 16.6228C85.1905 16.9331 84.4346 17.0882 83.5717 17.0882ZM83.5717 15.0959C84.0856 15.0959 84.4924 14.9456 84.7934 14.6451C85.1036 14.3348 85.2586 13.9131 85.2586 13.3798C85.2586 12.8466 85.1036 12.4297 84.7934 12.1291C84.4924 11.8189 84.0856 11.6638 83.5717 11.6638C83.0579 11.6638 82.6455 11.8189 82.3354 12.1291C82.035 12.4297 81.8848 12.8466 81.8848 13.3798C81.8848 13.9131 82.035 14.3348 82.3354 14.6451C82.6455 14.9456 83.0579 15.0959 83.5717 15.0959Z" class="ccustom" fill="#666666"></path> <path d="M53.2702 20.6115H55.8443V30.7769H53.2702V20.6115Z" class="ccustom" fill="#666666"></path> <path d="M57.1474 23.7964H59.6194V24.4944C60.2689 23.8837 61.0936 23.5783 62.0921 23.5783C62.8187 23.5783 63.464 23.7334 64.0258 24.0437C64.5883 24.3442 65.0243 24.7756 65.3351 25.3379C65.6453 25.8905 65.8003 26.5353 65.8003 27.2721C65.8003 27.9992 65.6453 28.6488 65.3351 29.2208C65.0243 29.7831 64.5883 30.2195 64.0258 30.5296C63.4737 30.8399 62.8284 30.995 62.0921 30.995C61.6262 30.995 61.1805 30.9223 60.7542 30.7769C60.337 30.6412 59.988 30.4521 59.7071 30.2097V33.9618H57.1474V23.7964ZM61.4232 29.0027C61.9467 29.0027 62.3681 28.8476 62.688 28.5373C63.0078 28.2271 63.1678 27.8053 63.1678 27.2721C63.1678 26.7389 63.0078 26.322 62.688 26.0214C62.3681 25.7112 61.9467 25.5561 61.4232 25.5561C61.0352 25.5561 60.6861 25.6579 60.376 25.8615C60.0658 26.0553 59.8426 26.322 59.7071 26.6613V27.8974C59.8426 28.2368 60.0658 28.5082 60.376 28.7118C60.6861 28.9058 61.0352 29.0027 61.4232 29.0027Z" class="ccustom" fill="#666666"></path> <path d="M69.6163 30.995C69.0537 30.995 68.4669 30.9368 67.8564 30.8205C67.2459 30.7139 66.7605 30.5588 66.4024 30.3552V28.4792C66.7994 28.7118 67.2744 28.9058 67.8272 29.0609C68.3897 29.2063 68.9035 29.279 69.3687 29.279C69.7081 29.279 69.9556 29.2547 70.1107 29.2063C70.2657 29.1578 70.3429 29.0609 70.3429 28.9154C70.3429 28.7991 70.2901 28.707 70.183 28.6392C70.0863 28.5616 69.9021 28.484 69.6309 28.4064C69.3687 28.3192 69.0635 28.2271 68.7144 28.1301C68.1227 27.9556 67.6575 27.7762 67.3182 27.592C66.9788 27.4078 66.7271 27.1752 66.5623 26.894C66.3975 26.6129 66.3148 26.2589 66.3148 25.8323C66.3148 25.0762 66.6103 24.5138 67.202 24.1455C67.8028 23.7673 68.6226 23.5783 69.6594 23.5783C70.1635 23.5783 70.692 23.6316 71.2448 23.7382C71.8073 23.8449 72.2287 23.9855 72.5103 24.16V26.0069C72.2189 25.813 71.8316 25.653 71.347 25.527C70.8714 25.401 70.4256 25.3379 70.0084 25.3379C69.6789 25.3379 69.4223 25.3718 69.238 25.4397C69.0537 25.4979 68.962 25.6046 68.962 25.7597C68.962 25.9051 69.0537 26.0166 69.238 26.0941C69.4223 26.1717 69.7519 26.2687 70.2268 26.385C70.5369 26.4625 70.6683 26.4965 70.6196 26.4868C71.2399 26.6516 71.7197 26.8358 72.059 27.0394C72.3983 27.2431 72.6361 27.4854 72.7717 27.7666C72.9171 28.038 72.9901 28.387 72.9901 28.8136C72.9901 29.4826 72.6994 30.0159 72.1174 30.4133C71.5451 30.8011 70.7114 30.995 69.6163 30.995Z" class="ccustom" fill="#666666"></path> <path d="M76.8117 30.995C75.8521 30.995 75.1297 30.7284 74.645 30.1952C74.1701 29.6619 73.9323 28.9591 73.9323 28.0865V23.7964H76.4919V27.7956C76.4919 28.6003 76.8555 29.0027 77.5822 29.0027C77.9124 29.0027 78.2128 28.9251 78.484 28.77C78.7559 28.6149 78.9784 28.387 79.1529 28.0865V23.7964H81.7125V30.7769H79.2405V30.0206C78.9401 30.3406 78.5765 30.583 78.1495 30.7478C77.7233 30.9126 77.2769 30.995 76.8117 30.995Z" class="ccustom" fill="#666666"></path> <path d="M83.0232 23.7964H85.3936V24.5526C85.6842 24.2424 86.0187 24.0049 86.397 23.84C86.7752 23.6655 87.1778 23.5783 87.6041 23.5783C88.1276 23.5783 88.5449 23.6558 88.855 23.8109C89.1748 23.9661 89.4314 24.1987 89.6254 24.509C89.9161 24.2181 90.27 23.9903 90.6872 23.8255C91.1037 23.6607 91.5258 23.5783 91.952 23.5783C92.8734 23.5783 93.5277 23.8158 93.9157 24.2908C94.3037 24.7562 94.4977 25.43 94.4977 26.3123V30.7769H92.0542V26.6759C92.0542 26.2881 91.9812 26.0069 91.8359 25.8323C91.6906 25.6579 91.4479 25.5706 91.1086 25.5706C90.6726 25.5706 90.3187 25.7258 90.0475 26.0359C90.0572 26.2008 90.0621 26.4529 90.0621 26.7922V30.7769H87.6187V26.5741C87.6187 26.2153 87.5554 25.9584 87.4295 25.8033C87.3037 25.6482 87.0805 25.5706 86.7606 25.5706C86.2662 25.5706 85.8393 25.8469 85.4812 26.3995V30.7769H83.0232V23.7964Z" class="ccustom" fill="#666666"></path> <path d="M24.7774 24.5345L24.5787 24.5766L30.7435 30.7414V47.5H25.4676L19.2607 41.2931H24.5366L24.5366 24.5344H19.2607V19.2587H24.5366L24.5366 2.5L30.7435 8.70689V19.2586L24.5366 19.2587V24.5344L24.7774 24.5345Z" class="ccompli1" fill="#444444"></path> <path d="M41.2955 24.5345L47.5024 30.7414V25.4655L41.2955 19.2586V24.5345Z" class="ccompli1" fill="#444444"></path> <path d="M53.6339 35.5485H57.4004C58.4667 35.5485 59.2955 35.8006 59.8873 36.3048C60.488 36.8089 60.7891 37.5554 60.7891 38.5443C60.7891 39.5429 60.4929 40.2895 59.9019 40.784C59.3101 41.2784 58.4764 41.5256 57.4004 41.5256H54.7682V45.7139H53.6339V35.5485ZM57.3132 40.5658C58.0404 40.5658 58.6127 40.4204 59.0292 40.1295C59.4464 39.829 59.6543 39.3006 59.6543 38.5443C59.6543 37.7784 59.4464 37.25 59.0292 36.9592C58.6127 36.6586 58.0404 36.5084 57.3132 36.5084H54.7682V40.5658H57.3132Z" class="ccompli1" fill="#444444"></path> <path d="M62.2403 34.9668H63.3598V45.7139H62.2403V34.9668Z" class="ccompli1" fill="#444444"></path> <path d="M68.2146 45.9321C67.2836 45.9321 66.566 45.68 66.0618 45.1758C65.5674 44.6717 65.3206 43.9979 65.3206 43.1544V38.7334H66.4401V43.2126C66.4401 44.4342 67.0749 45.045 68.3453 45.045C68.8787 45.045 69.3438 44.9286 69.7416 44.696C70.1484 44.4632 70.512 44.0948 70.8319 43.5907V38.7334H71.9521V45.7139H70.8611V44.6668C70.2311 45.5103 69.3487 45.9321 68.2146 45.9321Z" class="ccompli1" fill="#444444"></path> <path d="M76.414 45.9321C75.9579 45.9321 75.4684 45.8642 74.9448 45.7285C74.4212 45.6024 74.0144 45.4425 73.7231 45.2485V44.3033C74.0916 44.5263 74.5137 44.7056 74.9886 44.8413C75.4732 44.9771 75.9384 45.0449 76.3848 45.0449C76.9856 45.0449 77.4174 44.9625 77.6789 44.7977C77.9507 44.6232 78.0863 44.3663 78.0863 44.027C78.0863 43.7652 78.0279 43.5616 77.9118 43.4162C77.795 43.261 77.6017 43.1253 77.3298 43.009C77.0586 42.8926 76.6366 42.7569 76.065 42.6018C75.5025 42.4467 75.0519 42.2867 74.7125 42.1219C74.383 41.9473 74.1305 41.7292 73.956 41.4674C73.7815 41.2057 73.6946 40.8712 73.6946 40.464C73.6946 39.8338 73.9463 39.3539 74.4504 39.0243C74.9643 38.6849 75.6429 38.5153 76.4864 38.5153C76.9418 38.5153 77.3687 38.5589 77.7665 38.6461C78.1733 38.7237 78.5126 38.8352 78.7845 38.9807V39.9259C78.5028 39.7708 78.1635 39.6496 77.7665 39.5623C77.3687 39.4654 76.9564 39.4169 76.5302 39.4169C75.9676 39.4169 75.5414 39.4993 75.25 39.6641C74.9594 39.829 74.8141 40.0956 74.8141 40.464C74.8141 40.7161 74.8627 40.91 74.9594 41.0457C75.0665 41.1814 75.2549 41.3075 75.5268 41.4238C75.8077 41.5305 76.2541 41.6662 76.8646 41.831C77.7373 42.0734 78.3429 42.3594 78.6822 42.6891C79.0313 43.009 79.2058 43.455 79.2058 44.027C79.2058 44.6183 78.9736 45.0837 78.5077 45.4231C78.0523 45.7624 77.3541 45.9321 76.414 45.9321Z" class="ccompli1" fill="#444444"></path> </svg>