<svg id="logo-21" width="74" height="60" viewBox="0 0 74 60" fill="none" xmlns="http://www.w3.org/2000/svg"> <path d="M24.5459 20.621C24.5459 20.4686 24.5459 18.2513 24.5459 18.2513H23.2283C23.2283 18.2513 23.2283 20.4342 23.2283 20.5031C23.2283 20.9062 22.8547 21.1766 22.2254 21.1766C21.5666 21.1766 21.2077 20.916 21.2077 20.4981C21.2077 20.4293 21.2077 18.2513 21.2077 18.2513H19.8753C19.8753 18.2513 19.8753 20.3211 19.8753 20.4981C19.8753 21.6682 20.834 22.1648 22.1713 22.1648C23.602 22.1648 24.5459 21.6633 24.5459 20.621Z" class="ccustom" fill="#666666"></path> <path d="M28.9833 22.1107V21.0832H26.6333V18.2513H25.3009V22.1107H28.9833Z" class="ccustom" fill="#666666"></path> <path d="M32.943 19.2199V18.2513H28.3363V19.2199H29.9636V22.1107H31.3107V19.2199H32.943Z" class="ccustom" fill="#666666"></path> <path d="M34.7143 22.1107V18.2513H33.3623V22.1107H34.7143Z" class="ccustom" fill="#666666"></path> <path d="M40.9172 22.1107V18.2513H39.2505L38.1984 20.567L37.1955 18.2513H35.4747V22.1107H36.7284V20.0262L37.633 22.1107H38.754L39.6684 20.0262V22.1107H40.9172Z" class="ccustom" fill="#666666"></path> <path d="M43.0054 21.3978H45.09L45.4293 22.1107H46.8501L44.9032 18.2513H43.3152L41.2552 22.1107H42.6465L43.0054 21.3978ZM44.6721 20.5325H43.4381L43.9248 19.6033L44.0723 19.2494L44.21 19.5984L44.6721 20.5325Z" class="ccustom" fill="#666666"></path> <path d="M51.029 19.2199V18.2513H46.4225V19.2199H48.0498V22.1107H49.397V19.2199H51.029Z" class="ccustom" fill="#666666"></path> <path d="M55.509 22.1107V21.152H52.742V20.6505H55.396V19.7115H52.742V19.2149H55.475V18.2513H51.444V22.1107H55.509Z" class="ccustom" fill="#666666"></path> <path d="M29.9232 24.1623H28.6498C28.6498 24.1623 27.8189 26.591 27.8189 26.65C27.8189 26.591 27.0421 24.1623 27.0421 24.1623H25.6606C25.6606 24.1623 24.8887 26.591 24.8887 26.65C24.8887 26.591 24.0529 24.1623 24.0529 24.1623H22.6222L24.0677 28.0217H25.5082C25.5082 28.0217 26.285 25.7159 26.2899 25.652C26.2948 25.7159 27.0667 28.0217 27.0667 28.0217H28.5121L29.9232 24.1623Z" class="ccustom" fill="#666666"></path> <path d="M31.6655 28.0217V24.1623H30.3135V28.0217H31.6655Z" class="ccustom" fill="#666666"></path> <path d="M36.9245 28.0217V24.1623H35.6659V26.2616L33.8124 24.1623H32.4259V28.0217H33.6944V25.8732L35.6069 28.0217H36.9245Z" class="ccustom" fill="#666666"></path> <path d="M42.1914 28.0217V24.1623H40.9328V26.2616L39.0793 24.1623H37.6929V28.0217H38.9613V25.8732L40.8738 28.0217H42.1914Z" class="ccustom" fill="#666666"></path> <path d="M47.0257 28.0217V27.063H44.2578V26.5615H46.9126V25.6225H44.2578V25.1259H46.9913V24.1623H42.9598V28.0217H47.0257Z" class="ccustom" fill="#666666"></path> <path d="M52.223 25.3373C52.223 24.9883 52.139 24.7375 51.962 24.5556C51.731 24.3098 51.333 24.1623 50.723 24.1623H47.6506V28.0217H48.9633V26.6599H50.158L51.117 28.0217H52.582L51.417 26.4484C51.677 26.4091 51.889 26.2518 52.026 26.065C52.149 25.8929 52.223 25.6372 52.223 25.3373ZM50.945 25.4602C50.945 25.5242 50.935 25.6028 50.9 25.6618C50.851 25.7601 50.723 25.7995 50.512 25.7995H48.9682V25.0964H50.487C50.694 25.0964 50.832 25.1308 50.9 25.2587C50.935 25.3078 50.945 25.3865 50.945 25.4602Z" class="ccustom" fill="#666666"></path> <path d="M25.1002 31.8187C25.1002 31.7556 25.1002 29.9328 25.1002 29.9328H24.6399C24.6399 29.9328 24.6399 31.7481 24.6399 31.789C24.6399 32.227 24.2278 32.4758 23.6338 32.4758C22.9322 32.4758 22.5869 32.2085 22.5869 31.7853C22.5869 31.7444 22.5869 29.9328 22.5869 29.9328H22.1229C22.1229 29.9328 22.1229 31.6999 22.1229 31.7704C22.1229 32.5426 22.7243 32.8841 23.6153 32.8841C24.5359 32.8841 25.1002 32.5203 25.1002 31.8187Z" class="ccustom" fill="#666666"></path> <path d="M28.4031 32.847V32.4201H26.3947V29.9328H25.9307V32.847H28.4031Z" class="ccustom" fill="#666666"></path> <path d="M31.0399 30.356V29.9328H27.9437V30.356H29.2579V32.847H29.7257V30.356H31.0399Z" class="ccustom" fill="#666666"></path> <path d="M34.3395 30.7569C34.3395 30.549 34.2949 30.3968 34.217 30.2743C34.0796 30.0701 33.816 29.9328 33.378 29.9328H31.4921V32.847H31.9487V31.6182H33.2777L34.0907 32.847H34.6253L33.7455 31.5402C33.9682 31.5143 34.1427 31.388 34.2355 31.2247C34.3024 31.1133 34.3395 30.95 34.3395 30.7569ZM33.8791 30.794C33.8791 30.8757 33.8606 30.976 33.8272 31.0428C33.7678 31.1504 33.6304 31.2061 33.4077 31.2098H31.9524C31.9524 31.2024 31.9524 30.3486 31.9524 30.3486H33.3223C33.6007 30.3486 33.7492 30.4154 33.8272 30.5416C33.8606 30.601 33.8791 30.7012 33.8791 30.794Z" class="ccustom" fill="#666666"></path> <path d="M35.6606 32.1268H37.476L37.8472 32.847H38.3447L36.8671 29.9328H36.3214L34.7956 32.847H35.2819L35.6606 32.1268ZM37.2829 31.7147H35.8611L36.4513 30.5973L36.5813 30.3263L36.7112 30.5973L37.2829 31.7147Z" class="ccustom" fill="#666666"></path> <path d="M43.053 32.5686C43.1681 32.4349 43.2201 32.2456 43.2201 32.0414C43.2201 31.8484 43.1644 31.6553 43.0493 31.5365C42.9342 31.4252 42.7486 31.3324 42.5444 31.3138C42.6632 31.2952 42.756 31.221 42.8191 31.143C42.9194 31.0279 42.9787 30.8423 42.9787 30.6567C42.9787 30.4599 42.9194 30.2817 42.7931 30.1592C42.6558 30.0219 42.4219 29.9328 42.0952 29.9328H40.135V32.847H42.24C42.6335 32.847 42.9082 32.7468 43.053 32.5686ZM42.4998 30.7495C42.4998 30.8794 42.459 30.9945 42.3885 31.0613C42.3179 31.1393 42.1991 31.1727 42.0729 31.1727H40.5879V30.3337H41.9875C42.1583 30.3337 42.2882 30.3671 42.3773 30.4488C42.4553 30.523 42.4998 30.6307 42.4998 30.7495ZM42.6483 32.2864C42.5555 32.3904 42.3959 32.4424 42.162 32.4424H40.5879V31.5774H42.1732C42.3885 31.5774 42.537 31.6219 42.6261 31.7073C42.7077 31.7853 42.7412 31.8855 42.7412 32.0006C42.7412 32.1194 42.7152 32.2196 42.6483 32.2864Z" class="ccustom" fill="#666666"></path> <path d="M46.5903 32.847V32.4201H44.3258V31.5885H46.5012V31.1653H44.3258V30.356H46.5643V29.9328H43.8728V32.847H46.5903Z" class="ccustom" fill="#666666"></path> <path d="M50.217 31.9857C50.217 31.5105 49.902 31.2655 49.126 31.1764C48.9957 31.1579 48.7135 31.1282 48.5613 31.1096C47.8411 31.0242 47.6221 30.9277 47.6221 30.679C47.6221 30.4377 47.8634 30.3003 48.591 30.3003C49.155 30.3003 49.445 30.4117 49.59 30.6121C49.631 30.6678 49.653 30.7347 49.664 30.7866H50.161C50.147 30.7012 50.113 30.5824 50.061 30.4859C49.861 30.1407 49.449 29.8919 48.591 29.8919C47.5664 29.8882 47.1432 30.2595 47.1432 30.7198C47.1432 31.1801 47.4736 31.414 48.3312 31.5143C48.4797 31.5328 48.7432 31.5625 48.8732 31.5774C49.538 31.659 49.746 31.7593 49.746 32.0377C49.746 32.2939 49.508 32.4795 48.7469 32.4795C48.1233 32.4795 47.7891 32.3681 47.6555 32.1528C47.6147 32.0934 47.5887 32.0006 47.585 31.9375H47.0949C47.1061 32.0711 47.1432 32.2159 47.21 32.331C47.4031 32.6837 47.856 32.8879 48.7321 32.8879C49.779 32.8879 50.217 32.55 50.217 31.9857Z" class="ccustom" fill="#666666"></path> <path d="M53.546 30.356V29.9328H50.45V30.356H51.764V32.847H52.232V30.356H53.546Z" class="ccustom" fill="#666666"></path> <path d="M20.8088 35.38C20.8088 35.083 20.7494 34.8825 20.6491 34.7303C20.5081 34.5112 20.2333 34.3962 19.7544 34.3962H17.9131V37.3104H18.3734V36.36C18.3734 36.36 19.6728 36.36 19.7359 36.36C20.1851 36.3563 20.4932 36.2524 20.6566 36.0148C20.7605 35.87 20.8088 35.6621 20.8088 35.38ZM20.341 35.38C20.341 35.5284 20.3261 35.6398 20.2779 35.7141C20.1925 35.8514 20.018 35.9368 19.6579 35.9368C19.6245 35.9368 18.3734 35.9368 18.3734 35.9368V34.812H19.6728C20.0106 34.812 20.1851 34.8899 20.2779 35.0421C20.3224 35.1089 20.341 35.2315 20.341 35.38Z" class="ccustom" fill="#666666"></path> <path d="M24.169 37.3104V36.8835H21.9044V36.0519H24.0799V35.6287H21.9044V34.8194H24.143V34.3962H21.4515V37.3104H24.169Z" class="ccustom" fill="#666666"></path> <path d="M27.7104 35.2203C27.7104 35.0124 27.6659 34.8602 27.5879 34.7377C27.4505 34.5335 27.187 34.3962 26.7489 34.3962H24.863V37.3104H25.3196V36.0816H26.6487L27.4617 37.3104H27.9963L27.1164 36.0036C27.3392 35.9777 27.5137 35.8514 27.6065 35.6881C27.6733 35.5767 27.7104 35.4134 27.7104 35.2203ZM27.2501 35.2574C27.2501 35.3391 27.2315 35.4394 27.1981 35.5062C27.1387 35.6138 27.0013 35.6695 26.7786 35.6732H25.3233C25.3233 35.6658 25.3233 34.812 25.3233 34.812H26.6932C26.9716 34.812 27.1201 34.8788 27.1981 35.005C27.2315 35.0644 27.2501 35.1646 27.2501 35.2574Z" class="ccustom" fill="#666666"></path> <path d="M31.1522 34.8194V34.3962H28.5609V37.3104H29.0212V36.0705H31.0557V35.6361H29.0212V34.8194H31.1522Z" class="ccustom" fill="#666666"></path> <path d="M33.2651 34.3442C32.6451 34.3442 32.2182 34.4964 31.9137 34.8157C31.6576 35.0644 31.5462 35.4097 31.5462 35.844C31.5462 36.3192 31.691 36.6756 31.9583 36.9169C32.2442 37.2028 32.6822 37.3512 33.2651 37.3512C33.8665 37.3512 34.3342 37.2028 34.6127 36.902C34.854 36.657 34.9802 36.3081 34.9802 35.8403C34.9802 35.3874 34.8725 35.0421 34.6164 34.7971C34.3231 34.4927 33.885 34.3442 33.2651 34.3442ZM33.2651 36.9355C32.8567 36.9355 32.5671 36.8464 32.3481 36.6682C32.1254 36.4863 32.0177 36.2078 32.0177 35.8514C32.0177 35.5173 32.1105 35.2389 32.2887 35.0718C32.4929 34.8788 32.8047 34.7637 33.2614 34.7637C33.7328 34.7637 34.0261 34.8751 34.2451 35.0681C34.4308 35.2315 34.5124 35.521 34.5124 35.8477C34.5124 36.1781 34.4271 36.4603 34.2377 36.631C34.0187 36.8352 33.7106 36.9355 33.2651 36.9355Z" class="ccustom" fill="#666666"></path> <path d="M38.4634 35.2203C38.4634 35.0124 38.4188 34.8602 38.3409 34.7377C38.2035 34.5335 37.9399 34.3962 37.5019 34.3962H35.616V37.3104H36.0726V36.0816H37.4016L38.2147 37.3104H38.7492L37.8694 36.0036C38.0921 35.9777 38.2666 35.8514 38.3594 35.6881C38.4263 35.5767 38.4634 35.4134 38.4634 35.2203ZM38.003 35.2574C38.003 35.3391 37.9845 35.4394 37.9511 35.5062C37.8917 35.6138 37.7543 35.6695 37.5316 35.6732H36.0763C36.0763 35.6658 36.0763 34.812 36.0763 34.812H37.4462C37.7246 34.812 37.8731 34.8788 37.9511 35.005C37.9845 35.0644 38.003 35.1646 38.003 35.2574Z" class="ccustom" fill="#666666"></path> <path d="M42.9038 37.3104V34.3962H42.3024L41.1033 36.7944L39.9264 34.3962H39.3139V37.3104H39.7557V35.0681L40.8545 37.3104H41.3371L42.462 35.0681V37.3104H42.9038Z" class="ccustom" fill="#666666"></path> <path d="M44.2075 36.5902H46.0229L46.3941 37.3104H46.8916L45.414 34.3962H44.8683L43.3425 37.3104H43.8288L44.2075 36.5902ZM45.8298 36.1781H44.408L44.9982 35.0607L45.1282 34.7897L45.2581 35.0607L45.8298 36.1781Z" class="ccustom" fill="#666666"></path> <path d="M50.236 37.3104V34.3962H49.794V36.6607L47.864 34.3962H47.3405V37.3104H47.7897V35.031L49.735 37.3104H50.236Z" class="ccustom" fill="#666666"></path> <path d="M54.241 36.2227H53.758C53.743 36.3563 53.691 36.49 53.598 36.5902C53.398 36.8241 53.079 36.9243 52.589 36.9243C52.177 36.9243 51.735 36.8092 51.523 36.5085C51.412 36.3675 51.341 36.1596 51.341 35.8477C51.341 35.5693 51.39 35.3614 51.497 35.2203C51.675 34.9345 52.05 34.786 52.578 34.786C53.09 34.786 53.413 34.927 53.584 35.1238C53.68 35.2277 53.736 35.3503 53.754 35.495H54.237C54.222 35.3317 54.17 35.1386 54.059 34.9753C53.821 34.6226 53.383 34.3442 52.581 34.3442C51.817 34.3442 51.36 34.5892 51.107 34.9567C50.944 35.1683 50.862 35.4653 50.862 35.844C50.862 36.2672 50.963 36.5791 51.137 36.7981C51.39 37.1434 51.876 37.3512 52.611 37.3512C53.365 37.3512 53.814 37.1248 54.037 36.7647C54.163 36.5902 54.226 36.3823 54.241 36.2227Z" class="ccustom" fill="#666666"></path> <path d="M57.563 37.3104V36.8835H55.298V36.0519H57.474V35.6287H55.298V34.8194H57.537V34.3962H54.845V37.3104H57.563Z" class="ccustom" fill="#666666"></path> <path d="M23.6118 40.2054L24.167 41.9142H25.9637L24.5102 42.9703L25.0654 44.679L23.6118 43.623L22.1582 44.679L22.7135 42.9703L21.2599 41.9142H23.0566L23.6118 40.2054Z" class="ccustom" fill="#666666"></path> <path d="M30.0214 40.2055L30.5879 41.9142H32.4213L30.9381 42.9703L31.5046 44.6791L30.0214 43.623L28.5382 44.6791L29.1047 42.9703L27.6215 41.9142H29.4549L30.0214 40.2055Z" class="ccustom" fill="#666666"></path> <path d="M36.3803 40.2055L36.9469 41.9142H38.7802L37.297 42.9703L37.8636 44.6791L36.3803 43.623L34.8971 44.6791L35.4636 42.9703L33.9804 41.9142H35.8138L36.3803 40.2055Z" class="ccustom" fill="#666666"></path> <path d="M42.7394 40.2055L43.3059 41.9142H45.1393L43.6561 42.9703L44.2226 44.6791L42.7394 43.623L41.2562 44.6791L41.8227 42.9703L40.3395 41.9142H42.1729L42.7394 40.2055Z" class="ccustom" fill="#666666"></path> <path d="M49.149 40.2055L49.704 41.9142H51.501L50.047 42.9703L50.602 44.6791L49.149 43.623L47.6953 44.6791L48.2506 42.9703L46.797 41.9142H48.5937L49.149 40.2055Z" class="ccustom" fill="#666666"></path> <path d="M26.726 11.3762L27.1458 12.6682H28.5043L27.4053 13.4667L27.8251 14.7586L26.726 13.9602L25.627 14.7586L26.0468 13.4667L24.9478 12.6682H26.3063L26.726 11.3762Z" class="ccustom" fill="#666666"></path> <path d="M31.5723 11.3744L32.0007 12.6664H33.3868L32.2654 13.4649L32.6937 14.7568L31.5723 13.9583L30.4508 14.7568L30.8792 13.4649L29.7577 12.6664H31.1439L31.5723 11.3744Z" class="ccustom" fill="#666666"></path> <path d="M36.3801 11.3744L36.8084 12.6664H38.1946L37.0732 13.4649L37.5015 14.7568L36.3801 13.9583L35.2586 14.7568L35.687 13.4649L34.5655 12.6664H35.9517L36.3801 11.3744Z" class="ccustom" fill="#666666"></path> <path d="M41.1886 11.3744L41.6169 12.6664H43.0031L41.8817 13.4649L42.31 14.7568L41.1886 13.9583L40.0671 14.7568L40.4955 13.4649L39.374 12.6664H40.7602L41.1886 11.3744Z" class="ccustom" fill="#666666"></path> <path d="M46.0341 11.3744L46.4539 12.6664H47.8124L46.7134 13.4649L47.1332 14.7568L46.0341 13.9583L44.9351 14.7568L45.3549 13.4649L44.2559 12.6664H45.6143L46.0341 11.3744Z" class="ccustom" fill="#666666"></path> <path fill-rule="evenodd" clip-rule="evenodd" d="M7.3764 34.6304C5.5238 23.0395 10.9306 11.5717 21.7547 6.6471L21.8546 6.8667C11.1394 11.7417 5.7773 23.0973 7.6146 34.5923C9.6473 47.3096 19.9067 54.9366 32.4702 55.3043L32.4631 55.5455C19.8017 55.1749 9.43 47.4789 7.3764 34.6304Z" class="ccustom" fill="#666666"></path> <path d="M19.4078 9.6052C17.4075 9.6508 15.0664 10.7788 13.685 12.4172C14.7928 13.4459 16.5752 13.0656 17.8579 12.8552C19.6886 12.555 21.6354 11.9734 23.3629 11.1501C22.6526 9.6381 20.7392 9.5749 19.4078 9.6052Z" class="ccustom" fill="#666666"></path> <path d="M17.8347 7.1376C16.6499 8.9832 15.2379 10.8175 13.7013 12.4328C12.4157 11.226 13.1917 9.2177 13.7164 7.9688C14.6669 5.7058 16.9458 3.7543 19.3283 2.7558C19.9822 4.2435 18.5619 6.0048 17.8347 7.1376Z" class="ccustom" fill="#666666"></path> <path d="M13.6194 14.7807C11.7464 15.4465 10.1369 17.3207 9.3288 19.2023C10.6756 19.8285 12.2067 18.9242 13.3268 18.3221C14.8648 17.4953 16.4339 16.3545 17.6685 15.0343C16.553 13.8573 14.8592 14.3401 13.6194 14.7807Z" class="ccustom" fill="#666666"></path> <path d="M11.349 12.9365C10.939 15.0415 10.2516 17.2233 9.3488 19.2119C7.773 18.4687 7.833 16.3401 7.9005 14.9855C8.0157 12.6734 9.3092 10.0368 11.1101 8.3612C12.2126 9.5432 11.6102 11.5956 11.349 12.9365Z" class="ccustom" fill="#666666"></path> <path d="M10.0155 21.4625C8.4548 22.6937 7.5088 24.9754 7.2897 27.0129C8.7661 27.1824 9.9462 25.8388 10.8243 24.917C12.0198 23.6619 13.1515 22.0877 13.8702 20.4408C12.4628 19.673 11.0321 20.6605 10.0155 21.4625Z" class="ccustom" fill="#666666"></path> <path d="M7.3115 20.4231C7.5898 22.5488 7.5904 24.8485 7.312 27.0157C5.595 26.8048 5.0255 24.7432 4.6891 23.4499C4.1083 21.2175 4.4977 18.3339 5.6291 16.1637C7.043 16.9464 7.1337 19.0644 7.3115 20.4231Z" class="ccustom" fill="#666666"></path> <path d="M8.7907 28.756C7.5557 30.5651 7.1214 33.4002 7.6768 35.679C9.3088 35.2926 10.1178 33.4449 10.7674 32.14C11.6307 30.4057 12.3604 28.3824 12.6216 26.3973C10.8515 26.0289 9.6042 27.5642 8.7907 28.756Z" class="ccustom" fill="#666666"></path> <path d="M5.5487 28.5731C6.5109 30.8008 7.2618 33.2527 7.7012 35.6735C5.8295 36.0756 4.4824 34.1102 3.6998 32.807C2.3065 30.4872 1.9006 27.2713 2.411 24.4961C4.1241 24.8396 4.9624 27.2161 5.5487 28.5731Z" class="ccustom" fill="#666666"></path> <path d="M9.6546 36.6271C8.9915 38.8217 9.4524 41.8052 10.795 43.8684C12.2704 42.9078 12.4746 40.7936 12.6837 39.2777C12.9594 37.2773 13.0892 35.0613 12.7467 32.987C10.8596 33.2279 10.0975 35.161 9.6546 36.6271Z" class="ccustom" fill="#666666"></path> <path d="M6.3752 37.5666C8.0308 39.4663 9.558 41.6323 10.8175 43.8542C9.1093 44.9206 7.1048 43.4637 5.8891 42.4327C3.7324 40.6038 2.332 37.4953 2 34.5647C3.7948 34.3235 5.3765 36.4205 6.3752 37.5666Z" class="ccustom" fill="#666666"></path> <path d="M13.1341 44.0967C13.2764 46.6512 14.9395 49.3317 17.1539 50.8574C18.2233 49.3933 17.553 47.15 17.1882 45.5841C16.6971 43.4758 16.0174 41.2804 15.0073 39.3324C13.2459 40.2632 13.0404 42.4144 13.1341 44.0967Z" class="ccustom" fill="#666666"></path> <path d="M10.1558 46.2545C12.5549 47.5876 14.9471 49.1607 17.1713 50.8346C15.8393 52.5886 13.1769 51.8892 11.5265 51.3254C8.6181 50.3319 6.0252 47.7129 4.6709 44.8032C6.388 43.9187 8.7386 45.467 10.1558 46.2545Z" class="ccustom" fill="#666666"></path> <path d="M19.9669 50.3374C21.4068 52.9652 24.6881 54.6795 27.7781 55.0922C28.1107 53.1818 26.0436 51.2903 24.9172 50.0529C23.3135 48.2912 21.6424 46.463 19.7688 44.9398C18.3651 46.5696 19.1072 48.7685 19.9669 50.3374Z" class="ccustom" fill="#666666"></path> <path d="M17.9105 53.6678C21.1836 54.0081 24.5122 54.498 27.7834 55.0629C27.4711 57.4733 23.646 57.8623 21.9095 58.0046C18.349 58.2964 14.3882 56.8652 11.6303 54.4558C13.0001 52.844 16.167 53.4866 17.9105 53.6678Z" class="ccustom" fill="#666666"></path> <path d="M24.2149 4.624C22.0174 5.2509 19.4452 6.4402 18.1745 8.6356C20.481 8.3842 22.7479 7.5635 24.9648 6.9382C27.448 6.2377 30.0627 5.7138 32.4669 4.7469C29.8339 3.6935 26.7301 3.9064 24.2149 4.624Z" class="ccustom" fill="#666666"></path> <path fill-rule="evenodd" clip-rule="evenodd" d="M66.728 34.5923C68.565 23.0973 63.203 11.7419 52.488 6.8667L52.588 6.6471C63.412 11.5718 68.819 23.0395 66.966 34.6304C64.913 47.4789 54.541 55.1749 41.8796 55.5455L41.8726 55.3043C54.436 54.9366 64.695 47.3096 66.728 34.5923Z" class="ccustom" fill="#666666"></path> <path d="M54.935 9.6052C56.935 9.6508 59.276 10.7788 60.658 12.4172C59.55 13.4459 57.767 13.0656 56.485 12.8552C54.654 12.555 52.707 11.9734 50.98 11.1501C51.69 9.6381 53.603 9.5749 54.935 9.6052Z" class="ccustom" fill="#666666"></path> <path d="M56.508 7.1376C57.693 8.9832 59.105 10.8175 60.641 12.4328C61.927 11.226 61.151 9.2177 60.626 7.9688C59.676 5.7058 57.397 3.7543 55.014 2.7558C54.36 4.2435 55.781 6.0048 56.508 7.1376Z" class="ccustom" fill="#666666"></path> <path d="M60.724 14.7807C62.597 15.4465 64.206 17.3207 65.014 19.2023C63.667 19.8285 62.136 18.9242 61.016 18.3221C59.478 17.4953 57.909 16.3545 56.675 15.0343C57.79 13.8573 59.484 14.3401 60.724 14.7807Z" class="ccustom" fill="#666666"></path> <path d="M62.994 12.9365C63.404 15.0415 64.091 17.2233 64.994 19.2119C66.57 18.4687 66.51 16.3401 66.442 14.9855C66.327 12.6734 65.034 10.0368 63.233 8.3612C62.13 9.5432 62.733 11.5956 62.994 12.9365Z" class="ccustom" fill="#666666"></path> <path d="M64.327 21.4625C65.888 22.6937 66.834 24.9754 67.053 27.0129C65.577 27.1824 64.397 25.8388 63.519 24.917C62.323 23.6619 61.191 22.0877 60.473 20.4408C61.88 19.673 63.311 20.6605 64.327 21.4625Z" class="ccustom" fill="#666666"></path> <path d="M67.032 20.4231C66.753 22.5486 66.753 24.8485 67.031 27.0157C68.748 26.8048 69.318 24.7432 69.654 23.4499C70.235 21.2175 69.845 18.3339 68.714 16.1637C67.3 16.9464 67.209 19.0644 67.032 20.4231Z" class="ccustom" fill="#666666"></path> <path d="M65.552 28.756C66.787 30.5651 67.221 33.4002 66.666 35.679C65.034 35.2926 64.225 33.445 63.575 32.14C62.712 30.4057 61.982 28.3824 61.721 26.3973C63.491 26.0289 64.739 27.5642 65.552 28.756Z" class="ccustom" fill="#666666"></path> <path d="M68.794 28.5731C67.832 30.8008 67.081 33.2527 66.642 35.6735C68.513 36.0756 69.86 34.1102 70.643 32.807C72.036 30.4872 72.442 27.2713 71.932 24.4961C70.219 24.8396 69.38 27.2161 68.794 28.5731Z" class="ccustom" fill="#666666"></path> <path d="M64.688 36.6271C65.351 38.8217 64.891 41.8052 63.548 43.8684C62.073 42.9078 61.868 40.7936 61.659 39.2777C61.384 37.2773 61.254 35.0613 61.596 32.987C63.483 33.2279 64.245 35.161 64.688 36.6271Z" class="ccustom" fill="#666666"></path> <path d="M67.967 37.5666C66.312 39.4664 64.785 41.6323 63.525 43.8542C65.233 44.9206 67.238 43.4637 68.454 42.4327C70.61 40.6038 72.011 37.4953 72.343 34.5647C70.548 34.3235 68.966 36.4205 67.967 37.5666Z" class="ccustom" fill="#666666"></path> <path d="M61.208 44.0967C61.066 46.6512 59.403 49.3317 57.189 50.8574C56.119 49.3933 56.79 47.1501 57.154 45.5841C57.645 43.4758 58.325 41.2804 59.335 39.3324C61.097 40.2632 61.302 42.4144 61.208 44.0967Z" class="ccustom" fill="#666666"></path> <path d="M64.187 46.2545C61.788 47.5876 59.396 49.1607 57.172 50.8346C58.504 52.5886 61.166 51.8892 62.816 51.3254C65.725 50.3319 68.318 47.7129 69.672 44.8032C67.955 43.9187 65.604 45.467 64.187 46.2545Z" class="ccustom" fill="#666666"></path> <path d="M54.376 50.3374C52.936 52.9652 49.655 54.6795 46.5646 55.0922C46.232 53.1818 48.299 51.2903 49.426 50.0529C51.029 48.2912 52.7 46.463 54.574 44.9398C55.978 46.5696 55.235 48.7685 54.376 50.3374Z" class="ccustom" fill="#666666"></path> <path d="M56.432 53.6678C53.159 54.0081 49.831 54.498 46.5592 55.0629C46.8716 57.4733 50.697 57.8623 52.433 58.0046C55.994 58.2964 59.955 56.8652 62.712 54.4558C61.343 52.844 58.176 53.4866 56.432 53.6678Z" class="ccustom" fill="#666666"></path> <path d="M50.128 4.624C52.325 5.2509 54.898 6.4402 56.168 8.6356C53.862 8.3842 51.595 7.5635 49.378 6.9382C46.8948 6.2377 44.2801 5.7138 41.8759 4.7469C44.509 3.6935 47.6127 3.9064 50.128 4.624Z" class="ccustom" fill="#666666"></path> <path d="M38.6004 3.4879L37.4729 1L36.3666 3.4416L33.7937 1.8464L35.447 5.3207H39.5586L41.1522 1.8464L38.6004 3.4879Z" class="ccustom" fill="#666666"></path> <path d="M39.5322 5.8606H35.4141V6.4683H39.5322V5.8606Z" class="ccustom" fill="#666666"></path> <path d="M37.7674 52.8718L38.431 54.914H40.5783L38.8411 56.1761L39.5046 58.2183L37.7674 56.9562L36.0302 58.2183L36.6938 56.1761L34.9566 54.914H37.1039L37.7674 52.8718Z" class="ccustom" fill="#666666"></path> </svg>