<svg id="logo-29" width="154" height="44" viewBox="0 0 154 44" fill="none" xmlns="http://www.w3.org/2000/svg"> <path d="M51.439 28V10.888H48.633V28H51.439Z" class="ccustom" fill="#666666"></path> <path d="M53.1564 22.296C53.1564 25.792 55.5024 28.276 59.0674 28.276C62.6324 28.276 64.9784 25.792 64.9784 22.296C64.9784 18.8 62.6324 16.316 59.0674 16.316C55.5024 16.316 53.1564 18.8 53.1564 22.296ZM55.9854 22.296C55.9854 20.249 57.2044 18.823 59.0674 18.823C60.9304 18.823 62.1494 20.249 62.1494 22.296C62.1494 24.32 60.9304 25.769 59.0674 25.769C57.2044 25.769 55.9854 24.32 55.9854 22.296Z" class="ccustom" fill="#666666"></path> <path d="M65.9222 22.066C65.9222 25.378 68.0612 27.77 71.2582 27.77C72.9142 27.77 74.3402 27.103 75.0532 25.999V27.931C75.0532 29.794 73.8802 31.036 71.9252 31.036C70.1772 31.036 68.9812 30.185 68.8202 28.69H65.9912C66.3592 31.657 68.6362 33.589 71.7642 33.589C75.4442 33.589 77.7902 31.174 77.7902 27.425V16.638H75.3062L75.1452 18.179C74.4552 16.983 73.0292 16.27 71.3502 16.27C68.1072 16.27 65.9222 18.731 65.9222 22.066ZM68.7742 21.997C68.7742 20.111 69.9702 18.731 71.7412 18.731C73.6732 18.731 74.9612 20.134 74.9612 21.997C74.9612 23.883 73.6732 25.332 71.7412 25.332C69.9932 25.332 68.7742 23.906 68.7742 21.997Z" class="ccustom" fill="#666666"></path> <path d="M79.1788 22.296C79.1788 25.792 81.5248 28.276 85.0898 28.276C88.6548 28.276 91.0008 25.792 91.0008 22.296C91.0008 18.8 88.6548 16.316 85.0898 16.316C81.5248 16.316 79.1788 18.8 79.1788 22.296ZM82.0078 22.296C82.0078 20.249 83.2268 18.823 85.0898 18.823C86.9528 18.823 88.1718 20.249 88.1718 22.296C88.1718 24.32 86.9528 25.769 85.0898 25.769C83.2268 25.769 82.0078 24.32 82.0078 22.296Z" class="ccustom" fill="#666666"></path> <path d="M94.0375 14.315C94.9575 14.315 95.7165 13.579 95.7165 12.636C95.7165 11.716 94.9575 10.98 94.0375 10.98C93.0945 10.98 92.3815 11.716 92.3815 12.636C92.3815 13.579 93.0945 14.315 94.0375 14.315ZM92.6345 28H95.4405V16.638H92.6345V28Z" class="ccustom" fill="#666666"></path> <path d="M97.8988 33.267H100.636V26.436C101.349 27.609 102.89 28.299 104.592 28.299C107.95 28.299 109.951 25.723 109.905 22.181C109.836 18.616 107.789 16.293 104.569 16.293C102.844 16.293 101.28 17.052 100.59 18.363L100.429 16.638H97.8988V33.267ZM100.751 22.319C100.751 20.272 101.993 18.846 103.948 18.846C105.903 18.846 107.076 20.295 107.076 22.319C107.076 24.343 105.903 25.769 103.948 25.769C101.993 25.769 100.751 24.366 100.751 22.319Z" class="ccustom" fill="#666666"></path> <path d="M110.617 24.596C110.709 26.85 112.457 28.299 115.171 28.299C117.839 28.299 119.656 26.873 119.656 24.665C119.656 23.032 118.644 21.928 116.781 21.468L114.78 20.985C113.929 20.755 113.354 20.456 113.354 19.72C113.354 18.938 113.975 18.386 114.987 18.386C116.045 18.386 116.735 18.984 116.735 19.973H119.288C119.196 17.719 117.517 16.293 115.056 16.293C112.618 16.293 110.801 17.719 110.801 19.881C110.801 21.353 111.652 22.572 113.837 23.147L115.815 23.653C116.551 23.86 117.011 24.205 117.011 24.849C117.011 25.746 116.16 26.16 115.125 26.16C113.883 26.16 113.17 25.585 113.17 24.596H110.617Z" class="ccustom" fill="#666666"></path> <path d="M125.477 28.299C127.018 28.299 128.49 27.586 129.157 26.528L129.341 28H131.963V16.638H129.157V22.595C129.157 24.642 128.375 25.792 126.535 25.792C125.109 25.792 124.12 25.102 124.12 22.756V16.638H121.314V23.745C121.314 26.459 122.786 28.299 125.477 28.299Z" class="ccustom" fill="#666666"></path> <path d="M137.245 28V21.468C137.245 19.628 138.326 18.754 139.66 18.754C140.994 18.754 141.868 19.605 141.868 21.215V28H144.605V21.491C144.605 19.628 145.663 18.754 146.997 18.754C148.354 18.754 149.228 19.605 149.228 21.215V28H151.942V20.571C151.942 17.949 150.493 16.293 147.733 16.293C146.008 16.293 144.651 17.121 144.099 18.455C143.478 17.121 142.236 16.293 140.35 16.293C139.016 16.293 137.82 16.914 137.153 17.926L137.015 16.638H134.439V28H137.245Z" class="ccustom" fill="#666666"></path> <path d="M130.518 38.154C130.936 38.154 131.299 37.802 131.299 37.384C131.299 36.955 130.936 36.603 130.518 36.603C130.089 36.603 129.726 36.955 129.726 37.384C129.726 37.802 130.089 38.154 130.518 38.154Z" class="ccustom" fill="#666666"></path> <path d="M132.106 35.316C132.106 36.999 133.14 38.132 134.647 38.132C135.945 38.132 136.935 37.351 137.144 36.185H136.154C135.967 36.834 135.395 37.219 134.713 37.219C133.745 37.219 133.129 36.471 133.129 35.305C133.129 34.117 133.778 33.391 134.735 33.391C135.395 33.391 135.967 33.743 136.143 34.436H137.133C136.957 33.259 136.033 32.467 134.746 32.467C133.184 32.467 132.106 33.622 132.106 35.316Z" class="ccustom" fill="#666666"></path> <path d="M137.534 35.305C137.534 36.922 138.634 38.132 140.284 38.132C141.934 38.132 143.034 36.922 143.034 35.305C143.034 33.688 141.934 32.478 140.284 32.478C138.634 32.478 137.534 33.688 137.534 35.305ZM138.579 35.305C138.579 34.205 139.25 33.402 140.284 33.402C141.318 33.402 141.989 34.205 141.989 35.305C141.989 36.405 141.318 37.208 140.284 37.208C139.25 37.208 138.579 36.405 138.579 35.305Z" class="ccustom" fill="#666666"></path> <path d="M144.951 38.011V34.777C144.951 33.93 145.479 33.38 146.249 33.38C146.986 33.38 147.448 33.853 147.448 34.7V38.011H148.46V34.788C148.46 33.93 148.977 33.38 149.758 33.38C150.484 33.38 150.946 33.853 150.946 34.7V38.011H151.947V34.48C151.947 33.237 151.221 32.478 149.989 32.478C149.153 32.478 148.504 32.885 148.24 33.545C147.965 32.885 147.36 32.478 146.48 32.478C145.809 32.478 145.215 32.786 144.918 33.314L144.841 32.632H143.917V38.011H144.951Z" class="ccustom" fill="#666666"></path> <path fill-rule="evenodd" clip-rule="evenodd" d="M2 22.4353L2.00193 22.2349L2.00591 22.0344L2.01195 21.8339L2.02004 21.6334L2.0302 21.4329L2.04241 21.2324L2.05669 21.032L2.07302 20.8316L2.09142 20.6313L2.11188 20.431L2.1344 20.231L2.15897 20.031L2.18561 19.8312L2.21431 19.6316L2.24506 19.4322L2.27787 19.2331L2.31274 19.0341L2.34965 18.8355L2.38862 18.6371L2.42964 18.439L2.47271 18.2412L2.51781 18.0438L2.56497 17.8468L2.61415 17.6501L2.66538 17.4539L2.71863 17.258L2.77392 17.0626L2.83123 16.8677L2.89056 16.6733L2.9519 16.4794L3.01526 16.286L3.08063 16.0931L3.148 15.9008L3.21736 15.7091L3.28872 15.518L3.36206 15.3275L3.43739 15.1377L3.51469 14.9485L3.59396 14.7601L3.67519 14.5723L3.75838 14.3852L3.84352 14.1989L3.9306 14.0134L4.01962 13.8286L4.11057 13.6446L4.20344 13.4615L4.29822 13.2792L4.39491 13.0977L4.49349 12.9172L4.59396 12.7375L4.69632 12.5587L4.80054 12.3809L4.90663 12.204L5.01457 12.0281L5.12436 11.8532L5.23598 11.6793L5.34943 11.5065L5.4647 11.3346L5.58177 11.1639L5.70064 10.9942L5.82129 10.8256L5.94371 10.6582L6.0679 10.4918L6.19384 10.3267L6.32153 10.1627L6.45094 9.99984L6.58207 9.83824L6.71491 9.67786L6.84944 9.51872L6.98566 9.36083L7.12355 9.20422L7.26309 9.04891L7.40428 8.8949L7.54711 8.74222L7.69155 8.59088L7.8376 8.4409L7.98524 8.29229L8.13446 8.14507L8.28525 7.99926L8.43759 7.85487L8.59147 7.71193L8.74687 7.57043L8.90378 7.43041L9.06219 7.29187L9.22208 7.15482L9.38343 7.0193L9.54623 6.88531L9.71047 6.75286L9.87613 6.62197L10.0432 6.49265L10.2116 6.36493L10.3815 6.2388L10.5527 6.1143L10.7252 5.99143L10.899 5.8702L11.0742 5.75063L11.2506 5.63272L11.4283 5.51651L11.6073 5.40199L11.7876 5.28919L11.969 5.17811L12.1517 5.06876L12.3355 4.96117L12.5205 4.85534L12.7067 4.75128L12.894 4.64901L13.0824 4.54853L13.2719 4.44987L13.4625 4.35302L13.6542 4.25801L13.8469 4.16484L14.0407 4.07352L14.2354 3.98407L14.4312 3.8965L14.6279 3.81081L14.8256 3.72702L15.0242 3.64514L15.2237 3.56517L15.4241 3.48712L15.6254 3.41102L15.8275 3.33685L16.0305 3.26465L16.2343 3.1944L16.4389 3.12612L16.6442 3.05983L16.8503 2.99552L17.0572 2.93321L17.2648 2.87291L17.473 2.81462L17.682 2.75834L17.8916 2.70409L18.1018 2.65188L18.3126 2.60172L18.5241 2.55359L18.7361 2.50753L18.9486 2.46352L19.1617 2.42158L19.3753 2.38172L19.5894 2.34393L19.804 2.30823L20.019 2.27462L20.2344 2.2431L20.4502 2.21369L20.6664 2.18638L20.883 2.16118L21.0999 2.13808L21.3171 2.11712L21.5346 2.09827L21.7524 2.08154L21.9704 2.06695L23.1428 2L23.2097 7.64867L23.248 7.64823L23.4099 7.648L23.5718 7.64936L23.7337 7.65231L23.8958 7.65686L24.0578 7.663L24.2199 7.67072L24.382 7.68005L24.5441 7.69098L24.7061 7.70349L24.8682 7.71761L25.0301 7.73333L25.192 7.75065L25.3537 7.76956L25.5154 7.79007L25.6769 7.81218L25.8383 7.83588L25.9995 7.86119L26.1606 7.88809L26.3214 7.91658L26.4821 7.94667L26.6425 7.97835L26.8026 8.01163L26.9626 8.04649L27.1222 8.08294L27.2815 8.12097L27.4406 8.16059L27.5993 8.2018L27.7576 8.24458L27.9156 8.28894L28.0733 8.33487L28.2305 8.38237L28.3873 8.43144L28.5437 8.48208L28.6997 8.53428L28.8552 8.58803L29.0102 8.64334L29.1648 8.70019L29.3188 8.7586L29.4723 8.81854L29.6253 8.88003L29.7777 8.94305L29.9295 9.00759L30.0808 9.07366L30.2315 9.14125L30.3815 9.21035L30.5309 9.28095L30.6797 9.35306L30.8278 9.42667L30.9752 9.50177L31.1219 9.57835L31.2679 9.65641L31.4132 9.73595L31.5577 9.81695L31.7015 9.89941L31.8445 9.98332L31.9867 10.0687L32.1281 10.1555L32.2687 10.2437L32.4084 10.3334L32.5473 10.4244L32.6853 10.5169L32.8225 10.6108L32.9587 10.706L33.0941 10.8027L33.2285 10.9007L33.3619 11.0001L33.4945 11.1009L33.626 11.203L33.7566 11.3065L33.8861 11.4112L34.0147 11.5173L34.1422 11.6248L34.2687 11.7335L34.3942 11.8435L34.5186 11.9548L34.6418 12.0674L34.764 12.1813L34.8851 12.2964L35.0051 12.4127L35.1239 12.5303L35.2416 12.6491L35.3581 12.7692L35.4735 12.8904L35.5876 13.0128L35.7006 13.1364L35.8123 13.2612L35.9228 13.3871L36.0321 13.5142L36.1401 13.6424L36.2469 13.7717L36.3524 13.9022L36.4566 14.0337L36.5595 14.1663L36.6611 14.3L36.7614 14.4348L36.8603 14.5706L36.9579 14.7075L37.0541 14.8454L37.149 14.9842L37.2425 15.1241L37.3346 15.265L37.4253 15.4069L37.5145 15.5497L37.6024 15.6934L37.6888 15.8381L37.7738 15.9837L37.8573 16.1302L37.9394 16.2776L38.02 16.4259L38.0991 16.575L38.1767 16.725L38.2528 16.8758L38.3274 17.0274L38.4005 17.1799L38.4721 17.3331L38.5421 17.4871L38.6106 17.6419L38.6775 17.7974L38.7428 17.9537L38.8066 18.1106L38.8688 18.2683L38.9294 18.4266L38.9884 18.5857L39.0458 18.7453L39.1016 18.9057L39.1558 19.0666L39.2084 19.2282L39.2593 19.3903L39.3086 19.553L39.3562 19.7163L39.4022 19.8801L39.4465 20.0445L39.4892 20.2094L39.5301 20.3747L39.5695 20.5406L39.6071 20.7069L39.643 20.8737L39.6773 21.0408L39.7098 21.2085L39.7406 21.3765L39.7698 21.5449L39.7972 21.7136L39.8229 21.8827L39.8469 22.0522L39.8691 22.2219L39.8896 22.392L39.9084 22.5623L39.9254 22.7329L39.9407 22.9037L39.9543 23.0748L39.9661 23.2461L39.9761 23.4176L39.9844 23.5892L39.991 23.7611L39.9957 23.933L39.9988 24.1051L40 24.2773L39.9995 24.4496L39.9972 24.622L39.9931 24.7945L39.9873 24.9669L39.9797 25.1394L39.9704 25.3119L39.9592 25.4844L39.9463 25.6569L39.9316 25.8293L39.9151 26.0017L39.8969 26.174L39.8768 26.3461L39.855 26.5182L39.8315 26.6901L39.8061 26.8619L39.779 27.0335L39.7501 27.2049L39.7194 27.3761L39.687 27.5471L39.6528 27.7179L39.6168 27.8884L39.579 28.0586L39.5395 28.2286L39.4983 28.3982L39.4552 28.5675L39.4104 28.7364L39.3639 28.905L39.3156 29.0732L39.2656 29.241L39.2138 29.4085L39.1602 29.5754L39.105 29.742L39.048 29.908L38.9892 30.0736L38.9288 30.2387L38.8666 30.4032L38.8027 30.5672L38.7371 30.7307L38.6698 30.8936L38.6008 31.0559L38.5301 31.2177L38.4577 31.3787L38.3836 31.5392L38.3078 31.699L38.2304 31.8581L38.1512 32.0166L38.0705 32.1743L37.988 32.3314L37.904 32.4876L37.8182 32.6432L37.7309 32.7979L37.6419 32.9519L37.5513 33.1051L37.4591 33.2574L37.3653 33.409L37.2698 33.5596L37.1728 33.7094L37.0743 33.8583L36.9741 34.0063L36.8724 34.1534L36.7691 34.2996L36.6643 34.4448L36.5579 34.5891L36.45 34.7324L36.3406 34.8747L36.2297 35.0159L36.1173 35.1562L36.0034 35.2954L35.888 35.4335L35.7711 35.5706L35.6528 35.7066L35.533 35.8415L35.4118 35.9753L35.2892 36.108L35.1652 36.2395L35.0397 36.3699L34.9129 36.499L34.7846 36.627L34.655 36.7538L34.5241 36.8794L34.3918 37.0038L34.2582 37.1269L34.1232 37.2488L33.9869 37.3693L33.8494 37.4886L33.7105 37.6067L33.5704 37.7234L33.429 37.8387L33.2864 37.9528L33.1425 38.0655L32.9974 38.1768L32.8511 38.2867L32.7036 38.3953L32.555 38.5025L32.4051 38.6082L32.2541 38.7126L32.102 38.8155L31.9488 38.9169L31.7944 39.0169L31.639 39.1155L31.4825 39.2125L31.3249 39.3081L31.1662 39.4021L31.0065 39.4947L30.8459 39.5857L30.6841 39.6751L30.5215 39.7631L30.3578 39.8494L30.1932 39.9342L30.0276 40.0175L29.8611 40.0991L29.6937 40.1791L29.5254 40.2576L29.3562 40.3344L29.1862 40.4096L29.0153 40.4831L28.8436 40.555L28.6711 40.6253L28.4978 40.6939L28.3237 40.7608L28.1488 40.8261L27.9732 40.8896L27.7968 40.9515L27.6198 41.0116L27.4421 41.0701L27.2636 41.1268L27.0845 41.1818L26.9048 41.2351L26.7245 41.2866L26.5435 41.3364L26.362 41.3845L26.1798 41.4307L25.9972 41.4752L25.814 41.518L25.6302 41.5589L25.446 41.5981L25.2613 41.6355L25.0761 41.6711L24.8905 41.7049L24.7045 41.7368L24.518 41.767L24.3312 41.7954L24.1439 41.8219L23.9564 41.8466L23.7685 41.8695L23.5802 41.8905L23.3917 41.9097L23.2029 41.9271L23.0139 41.9426L22.8246 41.9563L22.6351 41.9681L22.4453 41.9781L22.2554 41.9862L22.0654 41.9924L21.8751 41.9968L21.6848 41.9993L21.4943 42L21.3038 41.9988L21.1132 41.9957L20.9225 41.9908L20.7318 41.9839L20.5411 41.9752L20.3504 41.9647L20.1598 41.9522L19.9691 41.9379L19.7786 41.9217L19.5881 41.9036L19.3977 41.8837L19.2075 41.8619L19.0174 41.8382L18.8274 41.8126L18.6377 41.7851L18.4481 41.7558L18.2588 41.7246L18.0697 41.6916L17.8808 41.6566L17.6923 41.6198L17.504 41.5812L17.3161 41.5406L17.1284 41.4982L16.9412 41.454L16.7543 41.4079L16.5678 41.3599L16.3817 41.3101L16.1961 41.2585L16.0109 41.205L15.8261 41.1497L15.6419 41.0925L15.4582 41.0335L15.275 40.9727L15.0923 40.91L14.9102 40.8455L14.7287 40.7793L14.5478 40.7112L14.3675 40.6413L14.1879 40.5696L14.0089 40.4961L13.8306 40.4208L13.653 40.3438L13.4761 40.265L13.2999 40.1844L13.1245 40.102L12.9499 40.0179L12.7761 39.932L12.603 39.8444L12.4308 39.7551L12.2595 39.664L12.0889 39.5713L11.9193 39.4768L11.7506 39.3806L11.5828 39.2827L11.4159 39.1831L11.25 39.0819L11.085 38.9789L10.921 38.8744L10.7581 38.7681L10.5961 38.6603L10.4352 38.5507L10.2754 38.4396L10.1166 38.3269L9.95891 38.2125L9.80233 38.0966L9.64687 37.979L9.49256 37.8599L9.3394 37.7393L9.18741 37.617L9.03662 37.4933L8.88703 37.368L8.73866 37.2412L8.59153 37.1129L8.44566 36.983L8.30106 36.8517L8.15775 36.719L8.01573 36.5847L7.87504 36.4491L7.73568 36.3119L7.59766 36.1734L7.46101 36.0335L7.32574 35.8921L7.19186 35.7494L7.05939 35.6053L6.92835 35.4598L6.79874 35.313L6.67058 35.1649L6.54389 35.0154L6.41868 34.8647L6.29497 34.7126L6.17276 34.5593L6.05208 34.4047L5.93293 34.2489L5.81533 34.0918L5.69929 33.9335L5.58483 33.774L5.47195 33.6133L5.36068 33.4515L5.25102 33.2885L5.14299 33.1243L5.0366 32.9591L4.93185 32.7927L4.82877 32.6252L4.72737 32.4567L4.62765 32.287L4.52964 32.1164L4.43333 31.9447L4.33874 31.772L4.24589 31.5982L4.15477 31.4235L4.06542 31.2479L3.97782 31.0713L3.89201 30.8938L3.80798 30.7153L3.72574 30.536L3.64531 30.3557L3.56669 30.1747L3.4899 29.9927L3.41495 29.81L3.34183 29.6264L3.27057 29.442L3.20118 29.2569L3.13365 29.071L3.068 28.8844L3.00423 28.6971L2.94236 28.509L2.8824 28.3203L2.82434 28.1309L2.76821 27.9409L2.714 27.7502L2.66172 27.5589L2.61138 27.3671L2.56299 27.1747L2.51655 26.9817L2.47208 26.7882L2.42957 26.5941L2.38903 26.3996L2.35047 26.2046L2.31389 26.0092L2.2793 25.8133L2.24671 25.617L2.21611 25.4203L2.18752 25.2232L2.16094 25.0257L2.13638 24.8279L2.11383 24.6298L2.0933 24.4314L2.0748 24.2328L2.05833 24.0338L2.04389 23.8346L2.03149 23.6352L2.02113 23.4356L2.01281 23.2358L2.00653 23.0359L2.0023 22.8358L2.00013 22.6356L2 22.4353ZM21.3781 7.76699L21.3325 3.91679L21.2892 3.92097L21.0904 3.94213L20.8921 3.96521L20.6939 3.99025L20.4965 4.01715L20.2993 4.04601L20.1023 4.0768L19.9059 4.10948L19.7097 4.14411L19.5145 4.18054L19.319 4.21901L19.1249 4.25921L18.9305 4.30144L18.7371 4.34546L18.5439 4.39144L18.3516 4.43918L18.1598 4.48884L17.9685 4.54035L17.7778 4.59372L17.588 4.64888L17.3985 4.70594L17.21 4.76477L17.022 4.82547L16.835 4.88785L16.6483 4.9522L16.4626 5.01827L16.2778 5.08609L16.0935 5.15576L15.9102 5.22713L15.7279 5.30022L15.5461 5.37519L15.3652 5.45186L15.1852 5.53028L15.0062 5.61035L14.8281 5.69216L14.651 5.77562L14.4745 5.86092L14.2993 5.94778L14.125 6.03633L13.9517 6.12655L13.7794 6.21844L13.6083 6.3119L13.4379 6.40709L13.2686 6.50393L13.1008 6.60215L12.9335 6.70229L12.7678 6.80376L12.6032 6.90681L12.4394 7.01155L12.2769 7.11782L12.1156 7.22564L11.9558 7.33473L11.7966 7.44575L11.639 7.55796L11.4826 7.67172L11.3273 7.78704L11.1734 7.90373L11.0209 8.02182L10.8693 8.14157L10.7194 8.26246L10.5706 8.38494L10.4232 8.50875L10.2771 8.634L10.1325 8.76045L9.98898 8.8885L9.8471 9.01769L9.70643 9.14837L9.56739 9.28015L9.42962 9.41336L9.29338 9.54777L9.15853 9.68351L9.02499 9.82065L8.8932 9.95873L8.76289 10.098L8.63374 10.2389L8.50638 10.3807L8.38058 10.5235L8.25607 10.6678L8.13337 10.813L8.01203 10.9595L7.89232 11.107L7.77418 11.2557L7.65758 11.4054L7.5427 11.5561L7.42932 11.7079L7.3175 11.8609L7.20748 12.0146L7.09893 12.1696L6.99211 12.3254L6.88694 12.4822L6.78335 12.64L6.68151 12.7987L6.58134 12.9582L6.48285 13.1187L6.38612 13.28L6.29098 13.4423L6.19755 13.6055L6.10596 13.7693L6.01601 13.934L5.92778 14.0996L5.84134 14.2659L5.7566 14.433L5.67368 14.6007L5.59249 14.7692L5.51309 14.9384L5.43542 15.1084L5.35959 15.2789L5.28548 15.4502L5.21318 15.6221L5.14273 15.7945L5.07404 15.9676L5.00715 16.1413L4.9421 16.3155L4.87885 16.4903L4.81747 16.6655L4.75786 16.8414L4.7001 17.0177L4.64419 17.1945L4.59013 17.3716L4.53787 17.5494L4.4875 17.7274L4.43897 17.9059L4.39228 18.0847L4.34745 18.264L4.30449 18.4435L4.26339 18.6234L4.22415 18.8036L4.18678 18.9841L4.15128 19.1648L4.11764 19.3458L4.08588 19.527L4.05599 19.7085L4.02798 19.8901L4.00184 20.0719L3.97758 20.2539L3.95519 20.436L3.93468 20.6182L3.91605 20.8006L3.8993 20.983L3.88442 21.1654L3.87142 21.348L3.8603 21.5306L3.85105 21.7131L3.84368 21.8957L3.83818 22.0782L3.83456 22.2607L3.8328 22.4431L3.83292 22.6255L3.8349 22.8077L3.83875 22.9899L3.84446 23.1719L3.85203 23.3537L3.86147 23.5354L3.87275 23.7168L3.88589 23.8981L3.90088 24.0791L3.91772 24.2599L3.93639 24.4405L3.95691 24.6207L3.97926 24.8007L4.00344 24.9803L4.02945 25.1596L4.05729 25.3386L4.08693 25.5171L4.1184 25.6953L4.15167 25.8731L4.18674 26.0504L4.22361 26.2274L4.26227 26.4038L4.30272 26.5798L4.34495 26.7553L4.38895 26.9303L4.43473 27.1048L4.48225 27.2786L4.53155 27.452L4.58259 27.6248L4.63537 27.797L4.68989 27.9686L4.74612 28.1395L4.80408 28.3098L4.86376 28.4794L4.92514 28.6484L4.9882 28.8166L5.05299 28.9842L5.11942 29.151L5.18753 29.3171L5.25732 29.4824L5.32875 29.6469L5.40184 29.8107L5.47656 29.9737L5.55291 30.1358L5.63087 30.2971L5.71045 30.4575L5.79162 30.6171L5.87439 30.7758L5.95873 30.9336L6.04465 31.0905L6.13212 31.2464L6.22114 31.4014L6.3117 31.5555L6.4038 31.7085L6.49737 31.8606L6.59251 32.0117L6.6891 32.1617L6.7872 32.3108L6.88677 32.4588L6.98778 32.6057L7.09024 32.7516L7.19417 32.8964L7.29949 33.0401L7.40626 33.1827L7.51438 33.3241L7.62395 33.4644L7.73483 33.6035L7.84711 33.7415L7.96077 33.8784L8.0757 34.014L8.192 34.1484L8.30959 34.2816L8.42852 34.4136L8.5487 34.5443L8.67013 34.6738L8.79285 34.802L8.9168 34.929L9.04202 35.0547L9.16842 35.179L9.29606 35.3021L9.42484 35.4238L9.55481 35.5443L9.68598 35.6634L9.81827 35.7811L9.95162 35.8974L10.0862 36.0124L10.2219 36.126L10.3585 36.2382L10.4964 36.3491L10.6352 36.4584L10.7751 36.5664L10.916 36.673L11.058 36.7781L11.2009 36.8817L11.3448 36.9839L11.4896 37.0846L11.6355 37.1839L11.7822 37.2816L11.93 37.3779L12.0785 37.4727L12.228 37.5659L12.3784 37.6577L12.5295 37.7479L12.6816 37.8366L12.8344 37.9237L12.9881 38.0093L13.1425 38.0933L13.2978 38.1758L13.4537 38.2567L13.6104 38.3361L13.7679 38.4138L13.9261 38.49L14.0849 38.5646L14.2444 38.6376L14.4045 38.7089L14.5654 38.7787L14.7268 38.8468L14.8889 38.9134L15.0515 38.9783L15.2147 39.0415L15.3785 39.1032L15.5427 39.1632L15.7075 39.2215L15.8729 39.2782L16.0387 39.3333L16.205 39.3867L16.3716 39.4384L16.5389 39.4885L16.7064 39.5369L16.8744 39.5836L17.0428 39.6287L17.2115 39.6721L17.3806 39.7138L17.5499 39.7538L17.7197 39.7922L17.8897 39.8288L18.0599 39.8638L18.2305 39.8971L18.4013 39.9287L18.5723 39.9586L18.7435 39.9868L18.9149 40.0133L19.0865 40.0381L19.2583 40.0612L19.4301 40.0827L19.6021 40.1024L19.7742 40.1204L19.9464 40.1368L20.1187 40.1514L20.291 40.1644L20.4633 40.1756L20.6357 40.1852L20.808 40.193L20.9803 40.1992L21.1526 40.2037L21.3249 40.2064L21.497 40.2075L21.6691 40.2069L21.8411 40.2046L22.0129 40.2007L22.1846 40.195L22.3562 40.1877L22.5276 40.1787L22.6987 40.168L22.8697 40.1557L23.0405 40.1417L23.211 40.126L23.3812 40.1086L23.5512 40.0896L23.7208 40.069L23.8902 40.0467L24.0592 40.0227L24.2279 39.9971L24.3962 39.9699L24.5642 39.941L24.7318 39.9105L24.8989 39.8784L25.0656 39.8447L25.2319 39.8093L25.3977 39.7724L25.563 39.7338L25.7279 39.6936L25.8922 39.6519L26.056 39.6085L26.2192 39.5636L26.382 39.5171L26.5441 39.469L26.7057 39.4194L26.8666 39.3683L27.027 39.3155L27.1867 39.2613L27.3456 39.2055L27.5041 39.1481L27.6618 39.0893L27.8188 39.0289L27.9751 38.9671L28.1306 38.9038L28.2854 38.8389L28.4395 38.7726L28.5928 38.7048L28.7452 38.6356L28.897 38.5649L29.0479 38.4927L29.1979 38.4192L29.3472 38.3441L29.4955 38.2677L29.643 38.1899L29.7897 38.1106L29.9353 38.03L30.0801 37.948L30.2239 37.8647L30.367 37.7799L30.5088 37.6939L30.65 37.6064L30.7899 37.5177L30.9289 37.4276L31.067 37.3362L31.2041 37.2434L31.3399 37.1496L31.4748 37.0543L31.6087 36.9578L31.7415 36.8601L31.8733 36.761L32.0038 36.6609L32.1335 36.5593L32.2618 36.4567L32.389 36.3529L32.5153 36.2478L32.6403 36.1415L32.764 36.0342L32.8867 35.9256L33.0081 35.816L33.1284 35.7052L33.2475 35.5933L33.3652 35.4804L33.4819 35.3662L33.5973 35.251L33.7114 35.1348L33.8243 35.0175L33.9358 34.8993L34.046 34.7801L34.1552 34.6595L34.2628 34.5383L34.3693 34.4159L34.4743 34.2927L34.5781 34.1684L34.6805 34.0433L34.7815 33.9172L34.8813 33.7901L34.9796 33.6623L35.0767 33.5334L35.1722 33.4038L35.2665 33.2732L35.3595 33.1417L35.4507 33.0097L35.5408 32.8766L35.6293 32.7429L35.7165 32.6082L35.8024 32.4727L35.8866 32.3367L35.9694 32.1999L36.0509 32.062L36.1307 31.9239L36.2092 31.7848L36.2863 31.645L36.3617 31.5048L36.4358 31.3636L36.5084 31.2218L36.5793 31.0799L36.6489 30.9368L36.717 30.7932L36.7835 30.6492L36.8485 30.5046L36.912 30.3594L36.9739 30.2138L37.0344 30.0674L37.0933 29.9206L37.1506 29.7737L37.2064 29.6257L37.2606 29.4777L37.3134 29.329L37.3646 29.18L37.4142 29.0305L37.4621 28.881L37.5087 28.7304L37.5535 28.58L37.5968 28.4291L37.6386 28.278L37.6788 28.1263L37.7173 27.9746L37.7544 27.8224L37.7898 27.6699L37.8237 27.5173L37.856 27.3643L37.8866 27.2114L37.9157 27.0578L37.9432 26.9046L37.9691 26.7508L37.9934 26.5969L38.0161 26.443L38.0373 26.2888L38.0568 26.1348L38.0748 25.9801L38.0911 25.826L38.1059 25.6714L38.119 25.5171L38.1306 25.3623L38.1406 25.2081L38.149 25.0534L38.1558 24.8986L38.161 24.7442L38.1647 24.5901L38.1667 24.4354L38.1672 24.281L38.1661 24.1268L38.1634 23.9727L38.1591 23.8186L38.1532 23.6651L38.1458 23.511L38.1368 23.3576L38.1262 23.2042L38.1141 23.0513L38.1004 22.8981L38.0852 22.7456L38.0684 22.593L38.05 22.4409L38.0301 22.2889L38.0087 22.1374L37.9856 21.9858L37.9611 21.8349L37.9351 21.6845L37.9075 21.534L37.8783 21.384L37.8477 21.2346L37.8155 21.0851L37.782 20.9367L37.7467 20.7881L37.7102 20.6405L37.6719 20.4927L37.6323 20.346L37.5912 20.1995L37.5486 20.0533L37.5046 19.908L37.4591 19.7632L37.412 19.6185L37.3637 19.4749L37.3137 19.3314L37.2625 19.1888L37.2097 19.0465L37.1556 18.9052L37.0999 18.7641L37.0429 18.6238L36.9846 18.4844L36.9249 18.3456L36.8635 18.207L36.8012 18.0697L36.7371 17.9325L36.6719 17.7966L36.6053 17.6612L36.5372 17.5263L36.468 17.3925L36.3973 17.2593L36.3252 17.1267L36.2522 16.9954L36.1775 16.8644L36.1017 16.7345L36.0244 16.6052L35.9462 16.4772L35.8663 16.3495L35.7855 16.223L35.7032 16.0971L35.6198 15.9723L35.5353 15.8486L35.4493 15.7254L35.3622 15.6033L35.274 15.4821L35.1845 15.362L35.0939 15.2426L35.0021 15.1244L34.9092 15.007L34.8151 14.8907L34.7199 14.7754L34.6235 14.661L34.526 14.5477L34.4275 14.4354L34.328 14.3242L34.2273 14.214L34.1253 14.1047L34.0228 13.9969L33.9186 13.8897L33.8139 13.784L33.708 13.6791L33.6012 13.5755L33.493 13.4727L33.3844 13.3715L33.2744 13.2711L33.1635 13.1719L33.052 13.074L32.9394 12.9772L32.8255 12.8813L32.711 12.7868L32.5957 12.6935L32.4794 12.6014L32.3622 12.5104L32.2444 12.4209L32.1253 12.3321L32.0058 12.245L31.8853 12.159L31.7639 12.0741L31.642 11.9906L31.5188 11.9081L31.3956 11.8273L31.271 11.7474L31.146 11.6689L31.02 11.5916L30.8935 11.5156L30.7663 11.441L30.6386 11.3678L30.5097 11.2955L30.3808 11.2249L30.2508 11.1554L30.1203 11.0873L29.9893 11.0206L29.8575 10.9551L29.7252 10.8909L29.5924 10.8282L29.4589 10.7667L29.3251 10.7067L29.1906 10.6479L29.0513 10.5887L28.9203 10.5346L28.784 10.4798L28.6479 10.4267L28.5107 10.3746L28.3735 10.3242L28.2357 10.275L28.0976 10.2273L27.9589 10.1808L27.8201 10.1359L27.6807 10.0923L27.541 10.0501L27.4012 10.0094L27.2608 9.96996L27.1199 9.93188L26.9792 9.89535L26.8382 9.86021L26.6963 9.82636L26.5549 9.79407L26.4128 9.76307L26.2707 9.73357L26.1281 9.70541L25.9857 9.67873L25.8429 9.65343L25.7002 9.6296L25.5568 9.6071L25.4138 9.58609L25.2705 9.56647L25.127 9.54826L24.9835 9.53148L24.84 9.51614L24.6964 9.5022L24.5527 9.48968L24.4089 9.47857L24.265 9.46887L24.1215 9.46061L23.9779 9.45376L23.8338 9.44831L23.6905 9.44429L23.5469 9.44167L23.4034 9.44047L23.2597 9.44067L23.2309 9.441L23.2762 13.2632L23.3577 13.2628L23.4626 13.2634L23.5675 13.265L23.6725 13.2677L23.7776 13.2714L23.8827 13.2762L23.9878 13.282L24.093 13.2888L24.1982 13.2967L24.3034 13.3056L24.4086 13.3156L24.5137 13.3266L24.6189 13.3387L24.724 13.3518L24.829 13.3659L24.934 13.3812L25.0389 13.3974L25.1437 13.4147L25.2485 13.4331L25.3531 13.4525L25.4576 13.473L25.562 13.4945L25.6663 13.517L25.7704 13.5406L25.8743 13.5653L25.9781 13.591L26.0816 13.6177L26.185 13.6455L26.2882 13.6743L26.3912 13.7042L26.494 13.7351L26.5965 13.767L26.6987 13.8L26.8007 13.834L26.9025 13.8691L27.0039 13.9052L27.1051 13.9423L27.2059 13.9804L27.3065 14.0196L27.4067 14.0598L27.5066 14.101L27.6061 14.1433L27.7053 14.1865L27.8041 14.2308L27.9025 14.276L28.0005 14.3223L28.0982 14.3696L28.1954 14.4179L28.2922 14.4672L28.3886 14.5175L28.4845 14.5687L28.58 14.621L28.675 14.6742L28.7695 14.7284L28.8636 14.7836L28.9572 14.8398L29.0502 14.8969L29.1427 14.955L29.2347 15.0141L29.3262 15.0741L29.4171 15.135L29.5075 15.1969L29.5973 15.2598L29.6865 15.3235L29.7751 15.3882L29.8631 15.4539L29.9506 15.5204L30.0373 15.5879L30.1235 15.6563L30.209 15.7255L30.2939 15.7957L30.3781 15.8668L30.4617 15.9387L30.5446 16.0115L30.6268 16.0852L30.7083 16.1598L30.789 16.2352L30.8691 16.3115L30.9484 16.3886L31.027 16.4666L31.1049 16.5454L31.182 16.6251L31.2584 16.7055L31.3339 16.7868L31.4087 16.8689L31.4827 16.9518L31.5559 17.0354L31.6283 17.1199L31.6999 17.2051L31.7707 17.2911L31.8406 17.3779L31.9097 17.4654L31.9779 17.5537L32.0453 17.6427L32.1118 17.7325L32.1774 17.8229L32.2422 17.9141L32.306 18.006L32.369 18.0986L32.431 18.1919L32.4921 18.2858L32.5523 18.3805L32.6116 18.4758L32.67 18.5717L32.7274 18.6683L32.7838 18.7656L32.8393 18.8634L32.8938 18.9619L32.9473 19.061L32.9999 19.1607L33.0515 19.261L33.102 19.3619L33.1516 19.4634L33.2002 19.5654L33.2477 19.6679L33.2942 19.7711L33.3397 19.8747L33.3842 19.9789L33.4276 20.0836L33.47 20.1888L33.5113 20.2945L33.5515 20.4006L33.5907 20.5073L33.6288 20.6144L33.6659 20.722L33.7019 20.83L33.7367 20.9385L33.7705 21.0473L33.8032 21.1566L33.8348 21.2663L33.8653 21.3764L33.8946 21.4869L33.9229 21.5977L33.95 21.7089L33.976 21.8204L34.0009 21.9323L34.0246 22.0445L34.0472 22.157L34.0686 22.2698L34.0889 22.383L34.1081 22.4964L34.1261 22.61L34.1429 22.724L34.1586 22.8381L34.1731 22.9525L34.1865 23.0672L34.1986 23.1821L34.2096 23.2971L34.2195 23.4124L34.2281 23.5278L34.2356 23.6434L34.2418 23.7591L34.2469 23.875L34.2508 23.9911L34.2535 24.1072L34.255 24.2235L34.2553 24.3399L34.2544 24.4563L34.2523 24.5728L34.249 24.6894L34.2445 24.8061L34.2388 24.9227L34.2319 25.0394L34.2238 25.1562L34.2145 25.2729L34.2039 25.3896L34.1922 25.5063L34.1792 25.6229L34.1651 25.7396L34.1497 25.8561L34.1331 25.9726L34.1153 26.089L34.0963 26.2053L34.0761 26.3215L34.0546 26.4376L34.032 26.5536L34.0081 26.6694L33.983 26.7851L33.9568 26.9006L33.9293 27.0159L33.9006 27.131L33.8707 27.246L33.8396 27.3607L33.8073 27.4752L33.7738 27.5894L33.7391 27.7034L33.7032 27.8172L33.666 27.9307L33.6277 28.0438L33.5882 28.1567L33.5476 28.2693L33.5057 28.3815L33.4626 28.4934L33.4184 28.605L33.373 28.7162L33.3264 28.8271L33.2786 28.9375L33.2297 29.0476L33.1796 29.1573L33.1283 29.2665L33.0759 29.3753L33.0223 29.4837L32.9675 29.5916L32.9116 29.6991L32.8546 29.806L32.7964 29.9125L32.7371 30.0185L32.6767 30.124L32.6151 30.2289L32.5524 30.3334L32.4886 30.4372L32.4237 30.5406L32.3576 30.6433L32.2905 30.7455L32.2222 30.847L32.1529 30.948L32.0825 31.0484L32.011 31.1481L31.9384 31.2472L31.8648 31.3457L31.7901 31.4435L31.7143 31.5406L31.6375 31.637L31.5596 31.7328L31.4807 31.8278L31.4008 31.9222L31.3198 32.0158L31.2378 32.1087L31.1548 32.2008L31.0708 32.2922L30.9858 32.3828L30.8999 32.4727L30.8129 32.5617L30.725 32.65L30.636 32.7374L30.5462 32.8241L30.4553 32.9099L30.3636 32.9948L30.2709 33.079L30.1772 33.1622L30.0827 33.2446L29.9872 33.3262L29.8909 33.4068L29.7936 33.4866L29.6955 33.5654L29.5964 33.6433L29.4965 33.7203L29.3958 33.7964L29.2942 33.8715L29.1917 33.9457L29.0885 34.019L28.9844 34.0912L28.8795 34.1625L28.7737 34.2328L28.6672 34.3021L28.5599 34.3704L28.4519 34.4377L28.343 34.5039L28.2335 34.5692L28.1231 34.6334L28.0121 34.6965L27.9003 34.7586L27.7878 34.8197L27.6746 34.8797L27.5607 34.9386L27.4461 34.9964L27.3309 35.0531L27.215 35.1088L27.0984 35.1633L26.9812 35.2167L26.8634 35.269L26.745 35.3202L26.6259 35.3702L26.5063 35.4191L26.3861 35.4669L26.2653 35.5135L26.144 35.559L26.0221 35.6033L25.8997 35.6464L25.7767 35.6883L25.6533 35.7291L25.5293 35.7686L25.4049 35.807L25.28 35.8442L25.1546 35.8801L25.0288 35.9149L24.9025 35.9484L24.7758 35.9807L24.6487 36.0118L24.5212 36.0417L24.3932 36.0703L24.265 36.0977L24.1363 36.1238L24.0073 36.1487L23.878 36.1724L23.7483 36.1948L23.6183 36.2159L23.4881 36.2357L23.3575 36.2543L23.2266 36.2716L23.0955 36.2877L22.9642 36.3024L22.8326 36.3159L22.7008 36.3281L22.5688 36.339L22.4366 36.3486L22.3042 36.3569L22.1716 36.3639L22.0389 36.3696L21.906 36.374L21.773 36.3771L21.6399 36.3789L21.5066 36.3794L21.3733 36.3786L21.24 36.3764L21.1065 36.373L20.973 36.3682L20.8395 36.3621L20.7059 36.3547L20.5724 36.346L20.4388 36.336L20.3053 36.3246L20.1718 36.3119L20.0383 36.2979L19.9049 36.2826L19.7716 36.266L19.6383 36.248L19.5052 36.2287L19.3722 36.2081L19.2393 36.1862L19.1065 36.1629L18.9739 36.1384L18.8415 36.1125L18.7093 36.0852L18.5772 36.0567L18.4454 36.0269L18.3138 35.9957L18.1824 35.9632L18.0513 35.9294L17.9204 35.8943L17.7898 35.8579L17.6596 35.8202L17.5296 35.7812L17.3999 35.7409L17.2706 35.6992L17.1417 35.6563L17.013 35.6121L16.8848 35.5666L16.757 35.5198L16.6295 35.4717L16.5025 35.4223L16.3759 35.3717L16.2497 35.3197L16.124 35.2665L15.9988 35.2121L15.8741 35.1563L15.7498 35.0993L15.6261 35.0411L15.5029 34.9816L15.3802 34.9208L15.258 34.8588L15.1365 34.7956L15.0155 34.7311L14.8951 34.6654L14.7753 34.5985L14.6561 34.5303L14.5375 34.461L14.4196 34.3904L14.3023 34.3186L14.1857 34.2457L14.0698 34.1715L13.9546 34.0962L13.8401 34.0196L13.7263 33.9419L13.6132 33.8631L13.5009 33.7831L13.3893 33.7019L13.2785 33.6196L13.1684 33.5361L13.0592 33.4515L12.9508 33.3658L12.8432 33.2789L12.7364 33.191L12.6304 33.1019L12.5253 33.0118L12.4211 32.9205L12.3177 32.8282L12.2152 32.7348L12.1137 32.6404L12.013 32.5449L11.9132 32.4483L11.8144 32.3507L11.7166 32.2521L11.6197 32.1524L11.5237 32.0518L11.4287 31.9501L11.3348 31.8475L11.2418 31.7438L11.1498 31.6392L11.0589 31.5336L10.9689 31.4271L10.8801 31.3196L10.7922 31.2111L10.7055 31.1018L10.6198 30.9915L10.5352 30.8803L10.4517 30.7682L10.3692 30.6553L10.2879 30.5414L10.2078 30.4267L10.1287 30.3111L10.0508 30.1947L9.97406 30.0775L9.89847 29.9594L9.82404 29.8405L9.7508 29.7208L9.67874 29.6003L9.60788 29.4791L9.53822 29.357L9.46977 29.2343L9.40255 29.1107L9.33656 28.9865L9.2718 28.8615L9.20829 28.7358L9.14604 28.6094L9.08505 28.4823L9.02533 28.3546L8.96689 28.2261L8.90973 28.0971L8.85387 27.9674L8.79931 27.837L8.74605 27.7061L8.69412 27.5746L8.6435 27.4424L8.59421 27.3097L8.54625 27.1765L8.49964 27.0426L8.45438 26.9083L8.41047 26.7734L8.36792 26.638L8.32674 26.5022L8.28693 26.3658L8.2485 26.229L8.21145 26.0917L8.1758 25.9539L8.14154 25.8158L8.10867 25.6772L8.07722 25.5382L8.04717 25.3988L8.01854 25.2591L7.99133 25.119L7.96554 24.9785L7.94118 24.8377L7.91826 24.6966L7.89677 24.5552L7.87672 24.4135L7.85812 24.2715L7.84097 24.1292L7.82527 23.9867L7.81102 23.844L7.79823 23.701L7.78691 23.5578L7.77705 23.4145L7.76865 23.2709L7.76173 23.1272L7.75628 22.9834L7.75231 22.8394L7.74981 22.6953L7.74879 22.551L7.74926 22.4067L7.7512 22.2623L7.75464 22.1179L7.75955 21.9734L7.76596 21.8288L7.77386 21.6843L7.78324 21.5397L7.79412 21.3952L7.80648 21.2506L7.82034 21.1062L7.8357 20.9617L7.85254 20.8174L7.87088 20.6731L7.89071 20.5289L7.91203 20.3848L7.93485 20.2409L7.95915 20.0971L7.98495 19.9535L8.01224 19.81L8.04102 19.6667L8.07128 19.5237L8.10304 19.3808L8.13628 19.2382L8.171 19.0958L8.2072 18.9537L8.24489 18.8119L8.28405 18.6703L8.32469 18.5291L8.36681 18.3882L8.41039 18.2476L8.45545 18.1073L8.50197 17.9675L8.54995 17.828L8.5994 17.6889L8.6503 17.5502L8.70265 17.4119L8.75645 17.2741L8.8117 17.1367L8.86839 16.9998L8.92652 16.8634L8.98608 16.7274L9.04708 16.592L9.10949 16.4571L9.17333 16.3227L9.23858 16.1889L9.30525 16.0557L9.37332 15.923L9.44279 15.791L9.51365 15.6595L9.58591 15.5287L9.65955 15.3985L9.73456 15.2689L9.81095 15.1401L9.88871 15.0119L9.96782 14.8844L10.0483 14.7576L10.1301 14.6315L10.2133 14.5062L10.2977 14.3816L10.3836 14.2578L10.4707 14.1347L10.5591 14.0124L10.6489 13.891L10.7399 13.7703L10.8323 13.6505L10.9259 13.5315L11.0208 13.4134L11.1169 13.2962L11.2143 13.1798L11.313 13.0643L11.4129 12.9497L11.514 12.8361L11.6164 12.7234L11.7199 12.6116L11.8247 12.5008L11.9307 12.3909L12.0378 12.2821L12.1461 12.1742L12.2556 12.0673L12.3663 11.9615L12.4781 11.8566L12.591 11.7529L12.7051 11.6501L12.8203 11.5485L12.9365 11.4479L13.0539 11.3484L13.1724 11.25L13.2919 11.1527L13.4125 11.0565L13.5342 10.9615L13.6569 10.8676L13.7806 10.7749L13.9054 10.6833L14.0311 10.5929L14.1578 10.5037L14.2856 10.4157L14.4143 10.3289L14.5439 10.2434L14.6746 10.159L14.8061 10.0759L14.9386 9.99404L15.072 9.91343L15.2063 9.83409L15.3414 9.75603L15.4775 9.67925L15.6144 9.60376L15.7521 9.52959L15.8907 9.45673L16.0301 9.38519L16.1703 9.31498L16.3113 9.24611L16.4531 9.17859L16.5957 9.11243L16.739 9.04763L16.8831 8.9842L17.0279 8.92216L17.1734 8.86151L17.3196 8.80225L17.4664 8.7444L17.614 8.68796L17.7622 8.63294L17.9111 8.57935L18.0606 8.52719L18.2107 8.47647L18.3614 8.4272L18.5126 8.37939L18.6645 8.33303L18.8169 8.28814L18.9699 8.24473L19.1233 8.20279L19.2773 8.16234L19.4318 8.12338L19.5868 8.08592L19.7422 8.04997L19.8981 8.01551L20.0544 7.98257L20.2111 7.95115L20.3683 7.92126L20.5258 7.89289L20.6837 7.86605L20.842 7.84075L21.0006 7.81699L21.1595 7.79478L21.3187 7.77411L21.3781 7.76699ZM21.4453 13.4361L21.3995 9.57189L21.269 9.59013L21.1287 9.61116L20.9883 9.63359L20.8488 9.6573L20.7091 9.68246L20.5701 9.70891L20.4314 9.73672L20.2932 9.76583L20.1553 9.79632L20.0177 9.82816L19.8805 9.86131L19.7439 9.89577L19.6074 9.93161L19.4763 9.9674L19.3366 10.0071L19.2017 10.0468L19.0674 10.0878L18.9338 10.13L18.8005 10.1736L18.6677 10.2185L18.5355 10.2646L18.404 10.3119L18.273 10.3606L18.1426 10.4104L18.0127 10.4616L17.8838 10.5139L17.7549 10.5676L17.627 10.6224L17.4997 10.6784L17.3733 10.7356L17.2472 10.7941L17.1218 10.8538L16.9975 10.9145L16.8734 10.9766L16.7506 11.0397L16.628 11.1042L16.5066 11.1695L16.3854 11.2364L16.2654 11.304L16.1462 11.3729L16.0276 11.443L15.9099 11.5141L15.7928 11.5865L15.6769 11.6597L15.5615 11.7342L15.4472 11.8097L15.3337 11.8862L15.221 11.9639L15.109 12.0427L14.9983 12.1222L14.8882 12.2031L14.779 12.2849L14.6708 12.3677L14.5636 12.4514L14.4571 12.5363L14.3518 12.622L14.2474 12.7087L14.1438 12.7966L14.0415 12.8851L13.9399 12.9748L13.8393 13.0654L13.7398 13.1568L13.6414 13.2491L13.5437 13.3425L13.4474 13.4365L13.352 13.5315L13.2575 13.6275L13.1642 13.7242L13.0719 13.8219L12.9807 13.9203L12.8906 14.0195L12.8015 14.1196L12.7134 14.2206L12.6268 14.3221L12.541 14.4246L12.4563 14.5279L12.3728 14.6318L12.2905 14.7364L12.2091 14.842L12.129 14.9481L12.05 15.055L11.9722 15.1626L11.8955 15.2709L11.8201 15.3797L11.7458 15.4893L11.6726 15.5996L11.6006 15.7105L11.5299 15.8219L11.4604 15.934L11.392 16.0469L11.3248 16.1601L11.2589 16.274L11.1941 16.3885L11.1307 16.5033L11.0684 16.6189L11.0072 16.7351L10.9475 16.8515L10.8889 16.9687L10.8316 17.0863L10.7755 17.2042L10.7207 17.3228L10.6671 17.4417L10.6148 17.5611L10.5637 17.6809L10.514 17.8011L10.4655 17.9217L10.4182 18.0428L10.3722 18.1642L10.3276 18.2859L10.2841 18.4081L10.2421 18.5304L10.2012 18.6532L10.1617 18.7763L10.1234 18.8997L10.0865 19.0233L10.0508 19.1472L10.0165 19.2713L9.98341 19.3958L9.95165 19.5204L9.9212 19.6453L9.89206 19.7704L9.86421 19.8956L9.83766 20.0211L9.81245 20.1467L9.78852 20.2724L9.7659 20.3984L9.74461 20.5244L9.7246 20.6506L9.70593 20.7767L9.68854 20.9031L9.67248 21.0295L9.65772 21.156L9.64427 21.2825L9.63213 21.4091L9.6213 21.5357L9.61178 21.6622L9.60356 21.7889L9.59664 21.9155L9.59103 22.042L9.58673 22.1685L9.58372 22.2949L9.58202 22.4213L9.58161 22.5477L9.5825 22.6739L9.58469 22.8L9.58817 22.926L9.59293 23.0518L9.59899 23.1776L9.60633 23.3032L9.61495 23.4285L9.62486 23.5538L9.63604 23.6788L9.6485 23.8036L9.66223 23.9282L9.67722 24.0526L9.69349 24.1768L9.71101 24.3006L9.7298 24.4243L9.74983 24.5475L9.77112 24.6706L9.79366 24.7934L9.81743 24.9157L9.84245 25.0379L9.86869 25.1596L9.89618 25.2811L9.92486 25.402L9.9548 25.5227L9.98594 25.643L10.0183 25.7629L10.0518 25.8823L10.0866 26.0014L10.1225 26.12L10.1597 26.2382L10.198 26.356L10.2375 26.4732L10.2782 26.5899L10.32 26.7062L10.363 26.822L10.4072 26.9373L10.4525 27.052L10.4989 27.1662L10.5465 27.2799L10.5952 27.393L10.6451 27.5055L10.696 27.6175L10.7481 27.7288L10.8013 27.8396L10.8555 27.9498L10.9109 28.0593L10.9673 28.1683L11.0248 28.2766L11.0834 28.3842L11.143 28.4912L11.2037 28.5975L11.2654 28.7031L11.3282 28.808L11.392 28.9123L11.4568 29.0158L11.5226 29.1186L11.5895 29.2208L11.6572 29.322L11.7261 29.4227L11.7958 29.5225L11.8666 29.6216L11.9383 29.7199L12.011 29.8174L12.0846 29.9141L12.1592 30.0101L12.2346 30.1052L12.311 30.1995L12.3883 30.293L12.4665 30.3857L12.5456 30.4774L12.6256 30.5685L12.7064 30.6585L12.7881 30.7478L12.8706 30.8361L12.954 30.9236L13.0382 31.0102L13.1233 31.0959L13.2091 31.1807L13.2958 31.2646L13.3833 31.3476L13.4714 31.4296L13.5605 31.5108L13.6502 31.5909L13.7407 31.6701L13.832 31.7484L13.924 31.8257L14.0167 31.9021L14.1101 31.9774L14.2042 32.0518L14.299 32.1252L14.3945 32.1977L14.4907 32.2691L14.5874 32.3395L14.6848 32.4089L14.7829 32.4773L14.8816 32.5447L14.981 32.6111L15.0809 32.6764L15.1814 32.7407L15.2825 32.804L15.3841 32.8662L15.4863 32.9274L15.5891 32.9875L15.6923 33.0465L15.7962 33.1045L15.9004 33.1614L16.0053 33.2173L16.1106 33.2721L16.2163 33.3257L16.3226 33.3784L16.4294 33.4299L16.5365 33.4804L16.644 33.5297L16.7521 33.578L16.8604 33.6251L16.9692 33.6711L17.0784 33.7161L17.188 33.7599L17.2978 33.8026L17.4081 33.8442L17.5187 33.8847L17.6296 33.9241L17.7408 33.9623L17.8524 33.9995L17.9642 34.0354L18.0763 34.0703L18.1887 34.104L18.3013 34.1366L18.4141 34.1681L18.5272 34.1984L18.6405 34.2277L18.754 34.2557L18.8677 34.2826L18.9816 34.3084L19.0957 34.3331L19.2099 34.3566L19.3242 34.3789L19.4388 34.4001L19.5533 34.4202L19.6681 34.4392L19.7829 34.4569L19.8978 34.4736L20.0128 34.4891L20.1278 34.5035L20.2429 34.5167L20.358 34.5288L20.4732 34.5397L20.5884 34.5495L20.7036 34.5581L20.8188 34.5657L20.9339 34.572L21.049 34.5773L21.1642 34.5814L21.2792 34.5844L21.3941 34.5862L21.509 34.5869L21.6238 34.5865L21.7385 34.5849L21.8531 34.5823L21.9675 34.5785L22.0819 34.5736L22.196 34.5675L22.31 34.5604L22.4238 34.5521L22.5375 34.5427L22.6509 34.5322L22.7642 34.5206L22.8773 34.5079L22.9901 34.4941L23.1027 34.4792L23.215 34.4633L23.3271 34.4462L23.4389 34.428L23.5503 34.4088L23.6616 34.3884L23.7725 34.367L23.8831 34.3446L23.9935 34.321L24.1033 34.2964L24.2129 34.2708L24.3221 34.244L24.431 34.2163L24.5395 34.1875L24.6476 34.1576L24.7553 34.1267L24.8626 34.0948L24.9694 34.0619L25.0758 34.0279L25.1819 33.9929L25.2874 33.9569L25.3925 33.9199L25.4971 33.8819L25.6012 33.8429L25.7048 33.8029L25.8079 33.7619L25.9106 33.7199L26.0127 33.677L26.1142 33.6331L26.2153 33.5883L26.3157 33.5425L26.4157 33.4957L26.5151 33.448L26.6137 33.3995L26.7121 33.3498L26.8096 33.2994L26.9067 33.2479L27.0029 33.1957L27.0987 33.1425L27.1939 33.0884L27.2883 33.0334L27.3822 32.9775L27.4754 32.9208L27.5678 32.8632L27.6598 32.8047L27.7508 32.7455L27.8413 32.6853L27.9312 32.6242L28.0202 32.5624L28.1084 32.4999L28.1962 32.4363L28.283 32.3722L28.3692 32.3071L28.4547 32.2412L28.5391 32.1747L28.6232 32.1072L28.7064 32.039L28.7885 31.9702L28.8703 31.9003L28.951 31.83L29.0309 31.759L29.1103 31.6869L29.1885 31.6145L29.2661 31.5412L29.3429 31.4672L29.4187 31.3926L29.4938 31.3172L29.5681 31.2412L29.6415 31.1645L29.7139 31.0872L29.7856 31.0092L29.8565 30.9306L29.9263 30.8515L29.9955 30.7715L30.0636 30.6911L30.1308 30.6101L30.1973 30.5283L30.2627 30.4463L30.3273 30.3634L30.391 30.2801L30.4538 30.1961L30.5156 30.1117L30.5764 30.0269L30.6365 29.9412L30.6955 29.8553L30.7536 29.7688L30.8109 29.6817L30.8669 29.5944L30.9223 29.5064L30.9766 29.4179L31.03 29.3291L31.0823 29.2398L31.1339 29.1499L31.1842 29.06L31.2338 28.9692L31.2823 28.8783L31.3297 28.787L31.3764 28.695L31.4218 28.6032L31.4665 28.5104L31.5099 28.4179L31.5527 28.3244L31.5941 28.2311L31.6348 28.137L31.6744 28.043L31.7129 27.9486L31.7505 27.8538L31.7871 27.7587L31.8225 27.6636L31.8572 27.5679L31.8906 27.4721L31.9231 27.3761L31.9546 27.2798L31.9851 27.1832L32.0146 27.0865L32.043 26.9897L32.0704 26.8925L32.0967 26.7953L32.1221 26.6978L32.1464 26.6002L32.1697 26.5026L32.192 26.4045L32.2132 26.3065L32.2335 26.2084L32.2526 26.1103L32.2708 26.012L32.2879 25.9133L32.304 25.815L32.3191 25.7164L32.3331 25.6177L32.3461 25.5192L32.3581 25.4205L32.3691 25.3215L32.379 25.2232L32.388 25.1241L32.3959 25.0254L32.4027 24.9269L32.4086 24.8281L32.4134 24.7295L32.4172 24.631L32.42 24.5322L32.4217 24.434L32.4225 24.3354L32.4222 24.2371L32.421 24.1388L32.4187 24.0409L32.4154 23.9428L32.4111 23.8449L32.4058 23.7474L32.3995 23.6496L32.3922 23.5521L32.384 23.4551L32.3747 23.3578L32.3644 23.2611L32.3531 23.1642L32.3409 23.0678L32.3277 22.9715L32.3135 22.8753L32.2983 22.7795L32.2822 22.684L32.2651 22.5887L32.247 22.4937L32.2279 22.3986L32.2079 22.3042L32.187 22.2101L32.1651 22.1161L32.1422 22.0223L32.1185 21.9293L32.0937 21.836L32.0681 21.7435L32.0415 21.6511L32.014 21.5593L31.9856 21.4676L31.9562 21.3763L31.926 21.2856L31.8949 21.1952L31.8627 21.1049L31.8299 21.0154L31.796 20.9261L31.7613 20.8374L31.7257 20.7489L31.6892 20.6608L31.6519 20.5735L31.6136 20.4863L31.5746 20.3998L31.5347 20.3138L31.4939 20.228L31.4522 20.1427L31.4099 20.0582L31.3665 19.9739L31.3225 19.8904L31.2776 19.8074L31.2318 19.7245L31.1854 19.6426L31.138 19.561L31.0899 19.4801L31.0409 19.3995L30.9914 19.3198L30.9408 19.2403L30.8897 19.1617L30.8377 19.0836L30.785 19.0061L30.7314 18.929L30.6772 18.8527L30.6224 18.7771L30.5666 18.7018L30.5103 18.6274L30.4531 18.5535L30.3955 18.4804L30.3369 18.4077L30.2777 18.3358L30.2178 18.2645L30.1573 18.1938L30.0962 18.124L30.0342 18.0546L29.9718 17.9861L29.9086 17.9181L29.845 17.8511L29.7804 17.7844L29.7155 17.7187L29.6497 17.6534L29.5835 17.5891L29.5168 17.5255L29.4494 17.4625L29.3813 17.4002L29.3127 17.3388L29.2436 17.2781L29.1737 17.2179L29.1038 17.1589L29.0329 17.1002L28.9616 17.0425L28.8898 16.9856L28.8174 16.9292L28.7446 16.8738L28.6715 16.8193L28.5975 16.7653L28.523 16.712L28.4485 16.6599L28.373 16.6082L28.2976 16.5577L28.2215 16.5077L28.1449 16.4585L28.0678 16.4101L27.9906 16.3627L27.9126 16.3159L27.8345 16.2701L27.7557 16.2249L27.677 16.1808L27.5976 16.1374L27.5178 16.0947L27.4377 16.0529L27.3574 16.0121L27.2766 15.9719L27.1954 15.9326L27.1141 15.8942L27.0326 15.8567L26.9502 15.8198L26.8682 15.784L26.7856 15.749L26.7026 15.7147L26.6195 15.6814L26.5363 15.649L26.4527 15.6174L26.3686 15.5865L26.2847 15.5567L26.2003 15.5276L26.1157 15.4994L26.0312 15.4721L25.9463 15.4457L25.8614 15.4201L25.7758 15.3953L25.6905 15.3715L25.605 15.3485L25.5193 15.3264L25.4335 15.3051L25.3473 15.2847L25.2613 15.2652L25.1753 15.2466L25.0889 15.2288L25.0023 15.2118L24.9162 15.1959L24.8295 15.1807L24.743 15.1664L24.6561 15.1529L24.5697 15.1404L24.4826 15.1286L24.3961 15.1179L24.3093 15.1079L24.2225 15.0988L24.1358 15.0906L24.0489 15.0832L23.9624 15.0767L23.8754 15.0711L23.7888 15.0663L23.7024 15.0624L23.6154 15.0593L23.5291 15.0571L23.4427 15.0558L23.3564 15.0553L23.2974 15.0555L23.3421 18.8309L23.3688 18.831L23.4184 18.8317L23.4681 18.8329L23.5179 18.8345L23.5677 18.8368L23.6176 18.8395L23.6675 18.8427L23.7175 18.8465L23.7675 18.8508L23.8176 18.8556L23.8677 18.8609L23.9178 18.8667L23.968 18.8731L24.0181 18.88L24.0683 18.8874L24.1185 18.8954L24.1687 18.9039L24.2188 18.9129L24.269 18.9225L24.3191 18.9325L24.3692 18.9432L24.4193 18.9543L24.4694 18.966L24.5193 18.9782L24.5693 18.9909L24.6192 19.0042L24.669 19.018L24.7188 19.0323L24.7685 19.0472L24.8181 19.0626L24.8676 19.0786L24.9171 19.0951L24.9664 19.1121L25.0157 19.1296L25.0648 19.1477L25.1138 19.1663L25.1627 19.1854L25.2115 19.2051L25.2601 19.2253L25.3086 19.246L25.357 19.2673L25.4052 19.2891L25.4533 19.3114L25.5012 19.3343L25.5489 19.3576L25.5965 19.3815L25.6438 19.406L25.691 19.4309L25.738 19.4564L25.7848 19.4824L25.8314 19.5089L25.8778 19.5359L25.9239 19.5634L25.9699 19.5915L26.0156 19.6201L26.0611 19.6492L26.1063 19.6787L26.1513 19.7088L26.1961 19.7395L26.2406 19.7706L26.2848 19.8022L26.3288 19.8343L26.3725 19.8669L26.4159 19.9L26.459 19.9336L26.5019 19.9677L26.5444 20.0023L26.5866 20.0373L26.6286 20.0729L26.6702 20.1089L26.7115 20.1454L26.7525 20.1824L26.7931 20.2199L26.8334 20.2578L26.8733 20.2962L26.913 20.3351L26.9522 20.3744L26.9911 20.4142L27.0297 20.4544L27.0678 20.4951L27.1056 20.5363L27.143 20.5779L27.1801 20.6199L27.2167 20.6624L27.2529 20.7053L27.2888 20.7486L27.3242 20.7924L27.3592 20.8366L27.3938 20.8812L27.428 20.9263L27.4618 20.9717L27.4951 21.0176L27.5279 21.0638L27.5604 21.1105L27.5924 21.1576L27.6239 21.2051L27.655 21.2529L27.6857 21.3012L27.7158 21.3498L27.7455 21.3988L27.7747 21.4482L27.8034 21.4979L27.8317 21.548L27.8594 21.5985L27.8867 21.6493L27.9135 21.7005L27.9397 21.752L27.9655 21.8038L27.9907 21.856L28.0154 21.9086L28.0396 21.9614L28.0633 22.0146L28.0865 22.0681L28.1091 22.1219L28.1312 22.176L28.1527 22.2304L28.1737 22.2851L28.1942 22.3401L28.2141 22.3954L28.2334 22.451L28.2522 22.5068L28.2704 22.5629L28.288 22.6193L28.3051 22.6759L28.3216 22.7328L28.3375 22.79L28.3529 22.8473L28.3677 22.9049L28.3818 22.9628L28.3954 23.0209L28.4084 23.0791L28.4208 23.1377L28.4326 23.1964L28.4437 23.2552L28.4543 23.3144L28.4643 23.3737L28.4737 23.4331L28.4824 23.4928L28.4905 23.5526L28.498 23.6126L28.5049 23.6728L28.5112 23.7331L28.5168 23.7935L28.5218 23.8541L28.5262 23.9149L28.5299 23.9757L28.533 24.0367L28.5354 24.0978L28.5373 24.159L28.5384 24.2203L28.539 24.2817L28.5388 24.3431L28.5381 24.4047L28.5367 24.4664L28.5346 24.5281L28.5319 24.5899L28.5285 24.6517L28.5245 24.7136L28.5198 24.7755L28.5144 24.8375L28.5084 24.8995L28.5018 24.9615L28.4944 25.0235L28.4864 25.0856L28.4778 25.1477L28.4685 25.2097L28.4585 25.2717L28.4478 25.3337L28.4365 25.3957L28.4245 25.4577L28.4119 25.5196L28.3985 25.5815L28.3845 25.6433L28.3699 25.7051L28.3545 25.7668L28.3385 25.8285L28.3219 25.89L28.3045 25.9515L28.2865 26.0128L28.2678 26.0741L28.2485 26.1353L28.2285 26.1963L28.2078 26.2573L28.1865 26.3181L28.1644 26.3787L28.1417 26.4393L28.1184 26.4996L28.0944 26.5599L28.0697 26.6199L28.0444 26.6798L28.0184 26.7395L27.9917 26.7991L27.9644 26.8584L27.9364 26.9175L27.9077 26.9765L27.8785 27.0352L27.8485 27.0937L27.8179 27.152L27.7866 27.21L27.7547 27.2678L27.7222 27.3254L27.689 27.3827L27.6551 27.4398L27.6207 27.4965L27.5855 27.5531L27.5498 27.6093L27.5134 27.6652L27.4763 27.7209L27.4387 27.7762L27.4004 27.8313L27.3615 27.886L27.3219 27.9404L27.2818 27.9945L27.241 28.0482L27.1996 28.1016L27.1576 28.1547L27.115 28.2074L27.0718 28.2597L27.028 28.3117L26.9836 28.3633L26.9385 28.4145L26.8929 28.4653L26.8467 28.5158L26.7999 28.5658L26.7526 28.6154L26.7046 28.6647L26.6561 28.7135L26.607 28.7618L26.5574 28.8098L26.5071 28.8573L26.4563 28.9043L26.405 28.9509L26.3531 28.9971L26.3007 29.0428L26.2477 29.088L26.1942 29.1327L26.1401 29.177L26.0855 29.2208L26.0304 29.264L25.9748 29.3068L25.9187 29.3491L25.862 29.3909L25.8049 29.4321L25.7472 29.4728L25.6891 29.5131L25.6304 29.5527L25.5713 29.5919L25.5117 29.6304L25.4516 29.6685L25.391 29.706L25.33 29.7429L25.2685 29.7792L25.2066 29.815L25.1442 29.8502L25.0813 29.8848L25.0181 29.9189L24.9544 29.9523L24.8903 29.9852L24.8257 30.0174L24.7608 30.0491L24.6954 30.0801L24.6296 30.1105L24.5635 30.1403L24.4969 30.1694L24.43 30.198L24.3627 30.2259L24.295 30.2531L24.2269 30.2797L24.1585 30.3057L24.0897 30.331L24.0206 30.3557L23.9512 30.3797L23.8814 30.403L23.8113 30.4257L23.7409 30.4476L23.6702 30.4689L23.5991 30.4896L23.5278 30.5095L23.4562 30.5288L23.3843 30.5473L23.3121 30.5652L23.2396 30.5823L23.1669 30.5988L23.0939 30.6145L23.0207 30.6296L22.9472 30.6439L22.8735 30.6575L22.7996 30.6704L22.7254 30.6826L22.6511 30.694L22.5765 30.7047L22.5018 30.7147L22.4268 30.724L22.3517 30.7325L22.2764 30.7402L22.2009 30.7473L22.1253 30.7535L22.0495 30.7591L21.9735 30.7638L21.8975 30.7679L21.8213 30.7712L21.745 30.7737L21.6685 30.7754L21.592 30.7764L21.5154 30.7767L21.4387 30.7762L21.3619 30.7749L21.285 30.7728L21.2081 30.77L21.1311 30.7664L21.054 30.762L20.9769 30.7569L20.8998 30.751L20.8227 30.7443L20.7455 30.7368L20.6684 30.7286L20.5912 30.7195L20.5141 30.7097L20.4369 30.6991L20.3598 30.6878L20.2827 30.6756L20.2057 30.6627L20.1287 30.649L20.0518 30.6345L19.9749 30.6193L19.8981 30.6032L19.8214 30.5864L19.7448 30.5687L19.6683 30.5503L19.5918 30.5312L19.5155 30.5112L19.4394 30.4904L19.3633 30.4689L19.2875 30.4466L19.2117 30.4235L19.1361 30.3996L19.0607 30.375L18.9854 30.3496L18.9104 30.3234L18.8355 30.2964L18.7608 30.2686L18.6864 30.2401L18.6121 30.2108L18.5381 30.1807L18.4643 30.1499L18.3908 30.1183L18.3175 30.0859L18.2444 30.0528L18.1717 30.0189L18.0991 29.9842L18.0269 29.9488L17.955 29.9126L17.8834 29.8757L17.8121 29.838L17.7411 29.7996L17.6704 29.7604L17.6001 29.7205L17.53 29.6798L17.4604 29.6384L17.3911 29.5963L17.3222 29.5534L17.2536 29.5098L17.1854 29.4655L17.1176 29.4204L17.0502 29.3746L16.9833 29.3281L16.9167 29.2809L16.8505 29.233L16.7848 29.1843L16.7195 29.135L16.6547 29.085L16.5903 29.0342L16.5264 28.9828L16.4629 28.9307L16.3999 28.8779L16.3374 28.8244L16.2754 28.7702L16.2139 28.7154L16.1529 28.6599L16.0924 28.6037L16.0324 28.5469L15.973 28.4894L15.914 28.4313L15.8557 28.3725L15.7979 28.3131L15.7406 28.253L15.6839 28.1924L15.6278 28.131L15.5723 28.0691L15.5173 28.0066L15.463 27.9434L15.4092 27.8797L15.356 27.8153L15.3035 27.7503L15.2516 27.6848L15.2003 27.6187L15.1496 27.552L15.0996 27.4847L15.0503 27.4169L15.0016 27.3485L14.9535 27.2795L14.9061 27.21L14.8594 27.14L14.8134 27.0694L14.7681 26.9983L14.7234 26.9267L14.6795 26.8546L14.6362 26.7819L14.5937 26.7088L14.5519 26.6351L14.5108 26.561L14.4704 26.4864L14.4308 26.4113L14.3919 26.3357L14.3537 26.2597L14.3163 26.1833L14.2797 26.1063L14.2438 26.029L14.2087 25.9512L14.1744 25.873L14.1408 25.7943L14.108 25.7153L14.076 25.6358L14.0448 25.556L14.0144 25.4757L13.9849 25.3951L13.9561 25.3141L13.9281 25.2328L13.9009 25.1511L13.8746 25.069L13.8491 24.9866L13.8244 24.9039L13.8005 24.8208L13.7775 24.7374L13.7554 24.6537L13.734 24.5697L13.7136 24.4854L13.694 24.4009L13.6752 24.316L13.6573 24.2309L13.6403 24.1455L13.6241 24.0599L13.6088 23.974L13.5944 23.8879L13.5809 23.8016L13.5682 23.715L13.5564 23.6283L13.5456 23.5413L13.5356 23.4542L13.5265 23.3668L13.5183 23.2793L13.511 23.1916L13.5046 23.1038L13.4991 23.0158L13.4945 22.9277L13.4908 22.8395L13.488 22.7511L13.4862 22.6626L13.4853 22.5741L13.4852 22.4854L13.4861 22.3966L13.488 22.3078L13.4907 22.2189L13.4944 22.1299L13.499 22.0409L13.5045 21.9519L13.5109 21.8628L13.5183 21.7737L13.5266 21.6846L13.5358 21.5955L13.546 21.5064L13.5571 21.4173L13.5691 21.3283L13.5821 21.2393L13.596 21.1503L13.6109 21.0614L13.6266 20.9725L13.6433 20.8837L13.661 20.795L13.6796 20.7064L13.6991 20.6179L13.7195 20.5295L13.7409 20.4413L13.7632 20.3531L13.7865 20.2651L13.8107 20.1773L13.8358 20.0896L13.8618 20.002L13.8888 19.9147L13.9167 19.8275L13.9455 19.7405L13.9753 19.6538L14.006 19.5672L14.0376 19.4809L14.0701 19.3948L14.1036 19.309L14.138 19.2234L14.1733 19.138L14.2095 19.053L14.2466 18.9682L14.2847 18.8837L14.3236 18.7995L14.3635 18.7156L14.4042 18.6321L14.4459 18.5488L14.4884 18.4659L14.5319 18.3834L14.5762 18.3012L14.6215 18.2194L14.6676 18.1379L14.7146 18.0568L14.7625 17.9762L14.8113 17.8959L14.8609 17.816L14.9115 17.7366L14.9629 17.6575L15.0151 17.5789L15.0682 17.5008L15.1222 17.4231L15.177 17.3459L15.2327 17.2692L15.2892 17.1929L15.3465 17.1171L15.4047 17.0419L15.4637 16.9671L15.5236 16.8929L15.5843 16.8191L15.6457 16.746L15.708 16.6733L15.7711 16.6012L15.835 16.5297L15.8997 16.4587L15.9652 16.3884L16.0315 16.3186L16.0986 16.2494L16.1664 16.1808L16.235 16.1128L16.3044 16.0454L16.3745 15.9787L16.4454 15.9126L16.517 15.8471L16.5893 15.7823L16.6624 15.7181L16.7363 15.6547L16.8108 15.5918L16.8861 15.5297L16.962 15.4683L17.0387 15.4075L17.116 15.3475L17.1941 15.2882L17.2728 15.2296L17.3522 15.1717L17.4323 15.1146L17.513 15.0582L17.5944 15.0025L17.6765 14.9476L17.7591 14.8935L17.8424 14.8402L17.9264 14.7876L18.0109 14.7358L18.0961 14.6848L18.1818 14.6346L18.2682 14.5852L18.3551 14.5366L18.4426 14.4888L18.5307 14.4419L18.6193 14.3958L18.7085 14.3505L18.7982 14.3061L18.8885 14.2625L18.9793 14.2198L19.0706 14.1779L19.1624 14.1369L19.2547 14.0968L19.3476 14.0575L19.4409 14.0191L19.5346 13.9817L19.6289 13.9451L19.7236 13.9094L19.8187 13.8746L19.9143 13.8408L20.0104 13.8078L20.1068 13.7758L20.2037 13.7447L20.3009 13.7145L20.3986 13.6853L20.4966 13.657L20.595 13.6297L20.6938 13.6033L20.7929 13.5778L20.8924 13.5533L20.9922 13.5298L21.0924 13.5073L21.1928 13.4857L21.2936 13.4651L21.3946 13.4455L21.4453 13.4361ZM22.6872 20.6964L21.5346 20.9718L21.4669 15.2623L21.4126 15.2745L21.3308 15.2938L21.2491 15.3139L21.168 15.3347L21.087 15.3563L21.0065 15.3787L20.926 15.402L20.8463 15.4258L20.7664 15.4506L20.6875 15.4759L20.6084 15.5022L20.5298 15.5292L20.4516 15.5569L20.3737 15.5853L20.2965 15.6144L20.2194 15.6444L20.1427 15.675L20.0665 15.7063L19.9904 15.7385L19.9153 15.7711L19.8402 15.8047L19.7658 15.8388L19.6915 15.8738L19.6179 15.9093L19.5445 15.9456L19.4719 15.9825L19.3996 16.0201L19.3278 16.0584L19.2565 16.0973L19.1856 16.1369L19.1152 16.1772L19.0456 16.218L18.9759 16.2597L18.9071 16.3018L18.8389 16.3446L18.7711 16.388L18.7037 16.4321L18.637 16.4768L18.5708 16.5221L18.5051 16.5679L18.4401 16.6143L18.3754 16.6614L18.3114 16.7091L18.248 16.7573L18.1851 16.8061L18.1229 16.8553L18.0613 16.9052L18.0001 16.9557L17.9395 17.0068L17.8797 17.0582L17.8204 17.1103L17.7617 17.1628L17.7036 17.2159L17.6461 17.2696L17.5893 17.3237L17.5331 17.3782L17.4774 17.4334L17.4225 17.4889L17.3682 17.545L17.3146 17.6014L17.2614 17.6586L17.2091 17.7159L17.1574 17.7738L17.1063 17.8322L17.056 17.8908L17.0062 17.9501L16.9573 18.0095L16.9088 18.0697L16.8612 18.13L16.8141 18.1909L16.7678 18.2522L16.7222 18.3137L16.6772 18.3756L16.633 18.4379L16.5894 18.5007L16.5465 18.5637L16.5044 18.6272L16.463 18.6908L16.4223 18.7548L16.3822 18.8193L16.343 18.8839L16.3043 18.9491L16.2665 19.0142L16.2293 19.0799L16.1928 19.1458L16.1572 19.2119L16.1222 19.2783L16.088 19.345L16.0544 19.4121L16.0217 19.4791L15.9896 19.5467L15.9583 19.6143L15.9278 19.6822L15.8979 19.7503L15.8688 19.8187L15.8405 19.8871L15.8129 19.9559L15.7861 20.0248L15.7599 20.0939L15.7346 20.163L15.71 20.2325L15.6861 20.3021L15.663 20.3718L15.6406 20.4416L15.619 20.5117L15.5981 20.5818L15.5781 20.6519L15.5587 20.7223L15.54 20.7928L15.5222 20.8633L15.5051 20.9339L15.4887 21.0046L15.4731 21.0754L15.4583 21.1463L15.4442 21.2171L15.4308 21.288L15.4182 21.3591L15.4064 21.43L15.3953 21.501L15.3849 21.5722L15.3753 21.6431L15.3665 21.7143L15.3584 21.7852L15.351 21.8563L15.3444 21.9275L15.3385 21.9984L15.3334 22.0694L15.329 22.1404L15.3253 22.2112L15.3224 22.282L15.3202 22.3527L15.3188 22.4235L15.318 22.4941L15.3181 22.5646L15.3188 22.635L15.3203 22.7054L15.3225 22.7756L15.3254 22.8457L15.329 22.9157L15.3334 22.9855L15.3385 23.0552L15.3443 23.1248L15.3508 23.1942L15.358 23.2636L15.3659 23.3325L15.3745 23.4016L15.3838 23.4702L15.3939 23.5389L15.4046 23.6072L15.416 23.6754L15.4281 23.7435L15.4409 23.8112L15.4544 23.8788L15.4685 23.946L15.4834 24.0132L15.4989 24.08L15.5151 24.1467L15.5319 24.2129L15.5495 24.2792L15.5676 24.3449L15.5864 24.4106L15.6059 24.4758L15.626 24.5409L15.6468 24.6056L15.6682 24.6699L15.6903 24.7342L15.713 24.798L15.7363 24.8614L15.7602 24.9247L15.7848 24.9876L15.81 25.0501L15.8358 25.1123L15.8621 25.1741L15.8892 25.2357L15.9168 25.2969L15.945 25.3577L15.9738 25.4181L16.0031 25.4781L16.0332 25.538L16.0636 25.5972L16.0947 25.6561L16.1264 25.7147L16.1587 25.7728L16.1915 25.8306L16.2248 25.888L16.2587 25.9448L16.2932 26.0014L16.3281 26.0575L16.3636 26.1131L16.3997 26.1684L16.4362 26.2232L16.4733 26.2777L16.5108 26.3314L16.5489 26.385L16.5875 26.438L16.6265 26.4905L16.6662 26.5427L16.7062 26.5943L16.7467 26.6454L16.7877 26.6961L16.8292 26.7464L16.871 26.796L16.9135 26.8453L16.9563 26.8941L16.9995 26.9423L17.0434 26.9901L17.0874 27.0372L17.132 27.0841L17.177 27.1303L17.2223 27.176L17.2682 27.2212L17.3144 27.2659L17.361 27.3101L17.408 27.3537L17.4554 27.3968L17.5032 27.4394L17.5513 27.4814L17.5998 27.5229L17.6486 27.5639L17.6978 27.6043L17.7474 27.6442L17.7974 27.6835L17.8475 27.7222L17.8981 27.7604L17.949 27.7981L18.0002 27.8352L18.0517 27.8717L18.1035 27.9077L18.1556 27.9431L18.208 27.9779L18.2606 28.0121L18.3135 28.0458L18.3669 28.079L18.4203 28.1114L18.474 28.1434L18.5281 28.1748L18.5822 28.2055L18.6366 28.2357L18.6915 28.2654L18.7464 28.2944L18.8015 28.3228L18.8568 28.3506L18.9125 28.3779L18.9681 28.4045L19.0242 28.4306L19.0803 28.4561L19.1365 28.4809L19.1931 28.5052L19.2498 28.5289L19.3065 28.552L19.3635 28.5745L19.4206 28.5963L19.478 28.6176L19.5352 28.6383L19.5929 28.6584L19.6504 28.6778L19.7081 28.6967L19.766 28.715L19.824 28.7327L19.882 28.7497L19.9401 28.7662L19.9984 28.782L20.0567 28.7973L20.115 28.8119L20.1734 28.826L20.2318 28.8394L20.2903 28.8522L20.3489 28.8645L20.4075 28.8761L20.4661 28.8872L20.5247 28.8976L20.5834 28.9075L20.6421 28.9167L20.7008 28.9254L20.7593 28.9334L20.818 28.9408L20.8766 28.9477L20.9353 28.954L20.9939 28.9596L21.0525 28.9647L21.111 28.9692L21.1694 28.9731L21.2279 28.9764L21.2862 28.9791L21.3444 28.9813L21.4028 28.9828L21.4608 28.9838L21.5188 28.9842L21.5768 28.984L21.6346 28.9833L21.6925 28.9819L21.7502 28.98L21.8076 28.9776L21.865 28.9745L21.9225 28.9709L21.9795 28.9667L22.0366 28.962L22.0934 28.9567L22.1502 28.9509L22.2068 28.9444L22.2631 28.9375L22.3195 28.93L22.3755 28.9219L22.4313 28.9133L22.4872 28.9042L22.5427 28.8945L22.598 28.8843L22.6532 28.8735L22.7082 28.8622L22.7628 28.8504L22.8172 28.8381L22.8716 28.8252L22.9257 28.8118L22.9795 28.798L23.0331 28.7836L23.0864 28.7687L23.1397 28.7532L23.1925 28.7373L23.2449 28.7209L23.2975 28.7039L23.3495 28.6865L23.4013 28.6687L23.4528 28.6503L23.504 28.6314L23.5551 28.612L23.6058 28.5922L23.6561 28.5719L23.7062 28.5512L23.756 28.5299L23.8056 28.5082L23.8546 28.4861L23.9036 28.4635L23.9521 28.4405L24.0002 28.417L24.0482 28.3931L24.0956 28.3688L24.1429 28.344L24.1898 28.3187L24.2363 28.2931L24.2824 28.2671L24.3283 28.2406L24.3738 28.2137L24.4188 28.1864L24.4635 28.1587L24.5079 28.1306L24.5519 28.1022L24.5956 28.0733L24.6388 28.0441L24.6817 28.0144L24.7242 27.9844L24.7662 27.9541L24.8079 27.9233L24.8492 27.8922L24.8901 27.8607L24.9306 27.8289L24.9708 27.7967L25.0104 27.7643L25.0497 27.7315L25.0885 27.6983L25.1269 27.6648L25.165 27.631L25.2026 27.5968L25.2398 27.5624L25.2764 27.5277L25.3128 27.4926L25.3487 27.4572L25.3842 27.4216L25.4192 27.3857L25.4537 27.3494L25.4878 27.313L25.5216 27.2761L25.5547 27.2392L25.5876 27.2018L25.6199 27.1642L25.6517 27.1265L25.6833 27.0883L25.7141 27.0501L25.7447 27.0115L25.7748 26.9728L25.8043 26.9338L25.8335 26.8945L25.8621 26.8552L25.8903 26.8154L25.9181 26.7755L25.9453 26.7356L25.9721 26.6952L25.9985 26.6548L26.0242 26.6142L26.0496 26.5734L26.0745 26.5324L26.0989 26.4912L26.1229 26.4499L26.1463 26.4084L26.1693 26.3668L26.1918 26.3249L26.2138 26.2831L26.2353 26.241L26.2564 26.1988L26.277 26.1565L26.2971 26.1139L26.3167 26.0714L26.3358 26.0287L26.3544 25.986L26.3726 25.943L26.3902 25.9001L26.4075 25.8568L26.4241 25.8139L26.4404 25.7703L26.456 25.7274L26.4713 25.6838L26.4861 25.6402L26.5003 25.5968L26.5141 25.5532L26.5274 25.5097L26.5403 25.4657L26.5525 25.4223L26.5645 25.3782L26.5758 25.3348L26.5867 25.2908L26.5971 25.2468L26.607 25.2031L26.6164 25.1595L26.6254 25.1153L26.6339 25.0716L26.6419 25.0275L26.6494 24.9839L26.6565 24.9401L26.6631 24.8962L26.6692 24.8523L26.6748 24.8085L26.68 24.7649L26.6847 24.7214L26.6889 24.6775L26.6927 24.634L26.696 24.5904L26.6988 24.5469L26.7012 24.5035L26.7031 24.4602L26.7045 24.4171L26.7055 24.3737L26.7061 24.3304L26.7062 24.2875L26.7058 24.2446L26.705 24.2018L26.7037 24.1591L26.702 24.1162L26.6998 24.0741L26.6972 24.0311L26.6942 23.9892L26.6907 23.9471L26.6868 23.9047L26.6824 23.8628L26.6777 23.8213L26.6724 23.7792L26.6668 23.738L26.6607 23.6965L26.6543 23.6556L26.6473 23.6143L26.64 23.5733L26.6323 23.5327L26.6242 23.4922L26.6156 23.4516L26.6066 23.4115L26.5973 23.3714L26.5875 23.3316L26.5774 23.2921L26.5667 23.2523L26.5559 23.2133L26.5445 23.1739L26.5328 23.1352L26.5207 23.0965L26.5082 23.0581L26.4953 23.0198L26.482 22.9816L26.4685 22.944L26.4545 22.9065L26.4401 22.8689L26.4254 22.8319L26.4103 22.7947L26.395 22.7584L26.3791 22.7217L26.3631 22.6856L26.3466 22.6498L26.3298 22.614L26.3127 22.5786L26.2952 22.5434L26.2774 22.5084L26.2593 22.4738L26.2408 22.4394L26.2221 22.4053L26.203 22.3714L26.1835 22.3378L26.1639 22.3045L26.1439 22.2715L26.1235 22.2386L26.1029 22.2063L26.082 22.1741L26.0608 22.1422L26.0393 22.1105L26.0176 22.0793L25.9955 22.0482L25.9732 22.0175L25.9506 21.9871L25.9277 21.957L25.9047 21.9272L25.8812 21.8976L25.8576 21.8685L25.8337 21.8396L25.8096 21.811L25.7852 21.7827L25.7607 21.7548L25.7358 21.7272L25.7107 21.6999L25.6854 21.6728L25.6599 21.6462L25.6341 21.6199L25.6081 21.5938L25.582 21.5682L25.5556 21.5429L25.5291 21.5179L25.5021 21.4931L25.4753 21.4688L25.4481 21.4447L25.4208 21.4211L25.3932 21.3977L25.3655 21.3748L25.3376 21.3521L25.3096 21.3298L25.2814 21.3078L25.253 21.2861L25.2245 21.2649L25.1958 21.2439L25.1669 21.2233L25.138 21.2031L25.1089 21.1831L25.0797 21.1636L25.0503 21.1444L25.0207 21.1255L24.9912 21.107L24.9613 21.0888L24.9315 21.071L24.9016 21.0536L24.8715 21.0365L24.8412 21.0197L24.811 21.0033L24.7807 20.9872L24.7502 20.9715L24.7198 20.9562L24.689 20.9411L24.6584 20.9265L24.6276 20.9123L24.5968 20.8983L24.5659 20.8847L24.5348 20.8714L24.504 20.8586L24.4728 20.8461L24.4416 20.8339L24.4105 20.8221L24.3793 20.8106L24.3481 20.7995L24.3168 20.7887L24.2855 20.7782L24.2543 20.7682L24.2229 20.7584L24.1915 20.749L24.1603 20.74L24.1287 20.7313L24.0975 20.723L24.0661 20.715L24.0347 20.7073L24.0033 20.7L23.972 20.693L23.9406 20.6864L23.9093 20.6801L23.8781 20.6741L23.8469 20.6685L23.8155 20.6632L23.7845 20.6583L23.7531 20.6537L23.7222 20.6494L23.691 20.6454L23.66 20.6418L23.6292 20.6385L23.5982 20.6356L23.5674 20.6329L23.5366 20.6306L23.5059 20.6286L23.4752 20.6269L23.4446 20.6256L23.4143 20.6246L23.3838 20.6238L23.3535 20.6234L23.3232 20.6233L23.2931 20.6236L23.263 20.6241L23.2331 20.6249L23.2032 20.6261L23.1736 20.6275L23.1438 20.6293L23.1144 20.6313L23.085 20.6336L23.0557 20.6363L23.0266 20.6392L22.9974 20.6424L22.9686 20.6459L22.9398 20.6497L22.9112 20.6538L22.8826 20.6582L22.8543 20.6628L22.826 20.6677L22.7981 20.6729L22.77 20.6784L22.7423 20.6841L22.7146 20.6901L22.6872 20.6964Z" class="ccustom" fill="#666666"></path> </svg>